<?xml version="1.0" encoding="utf-8"?>
<!-- Generator: Adobe Illustrator 23.0.6, SVG Export Plug-In . SVG Version: 6.00 Build 0)  -->
<svg version="1.1" id="Layer_1" xmlns="http://www.w3.org/2000/svg" xmlns:xlink="http://www.w3.org/1999/xlink" x="0px" y="0px"
	 viewBox="0 0 1301.6 1256.9" style="enable-background:new 0 0 1301.6 1256.9;" xml:space="preserve">
<style type="text/css">
	.st0{fill:#67C5CA;}
	.st1{fill:url(#SVGID_1_);}
	.st2{fill:url(#SVGID_2_);}
	.st3{fill:url(#SVGID_3_);}
	.st4{fill:url(#SVGID_4_);}
	.st5{fill:url(#SVGID_5_);}
	.st6{fill:url(#SVGID_6_);}
	.st7{fill:#999889;}
	.st8{fill:#B0A690;}
	.st9{fill:#BDBDB0;}
	.st10{fill:url(#SVGID_7_);}
	.st11{fill:#D7D6CB;}
	.st12{fill:#FFFFFF;}
	.st13{fill:url(#SVGID_8_);}
	.st14{fill:url(#SVGID_9_);}
	.st15{fill:url(#SVGID_10_);}
	.st16{fill:url(#SVGID_11_);}
	.st17{fill:none;stroke:#000000;stroke-width:12;stroke-miterlimit:10;}
	.st18{fill:#1C2F42;}
	.st19{enable-background:new    ;}
</style>
<g>
	<g>
		<circle class="st0" cx="651" cy="546.8" r="522.5"/>
	</g>
	<g>
		<path class="st0" d="M1173.5,541.6c0-1.3,0-2.6-0.1-3.8c0-0.4,0-0.7,0-1.1c0-0.7,0-1.4,0-2.1c0-0.8,0-1.5-0.1-2.3
			c0-0.8,0-1.5-0.1-2.3v-0.1c0-1.3-0.1-2.6-0.1-4c-0.1-1.6-0.1-3.2-0.2-4.8c-0.1-2-0.2-4.1-0.3-6.1c-0.1-1.5-0.2-3-0.3-4.5
			c0-0.2,0-0.3,0-0.5c-0.1-1.5-0.2-2.9-0.3-4.4c-0.1-1.9-0.3-3.8-0.5-5.8c-0.1-1.5-0.3-3.1-0.4-4.6c-0.3-2.9-0.6-5.8-0.9-8.8
			c-0.1-0.9-0.2-1.7-0.3-2.6c-0.2-1.7-0.4-3.4-0.7-5.1c-0.1-0.9-0.2-1.9-0.4-2.8c-0.1-0.7-0.2-1.4-0.3-2.2c0-0.2,0-0.3-0.1-0.5
			c-0.2-1.2-0.3-2.5-0.5-3.7c-0.2-1.4-0.4-2.8-0.7-4.2c-0.1-0.5-0.1-0.9-0.2-1.4c-0.2-1.4-0.4-2.8-0.7-4.2c-0.5-3.1-1.1-6.2-1.6-9.3
			c-0.1-0.7-0.3-1.4-0.4-2.1c0-0.1-0.1-0.3-0.1-0.4c-0.2-1.1-0.4-2.2-0.7-3.3c-0.2-1-0.4-2.1-0.6-3.1s-0.4-2-0.6-2.9
			c-0.3-1.3-0.5-2.5-0.8-3.8c-0.3-1.6-0.7-3.3-1.1-4.9c-0.3-1.4-0.7-2.8-1-4.2c-0.2-1-0.5-2-0.7-3c-0.6-2.6-1.3-5.2-2-7.7
			c-0.3-1.2-0.6-2.4-1-3.7c-1.8-6.8-3.8-13.5-5.8-20.1c-0.5-1.6-1-3.1-1.5-4.7s-1-3.2-1.6-4.7c-0.5-1.4-0.9-2.8-1.4-4.2
			c-0.1-0.4-0.3-0.8-0.4-1.2c-0.5-1.3-0.9-2.7-1.4-4c-0.5-1.6-1.1-3.1-1.7-4.7c-0.5-1.5-1.1-2.9-1.6-4.4c-0.6-1.7-1.3-3.3-1.9-5
			c-0.6-1.5-1.2-3-1.8-4.5c-0.6-1.5-1.2-2.9-1.8-4.4c0-0.1-0.1-0.2-0.1-0.3c-0.6-1.5-1.2-3-1.9-4.5c-0.6-1.5-1.3-3-1.9-4.5
			c-0.6-1.3-1.2-2.7-1.8-4c-2.1-4.8-4.3-9.5-6.5-14.2c-0.7-1.4-1.3-2.8-2-4.2c-0.6-1.3-1.3-2.6-1.9-3.9c-2.4-4.8-4.9-9.6-7.5-14.4
			c-0.6-1-1.1-2.1-1.7-3.1c-0.2-0.3-0.3-0.6-0.5-0.9c-0.7-1.2-1.4-2.5-2.1-3.7c-1.6-2.8-3.2-5.7-4.9-8.5c-1.7-2.8-3.3-5.6-5-8.4
			s-3.4-5.5-5.2-8.3c-0.7-1.1-1.4-2.2-2.1-3.3c-0.3-0.4-0.5-0.8-0.8-1.3c-0.7-1.1-1.5-2.3-2.2-3.4c-0.2-0.3-0.4-0.5-0.5-0.8
			c-0.8-1.2-1.5-2.3-2.3-3.5c-0.9-1.4-1.8-2.7-2.8-4c-0.7-1-1.4-2-2.1-3c-0.2-0.3-0.4-0.6-0.7-1c-1.8,0.2-3.6,0.3-5.4,0.3h-21.3
			c-14.6-19.7-30.7-38.3-48.3-55.9c-21.8-21.8-45.3-41.4-70.4-58.7h35.5c-3-2.3-5.9-4.5-9-6.7c-0.7-0.5-1.4-1-2.1-1.5
			c-1.1-0.8-2.2-1.6-3.3-2.4c-0.4-0.3-0.8-0.5-1.1-0.8c-1.6-1.1-3.1-2.2-4.7-3.3c-1.5-1-3-2.1-4.5-3.1c-1.8-1.2-3.5-2.4-5.3-3.6
			c-0.7-0.5-1.4-1-2.2-1.4c-1.1-0.7-2.2-1.5-3.4-2.2c-0.3-0.2-0.6-0.4-0.9-0.5c-1.3-0.9-2.7-1.7-4.1-2.6c-0.5-0.3-0.9-0.6-1.4-0.8
			c-1-0.6-2-1.2-3-1.8c-0.8-0.5-1.6-1-2.4-1.5c-3.1-1.9-6.2-3.7-9.3-5.5c-1-0.6-2-1.2-3-1.7c-0.7-0.4-1.4-0.8-2-1.1
			c-1-0.6-1.9-1.1-2.9-1.6c-1.5-0.8-2.9-1.6-4.4-2.4c-1.7-0.9-3.4-1.8-5.2-2.8c-1.7-0.9-3.4-1.8-5.2-2.7c-1.7-0.9-3.5-1.8-5.2-2.7
			c-1-0.5-2-1-3-1.5c-0.6-0.3-1.2-0.6-1.9-0.9c-0.9-0.4-1.8-0.9-2.7-1.3c-1.4-0.7-2.7-1.3-4.1-1.9c-0.3-0.1-0.6-0.3-0.8-0.4
			c-1.8-0.9-3.6-1.7-5.5-2.5c-2.3-1-4.6-2-6.9-3c-1.4-0.6-2.8-1.2-4.1-1.8c-6.5-2.8-13.1-5.4-19.7-7.9c-1.3-0.5-2.5-1-3.8-1.4
			c-3.7-1.4-7.5-2.7-11.3-4c-1.2-0.4-2.5-0.8-3.7-1.3c-1.3-0.5-2.7-0.9-4-1.3c-0.5-0.2-1-0.3-1.5-0.5c-1.5-0.5-3.1-1-4.6-1.5
			c-1-0.3-2.1-0.6-3.1-1c-1-0.3-2.1-0.6-3.1-0.9c-1.3-0.4-2.7-0.8-4.1-1.2c-1.7-0.5-3.4-1-5.1-1.4c-3.8-1-7.6-2.1-11.4-3
			c-0.8-0.2-1.5-0.4-2.3-0.6c-1.4-0.4-2.8-0.7-4.2-1c-6.4-1.5-12.8-2.9-19.2-4.2c-1.3-0.3-2.7-0.5-4.1-0.8c-0.2,0-0.4-0.1-0.6-0.1
			c-1.6-0.3-3.2-0.6-4.7-0.9c-2-0.4-3.9-0.7-5.9-1c-1.5-0.3-3-0.5-4.5-0.7c-0.7-0.1-1.3-0.2-1.9-0.3c-1.4-0.2-2.9-0.5-4.3-0.7
			c-1.3-0.2-2.6-0.4-3.8-0.5c-0.8-0.1-1.5-0.2-2.3-0.3c-1.1-0.2-2.3-0.3-3.4-0.5c-0.8-0.1-1.5-0.2-2.2-0.3c-1.5-0.2-2.9-0.4-4.4-0.5
			c-0.2,0-0.5-0.1-0.7-0.1c-1.6-0.2-3.2-0.4-4.8-0.5c-3.1-0.3-6.1-0.6-9.2-0.9c-0.9-0.1-1.7-0.2-2.6-0.2c-0.4,0-0.8-0.1-1.2-0.1
			c-1.1-0.1-2.2-0.2-3.2-0.3c-0.2,0-0.4,0-0.6,0c-1.7-0.1-3.4-0.2-5.2-0.3c-1.8-0.1-3.6-0.2-5.4-0.3h-0.1c-1.8-0.1-3.7-0.2-5.5-0.3
			c-1.4-0.1-2.9-0.1-4.3-0.2c-0.9,0-1.8-0.1-2.7-0.1c-1.2,0-2.5-0.1-3.7-0.1c-0.5,0-1,0-1.5,0c-1.5,0-3,0-4.5-0.1
			c-1.9,0-3.7,0-5.6,0c-288.6,0-522.5,233.9-522.5,522.5s233.9,522.5,522.5,522.5s522.5-233.9,522.5-522.5
			C1173.5,545,1173.5,543.3,1173.5,541.6z M370.5,122.8h6.1c-22.8,14.6-44.4,31.2-64.7,49.5C316.6,144.3,341.2,122.8,370.5,122.8z"
			/>
		<path class="st0" d="M1173.5,541.6c0-1.3,0-2.6-0.1-3.8c0-0.4,0-0.7,0-1.1c0-0.7,0-1.4,0-2.1c0-0.8,0-1.5-0.1-2.3
			c0-0.8,0-1.5-0.1-2.3v-0.1c0-1.3-0.1-2.6-0.1-4c-0.1-1.6-0.1-3.2-0.2-4.8c-0.1-2-0.2-4.1-0.3-6.1c-0.1-1.5-0.2-3-0.3-4.5
			c0-0.2,0-0.3,0-0.5c-0.1-1.5-0.2-2.9-0.3-4.4c-0.1-1.9-0.3-3.8-0.5-5.8c-0.1-1.5-0.3-3.1-0.4-4.6c-0.3-2.9-0.6-5.8-0.9-8.8
			c-0.1-0.9-0.2-1.7-0.3-2.6c-0.2-1.7-0.4-3.4-0.7-5.1c-0.1-0.9-0.2-1.9-0.4-2.8c-0.1-0.7-0.2-1.4-0.3-2.2c0-0.2,0-0.3-0.1-0.5
			c-0.2-1.2-0.3-2.5-0.5-3.7c-0.2-1.4-0.4-2.8-0.7-4.2c-0.1-0.5-0.1-0.9-0.2-1.4c-0.2-1.4-0.4-2.8-0.7-4.2c-0.5-3.1-1.1-6.2-1.6-9.3
			c-0.1-0.7-0.3-1.4-0.4-2.1c0-0.1-0.1-0.3-0.1-0.4c-0.2-1.1-0.4-2.2-0.7-3.3c-0.2-1-0.4-2.1-0.6-3.1s-0.4-2-0.6-2.9
			c-0.3-1.3-0.5-2.5-0.8-3.8c-0.3-1.6-0.7-3.3-1.1-4.9c-0.3-1.4-0.7-2.8-1-4.2c-0.2-1-0.5-2-0.7-3c-0.6-2.6-1.3-5.2-2-7.7
			c-0.3-1.2-0.6-2.4-1-3.7c-1.8-6.8-3.8-13.5-5.8-20.1c-0.5-1.6-1-3.1-1.5-4.7s-1-3.2-1.6-4.7c-0.5-1.4-0.9-2.8-1.4-4.2
			c-0.1-0.4-0.3-0.8-0.4-1.2c-0.5-1.3-0.9-2.7-1.4-4c-0.5-1.6-1.1-3.1-1.7-4.7c-0.5-1.5-1.1-2.9-1.6-4.4c-0.6-1.7-1.3-3.3-1.9-5
			c-0.6-1.5-1.2-3-1.8-4.5c-0.6-1.5-1.2-2.9-1.8-4.4c0-0.1-0.1-0.2-0.1-0.3c-0.6-1.5-1.2-3-1.9-4.5c-0.6-1.5-1.3-3-1.9-4.5
			c-0.6-1.3-1.2-2.7-1.8-4c-2.1-4.8-4.3-9.5-6.5-14.2c-0.7-1.4-1.3-2.8-2-4.2c-0.6-1.3-1.3-2.6-1.9-3.9c-2.4-4.8-4.9-9.6-7.5-14.4
			c-0.6-1-1.1-2.1-1.7-3.1c-0.2-0.3-0.3-0.6-0.5-0.9c-0.7-1.2-1.4-2.5-2.1-3.7c-1.6-2.8-3.2-5.7-4.9-8.5c-1.7-2.8-3.3-5.6-5-8.4
			s-3.4-5.5-5.2-8.3c-0.7-1.1-1.4-2.2-2.1-3.3c-0.3-0.4-0.5-0.8-0.8-1.3c-0.7-1.1-1.5-2.3-2.2-3.4c-0.2-0.3-0.4-0.5-0.5-0.8
			c-0.8-1.2-1.5-2.3-2.3-3.5c-0.9-1.4-1.8-2.7-2.8-4c-0.7-1-1.4-2-2.1-3c-0.2-0.3-0.4-0.6-0.7-1c-1.8,0.2-3.6,0.3-5.4,0.3h-21.3
			c-14.6-19.7-30.7-38.3-48.3-55.9c-21.8-21.8-45.3-41.4-70.4-58.7h35.5c-3-2.3-5.9-4.5-9-6.7c-0.7-0.5-1.4-1-2.1-1.5
			c-1.1-0.8-2.2-1.6-3.3-2.4c-0.4-0.3-0.8-0.5-1.1-0.8c-1.6-1.1-3.1-2.2-4.7-3.3c-1.5-1-3-2.1-4.5-3.1c-1.8-1.2-3.5-2.4-5.3-3.6
			c-0.7-0.5-1.4-1-2.2-1.4c-1.1-0.7-2.2-1.5-3.4-2.2c-0.3-0.2-0.6-0.4-0.9-0.5c-1.3-0.9-2.7-1.7-4.1-2.6c-0.5-0.3-0.9-0.6-1.4-0.8
			c-1-0.6-2-1.2-3-1.8c-0.8-0.5-1.6-1-2.4-1.5c-3.1-1.9-6.2-3.7-9.3-5.5c-1-0.6-2-1.2-3-1.7c-0.7-0.4-1.4-0.8-2-1.1
			c-1-0.6-1.9-1.1-2.9-1.6c-1.5-0.8-2.9-1.6-4.4-2.4c-1.7-0.9-3.4-1.8-5.2-2.8c-1.7-0.9-3.4-1.8-5.2-2.7c-1.7-0.9-3.5-1.8-5.2-2.7
			c-1-0.5-2-1-3-1.5c-0.6-0.3-1.2-0.6-1.9-0.9c-0.9-0.4-1.8-0.9-2.7-1.3c-1.4-0.7-2.7-1.3-4.1-1.9c-0.3-0.1-0.6-0.3-0.8-0.4
			c-1.8-0.9-3.6-1.7-5.5-2.5c-2.3-1-4.6-2-6.9-3c-1.4-0.6-2.8-1.2-4.1-1.8c-6.5-2.8-13.1-5.4-19.7-7.9c-1.3-0.5-2.5-1-3.8-1.4
			c-3.7-1.4-7.5-2.7-11.3-4c-1.2-0.4-2.5-0.8-3.7-1.3c-1.3-0.5-2.7-0.9-4-1.3c-0.5-0.2-1-0.3-1.5-0.5c-1.5-0.5-3.1-1-4.6-1.5
			c-1-0.3-2.1-0.6-3.1-1c-1-0.3-2.1-0.6-3.1-0.9c-1.3-0.4-2.7-0.8-4.1-1.2c-1.7-0.5-3.4-1-5.1-1.4c-3.8-1-7.6-2.1-11.4-3
			c-0.8-0.2-1.5-0.4-2.3-0.6c-1.4-0.4-2.8-0.7-4.2-1c-6.4-1.5-12.8-2.9-19.2-4.2c-1.3-0.3-2.7-0.5-4.1-0.8c-0.2,0-0.4-0.1-0.6-0.1
			c-1.6-0.3-3.2-0.6-4.7-0.9c-2-0.4-3.9-0.7-5.9-1c-1.5-0.3-3-0.5-4.5-0.7c-0.7-0.1-1.3-0.2-1.9-0.3c-1.4-0.2-2.9-0.5-4.3-0.7
			c-1.3-0.2-2.6-0.4-3.8-0.5c-0.8-0.1-1.5-0.2-2.3-0.3c-1.1-0.2-2.3-0.3-3.4-0.5c-0.8-0.1-1.5-0.2-2.2-0.3c-1.5-0.2-2.9-0.4-4.4-0.5
			c-0.2,0-0.5-0.1-0.7-0.1c-1.6-0.2-3.2-0.4-4.8-0.5c-3.1-0.3-6.1-0.6-9.2-0.9c-0.9-0.1-1.7-0.2-2.6-0.2c-0.4,0-0.8-0.1-1.2-0.1
			c-1.1-0.1-2.2-0.2-3.2-0.3c-0.2,0-0.4,0-0.6,0c-1.7-0.1-3.4-0.2-5.2-0.3c-1.8-0.1-3.6-0.2-5.4-0.3h-0.1c-1.8-0.1-3.7-0.2-5.5-0.3
			c-1.4-0.1-2.9-0.1-4.3-0.2c-0.9,0-1.8-0.1-2.7-0.1c-1.2,0-2.5-0.1-3.7-0.1c-0.5,0-1,0-1.5,0c-1.5,0-3,0-4.5-0.1
			c-1.9,0-3.7,0-5.6,0c-288.6,0-522.5,233.9-522.5,522.5s233.9,522.5,522.5,522.5s522.5-233.9,522.5-522.5
			C1173.5,545,1173.5,543.3,1173.5,541.6z M370.5,122.8h6.1c-22.8,14.6-44.4,31.2-64.7,49.5C316.6,144.3,341.2,122.8,370.5,122.8z"
			/>
		
			<linearGradient id="SVGID_1_" gradientUnits="userSpaceOnUse" x1="647.3848" y1="967.6702" x2="648.9473" y2="312.9938" gradientTransform="matrix(1 0 0 -1 0 1256)">
			<stop  offset="0" style="stop-color:#00FFFF"/>
			<stop  offset="9.778440e-03" style="stop-color:#00FDFD"/>
			<stop  offset="0.2601" style="stop-color:#00C6CB"/>
			<stop  offset="0.4929" style="stop-color:#009BA3"/>
			<stop  offset="0.7011" style="stop-color:#007C87"/>
			<stop  offset="0.8772" style="stop-color:#006975"/>
			<stop  offset="1" style="stop-color:#00626F"/>
		</linearGradient>
		<path class="st1" d="M1150.5,545.8c0,67.8-13.3,133.7-39.5,195.6c-25.3,59.8-61.5,113.6-107.7,159.7
			c-46.2,46.2-99.9,82.4-159.7,107.7c-61.9,26.2-127.7,39.5-195.6,39.5s-133.7-13.3-195.6-39.5c-59.8-25.3-113.6-61.5-159.7-107.7
			c-46.2-46.2-82.4-99.9-107.7-159.7c-26.2-61.9-39.5-127.7-39.5-195.6L1150.5,545.8L1150.5,545.8z"/>
		
			<linearGradient id="SVGID_2_" gradientUnits="userSpaceOnUse" x1="659.5541" y1="965.742" x2="661.1125" y2="312.7517" gradientTransform="matrix(1 0 0 -1 0 1256)">
			<stop  offset="0" style="stop-color:#00FFFF"/>
			<stop  offset="9.778440e-03" style="stop-color:#00FDFD"/>
			<stop  offset="0.2601" style="stop-color:#00C6CB"/>
			<stop  offset="0.4929" style="stop-color:#009BA3"/>
			<stop  offset="0.7011" style="stop-color:#007C87"/>
			<stop  offset="0.8772" style="stop-color:#006975"/>
			<stop  offset="1" style="stop-color:#00626F"/>
		</linearGradient>
		<path class="st2" d="M1150.5,545.8c0,67.8-13.3,133.6-39.5,195.6c-25.3,59.8-61.5,113.6-107.7,159.7
			c-46.2,46.2-99.9,82.4-159.7,107.7c-61.9,26.2-127.7,39.5-195.6,39.5s-133.7-13.3-195.6-39.5c-59.8-25.3-113.6-61.5-159.7-107.7
			c-46.2-46.2-82.4-99.9-107.7-159.7c-5.5-13.1-10.5-26.3-14.8-39.7c2.8,0.1,5.5,0.1,8.3,0.1c69.5,0,132.4-16.4,177.6-42.9
			c36.4,18.5,85.2,29.9,138.9,29.9c112.1,0,203-49.5,203-110.5c0-11.3-3.1-22.2-8.9-32.5H1150.5L1150.5,545.8z"/>
		
			<linearGradient id="SVGID_3_" gradientUnits="userSpaceOnUse" x1="647.6233" y1="672.4395" x2="648.5788" y2="272.0988" gradientTransform="matrix(1 0 0 -1 0 1256)">
			<stop  offset="1.343419e-03" style="stop-color:#00626F"/>
			<stop  offset="0.124" style="stop-color:#006975"/>
			<stop  offset="0.2998" style="stop-color:#007C87"/>
			<stop  offset="0.5078" style="stop-color:#009BA3"/>
			<stop  offset="0.7402" style="stop-color:#00C6CB"/>
			<stop  offset="0.9902" style="stop-color:#00FDFD"/>
			<stop  offset="1" style="stop-color:#00FFFF"/>
		</linearGradient>
		<path class="st3" d="M1111,741.4c-25.3,59.8-61.5,113.6-107.7,159.7c-46.2,46.2-99.9,82.4-159.7,107.7
			c-61.9,26.2-127.7,39.5-195.6,39.5s-133.7-13.3-195.6-39.5c-59.8-25.3-113.6-61.5-159.7-107.7c-46.2-46.2-82.4-99.9-107.7-159.7
			H1111z"/>
		<g>
			
				<linearGradient id="SVGID_4_" gradientUnits="userSpaceOnUse" x1="839.5" y1="1126.2" x2="839.5" y2="943.2" gradientTransform="matrix(1 0 0 -1 0 1256)">
				<stop  offset="0" style="stop-color:#FFFF00;stop-opacity:0.2"/>
				<stop  offset="1" style="stop-color:#F7931E;stop-opacity:0.5"/>
			</linearGradient>
			<circle class="st4" cx="839.5" cy="221.3" r="91.5"/>
			
				<linearGradient id="SVGID_5_" gradientUnits="userSpaceOnUse" x1="839.5" y1="953.8" x2="839.5" y2="1115.6" gradientTransform="matrix(1 0 0 -1 0 1256)">
				<stop  offset="0" style="stop-color:#F7931E;stop-opacity:0.5"/>
				<stop  offset="1" style="stop-color:#FFFF00;stop-opacity:0.3"/>
			</linearGradient>
			<circle class="st5" cx="839.5" cy="221.3" r="80.9"/>
			
				<linearGradient id="SVGID_6_" gradientUnits="userSpaceOnUse" x1="839.5" y1="964.3" x2="839.5" y2="1105.1" gradientTransform="matrix(1 0 0 -1 0 1256)">
				<stop  offset="0" style="stop-color:#F7931E;stop-opacity:0.9"/>
				<stop  offset="1" style="stop-color:#FFFF00"/>
			</linearGradient>
			<circle class="st6" cx="839.5" cy="221.3" r="70.4"/>
		</g>
		<rect x="454" y="418.8" class="st7" width="79" height="79"/>
		<rect x="170" y="373.8" class="st8" width="93" height="93"/>
		<rect x="249" y="321.8" class="st7" width="122" height="186"/>
		<rect x="371" y="294.8" class="st9" width="98" height="207"/>
		
			<linearGradient id="SVGID_7_" gradientUnits="userSpaceOnUse" x1="417.3" y1="710.2" x2="417.3" y2="810.2" gradientTransform="matrix(1 0 0 -1 0 1256)">
			<stop  offset="0.5829" style="stop-color:#006837"/>
			<stop  offset="1" style="stop-color:#22B573;stop-opacity:0.9"/>
		</linearGradient>
		<path class="st10" d="M689.1,545.8H145.5c0-34.1,5.8-67.5,17.4-99.8c5.2-0.1,10.4-0.2,15.6-0.2c90.4,0,169.6,21,213.3,52.5
			c30.2-7.4,65.5-11.6,103.2-11.6C586.3,486.7,663.6,511.6,689.1,545.8z"/>
		<path class="st11" d="M472,601.2v192.6h-98V603.1c7.6-4,14.6-8.3,20.8-12.8c19,4.6,39.9,8,62.2,9.9
			C461.9,600.6,466.9,600.9,472,601.2z"/>
		<path class="st8" d="M536,600.4v69.4h-64v-68.6c8.5,0.5,17.2,0.7,26,0.7C511,601.9,523.7,601.4,536,600.4z"/>
		<path class="st8" d="M374,603.1v163.7H252V638.4c4.7-0.6,9.4-1.3,14-2C308.6,629.7,345.8,618.1,374,603.1z"/>
		<path class="st8" d="M252,638.4v76.4h-79v-72.1c2.8,0,5.7,0.1,8.5,0.1C206,642.8,229.7,641.3,252,638.4z"/>
		<path class="st12" d="M548,177.9v6.8c0,30.3-24.8,55.1-55.1,55.1H366.1c-30.3,0-55.1-24.8-55.1-55.1v-2.5c0-3.4,0.3-6.7,0.8-10
			l0,0c20.3-18.3,41.9-34.8,64.7-49.5h116.3C523.2,122.8,548,147.6,548,177.9z"/>
		<path class="st12" d="M1003.3,190.5c17.6,17.6,33.7,36.2,48.3,55.9H842.1c-30.3,0-55.1-24.8-55.1-55.1c0-7.3,1.3-14.3,3.8-20.7
			c3-8,7.7-15.3,13.7-21.3c0.6-0.6,1.3-1.2,1.9-1.8c10.6-9.7,24.7-15.6,40.1-15.6H933C958,149.1,981.5,168.7,1003.3,190.5z"/>
		
			<linearGradient id="SVGID_8_" gradientUnits="userSpaceOnUse" x1="420.3" y1="713.3" x2="420.3" y2="613.2001" gradientTransform="matrix(1 0 0 -1 0 1256)">
			<stop  offset="0.5829" style="stop-color:#006837"/>
			<stop  offset="1" style="stop-color:#22B573;stop-opacity:0.9"/>
		</linearGradient>
		<path class="st13" d="M692.1,542.8c-21.9,29.3-81.8,51.8-156.1,57.6c-12.3,1-25,1.5-38,1.5c-8.8,0-17.5-0.2-26-0.7
			c-5.1-0.3-10.1-0.6-15-1c-22.3-1.9-43.2-5.3-62.2-9.9c-6.2,4.5-13.2,8.8-20.8,12.8c-28.2,15-65.4,26.6-108,33.3
			c-4.6,0.7-9.3,1.4-14,2c-22.3,2.9-46,4.4-70.5,4.4c-2.8,0-5.7,0-8.5-0.1c-2.4,0-4.7-0.1-7.1-0.2c-11.6-32.3-17.4-65.7-17.4-99.8
			h543.6V542.8z"/>
		<g>
			
				<linearGradient id="SVGID_9_" gradientUnits="userSpaceOnUse" x1="839.5" y1="514.2" x2="839.5" y2="331.2" gradientTransform="matrix(1 0 0 -1 0 1256)">
				<stop  offset="0" style="stop-color:#FFFF00;stop-opacity:0.2"/>
				<stop  offset="1" style="stop-color:#F7931E;stop-opacity:0.5"/>
			</linearGradient>
			<circle class="st14" cx="839.5" cy="833.3" r="91.5"/>
			
				<linearGradient id="SVGID_10_" gradientUnits="userSpaceOnUse" x1="839.5" y1="341.8" x2="839.5" y2="503.6" gradientTransform="matrix(1 0 0 -1 0 1256)">
				<stop  offset="0" style="stop-color:#F7931E;stop-opacity:0.5"/>
				<stop  offset="1" style="stop-color:#FFFF00;stop-opacity:0.3"/>
			</linearGradient>
			<circle class="st15" cx="839.5" cy="833.3" r="80.9"/>
			
				<linearGradient id="SVGID_11_" gradientUnits="userSpaceOnUse" x1="839.5" y1="352.3" x2="839.5" y2="493.1" gradientTransform="matrix(1 0 0 -1 0 1256)">
				<stop  offset="0" style="stop-color:#F7931E;stop-opacity:0.9"/>
				<stop  offset="1" style="stop-color:#FFFF00"/>
			</linearGradient>
			<circle class="st16" cx="839.5" cy="833.3" r="70.4"/>
		</g>
		<path class="st17" d="M1150.5,545.8c0,67.8-13.3,133.6-39.5,195.6c-25.3,59.8-61.5,113.6-107.7,159.7
			c-46.2,46.2-99.9,82.4-159.7,107.7c-61.9,26.2-127.7,39.5-195.6,39.5s-133.7-13.3-195.6-39.5c-59.8-25.3-113.6-61.5-159.7-107.7
			c-46.2-46.2-82.4-99.9-107.7-159.7c-0.7-1.6-1.4-3.3-2-4.9c-0.3-0.6-0.5-1.2-0.8-1.9c-0.1-0.3-0.2-0.6-0.3-0.9
			c-0.2-0.4-0.4-0.9-0.5-1.3c0-0.1-0.1-0.1-0.1-0.2c-0.1-0.2-0.2-0.4-0.3-0.7c-0.1-0.2-0.1-0.3-0.2-0.5c-0.2-0.4-0.4-0.9-0.5-1.3
			c-0.2-0.5-0.4-1.1-0.7-1.7c-0.2-0.4-0.3-0.9-0.5-1.3c-0.1-0.2-0.2-0.5-0.3-0.8c-0.1-0.2-0.1-0.4-0.2-0.5c0-0.1-0.1-0.2-0.1-0.3
			c-0.4-1.1-0.8-2.2-1.2-3.3c-0.1-0.3-0.2-0.6-0.4-1c-0.2-0.6-0.5-1.2-0.7-1.8s-0.5-1.3-0.7-1.9c-0.1-0.2-0.1-0.3-0.2-0.5
			c-0.2-0.5-0.3-0.9-0.5-1.4c-0.1-0.2-0.1-0.3-0.2-0.5c0,0,0,0,0-0.1c-0.1-0.3-0.2-0.6-0.3-1l-0.7-2c0-0.1-0.1-0.2-0.1-0.3
			c-0.1-0.4-0.3-0.8-0.4-1.2l0,0l0,0c0-0.1-0.1-0.3-0.2-0.4c-0.3-0.9-0.6-1.7-0.9-2.6c-0.1-0.2-0.1-0.3-0.2-0.5
			c-0.3-0.8-0.6-1.7-0.8-2.5c-0.3-0.8-0.6-1.7-0.8-2.5c-0.5-1.6-1-3.1-1.5-4.7c-0.5-1.5-1-3.1-1.4-4.6c0-0.1-0.1-0.2-0.1-0.3
			c-1.4-4.7-2.8-9.3-4-14c-0.3-1.2-0.6-2.3-0.9-3.5c-0.3-1-0.5-2-0.8-3c-0.2-1-0.5-1.9-0.7-2.9c-0.1-0.2-0.1-0.5-0.2-0.7
			c-0.8-3-1.5-6.1-2.2-9.1c-0.4-1.6-0.7-3.2-1.1-4.8c-0.3-1.3-0.6-2.7-0.9-4.1c-0.2-1.1-0.5-2.2-0.7-3.2c-0.1-0.4-0.2-0.9-0.3-1.3
			c-0.4-2-0.8-3.9-1.1-5.8c0,0,0,0,0-0.1c-0.4-1.9-0.7-3.9-1.1-5.9c-0.1-0.4-0.2-0.8-0.2-1.2c-0.2-1.2-0.4-2.4-0.6-3.6
			c-0.2-0.9-0.3-1.8-0.5-2.8c-0.3-1.7-0.5-3.3-0.8-5c-0.3-2-0.6-3.9-0.9-5.9c0-0.3-0.1-0.6-0.1-0.9c-0.2-1.7-0.5-3.5-0.7-5.2
			c0-0.5-0.1-0.9-0.2-1.4c-0.2-1.2-0.3-2.3-0.4-3.5c-0.2-1.3-0.3-2.5-0.4-3.8c-0.2-1.6-0.3-3.3-0.5-4.9c-0.2-1.6-0.3-3.3-0.5-4.9
			c-0.1-1-0.2-1.9-0.2-2.9c-0.1-1-0.2-2-0.2-2.9c-0.1-1-0.1-1.9-0.2-2.9c-0.1-0.8-0.1-1.6-0.2-2.4c-0.1-1-0.1-1.9-0.2-2.9
			s-0.1-2-0.2-3.1c0-0.9-0.1-1.8-0.1-2.7c-0.1-1.8-0.2-3.5-0.2-5.2c0-0.8-0.1-1.5-0.1-2.3c0-1.3-0.1-2.7-0.1-4c0-0.5,0-1,0-1.6
			c0-1.7-0.1-3.4-0.1-5.1c0-0.2,0-0.4,0-0.6c0-2.1,0-4.1,0-6.2c0-1.1,0-2.1,0-3.2c0.3-52.3,8.5-103.3,24.5-152.3
			c1.8-5.5,3.7-11.1,5.7-16.5c2.9-7.9,6-15.8,9.3-23.6c25.3-59.8,61.5-113.6,107.7-159.7c6.2-6.2,12.6-12.3,19.2-18.2l0,0
			c20.3-18.3,41.9-34.8,64.7-49.5c24-15.4,49.3-28.8,75.8-40C514.3,56.6,580.2,43.3,648,43.3s133.7,13.3,195.6,39.5
			c31.6,13.3,61.4,29.7,89.4,49c25,17.3,48.5,36.9,70.4,58.7c17.6,17.6,33.7,36.2,48.3,55.9c23.8,32,43.7,66.8,59.4,103.9
			C1137.2,412.1,1150.5,477.9,1150.5,545.8z"/>
		<path class="st12" d="M794.9,445.8H616.1c-30.3,0-55.1-24.8-55.1-55.1v-2.5c0-32.7,26.8-59.5,59.5-59.5H795
			c30.3,0,55.1,24.8,55.1,55.1v6.8C850,421,825.2,445.8,794.9,445.8z"/>
		<g>
			<path class="st18" d="M987,647.8H866.4v-28.2h124.3c6.8,0,12.2,5.5,12.2,12.2l0,0C1003,640.6,995.8,647.8,987,647.8z"/>
			<path class="st18" d="M866.4,647.8v-28.2h-25c-2.9,0-4.3,3.6-2,5.5L866.4,647.8z"/>
			<path class="st18" d="M930.5,497.5v107.2c0,5.7-4.6,10.3-10.3,10.3h-53.8L930.5,497.5z"/>
			<path class="st18" d="M981.6,615h-41.3c-3.3,0-6-2.7-6-6v-96.2L981.6,615z"/>
		</g>
	</g>
</g>
<g class="st19">
	<path class="st12" d="M347.7,1187.7c-26.1,1.1-53.2-15.5-53.2-48.6c0-33.2,27.1-49.6,53.2-49.6c24.7,1.2,50.6,17.6,50.6,49.6
		S372.4,1187.7,347.7,1187.7z M346.1,1107c-15.8,0-33,10.7-33,32c0,21.2,17.2,32,33,32c16.2,0,33.6-10.8,33.6-32
		C379.8,1117.7,362.4,1107,346.1,1107z"/>
	<path class="st12" d="M482,1101.8c0-12,18.5-13,18.5,0v48.9c0,50.5-85.2,50.5-85.2,0v-48.9c0-12.2,18.5-12.7,18.5,0v48.9
		c0,26.6,48.2,28.2,48.2,0V1101.8z"/>
	<path class="st12" d="M538.9,1177.5c0,11.8-18.8,12.2-18.8,0.3v-76.7c0-4.7,3.8-8.2,8.5-8.2h37.6c35.9,0,43.2,45.9,13.3,57.4
		l18.8,21.9c7.3,10.4-7.3,20.4-15.8,10.1l-21.3-29.2h-22.2V1177.5z M538.9,1137.6h27.3c18.4,0,19.5-28.4,0-28.4h-27.3V1137.6z"/>
	<path class="st12" d="M656.9,1101c0-4.5,4-8.2,8.9-8.2c4.5,0,8.3,3.8,8.3,8.2v67.7h38.4c13.8,0,14.1,17.7,0,17.7h-46.7
		c-4.9,0-8.9-3.4-8.9-8.2V1101z"/>
	<path class="st12" d="M735.5,1186.3c-4.5-2.4-7.3-7.3-4.5-13l40.5-75.8c3.8-7.2,14-7.4,17.5,0l39.8,75.8
		c5.8,10.5-11.3,18.9-16.4,8.4l-6.2-11.9h-52.1l-6.1,11.9C745.9,1186.3,740.6,1187.3,735.5,1186.3z M796.3,1152l-16-33.4l-17.4,33.4
		H796.3z"/>
	<path class="st12" d="M873.8,1145l-13.4,14.2v18.9c0,11.2-18.6,11.3-18.6,0c0-25.9,0-51.1,0-77.1c0-11.5,18.6-11.9,18.6,0v34.3
		l40.8-40.3c4.9-4.5,9.9-3.4,13.4,0c4,3.6,4,8.4,0,12c-8.3,9.5-18.1,17.8-27.1,27.3l33,38.2c8.5,11.2-9.6,19.3-15.3,10.7L873.8,1145
		z"/>
	<path class="st12" d="M945.1,1186.3c-4.9,0-8.8-3.6-8.8-8.4v-76.7c0-4.9,3.8-8.4,8.8-8.4h50.7c13,0,12.7,17.6,0,17.6h-40.7v20.3
		h35.6c12.6,0,12.6,17.7,0,17.7h-35.6v20.3h43.1c12.9,0,13.8,17.7,0,17.7H945.1z"/>
</g>
</svg>
