<?xml version="1.0" encoding="utf-8"?>
<!-- Generator: Adobe Illustrator 23.0.6, SVG Export Plug-In . SVG Version: 6.00 Build 0)  -->
<svg version="1.1" id="Layer_1" xmlns="http://www.w3.org/2000/svg" xmlns:xlink="http://www.w3.org/1999/xlink" x="0px" y="0px"
	 viewBox="0 0 1304.4 1329.6" style="enable-background:new 0 0 1304.4 1329.6;" xml:space="preserve">
<style type="text/css">
	.st0{fill:#22B573;}
	.st1{fill:none;stroke:#000000;stroke-width:13;stroke-miterlimit:10;}
	.st2{fill:url(#SVGID_1_);}
	.st3{fill:#666666;}
	.st4{fill:url(#SVGID_2_);}
	.st5{fill:#006837;}
	.st6{opacity:0.27;fill:url(#SVGID_3_);enable-background:new    ;}
	.st7{fill:url(#SVGID_4_);fill-opacity:0;}
	
		.st8{opacity:0.83;fill:none;stroke:#FFFFFF;stroke-width:22;stroke-linecap:round;stroke-miterlimit:10;enable-background:new    ;}
	.st9{opacity:4.000000e-02;fill:url(#SVGID_5_);enable-background:new    ;}
	.st10{enable-background:new    ;}
	.st11{fill:#FFFFFF;}
</style>
<g>
	<circle class="st0" cx="652.2" cy="542.5" r="522.5"/>
	<path class="st1" d="M654.7,1044.5c-67.8,0-133.7-13.3-195.6-39.5c-59.8-25.3-113.6-61.5-159.7-107.7
		c-46.2-46.2-82.4-99.9-107.7-159.7c-26.2-61.9-39.5-127.7-39.5-195.6s13.3-133.7,39.5-195.6c25.3-59.8,61.5-113.6,107.7-159.7
		c46.2-46.2,99.9-82.4,159.7-107.7C521,52.8,586.9,39.5,654.7,39.5S788.4,52.8,850.3,79c59.8,25.3,113.6,61.5,159.7,107.7
		c46.2,46.2,82.4,99.9,107.7,159.7c26.2,61.9,39.5,127.7,39.5,195.6s-13.3,133.7-39.5,195.6c-25.3,59.8-61.5,113.6-107.7,159.7
		c-46.2,46.1-99.9,82.4-159.7,107.7C788.4,1031.2,722.5,1044.5,654.7,1044.5z"/>
	<radialGradient id="SVGID_1_" cx="653.1005" cy="501.3499" r="269.7304" gradientUnits="userSpaceOnUse">
		<stop  offset="0" style="stop-color:#F2F2F2;stop-opacity:0.1"/>
		<stop  offset="0.111" style="stop-color:#F3F2E3;stop-opacity:0.1999"/>
		<stop  offset="0.3242" style="stop-color:#F5F1BC;stop-opacity:0.3918"/>
		<stop  offset="0.618" style="stop-color:#F8F07D;stop-opacity:0.6562"/>
		<stop  offset="0.9777" style="stop-color:#FCEE27;stop-opacity:0.98"/>
		<stop  offset="1" style="stop-color:#FCEE21"/>
	</radialGradient>
	<path class="st2" d="M909.7,478c-0.3,101.1-58.3,188.5-142.6,230.7v45.6c0,16.2-13,29.3-29.1,29.3H563.5c-13.5,0-24.4-11-24.4-24.6
		v-50.3c-84.5-42.3-142.6-130-142.6-231.4c0-142.7,115-258.4,256.9-258.2C795.7,219.1,910.1,334.7,909.7,478z"/>
	<path class="st3" d="M724.5,880.4H579.4c-5.1,0-9.3-5-9.3-11.2l0,0c0-6.2,4.2-11.2,9.3-11.2h145.1c5.1,0,9.3,5,9.3,11.2l0,0
		C733.8,875.4,729.6,880.4,724.5,880.4z"/>
	<path class="st3" d="M744.8,847.7H559.1c-6.6,0-11.9-4.9-11.9-10.9l0,0c0-6,5.4-10.9,11.9-10.9h185.6c6.6,0,11.9,4.9,11.9,10.9l0,0
		C756.7,842.8,751.3,847.7,744.8,847.7z"/>
	<path class="st3" d="M744.8,815.7H559.1c-6.6,0-11.9-4.9-11.9-10.9l0,0c0-6,5.4-10.9,11.9-10.9h185.6c6.6,0,11.9,4.9,11.9,10.9l0,0
		C756.7,810.8,751.3,815.7,744.8,815.7z"/>
	<g>
		<linearGradient id="SVGID_2_" gradientUnits="userSpaceOnUse" x1="651.7" y1="261.0667" x2="651.7" y2="768.6833">
			<stop  offset="0" style="stop-color:#D9E021"/>
			<stop  offset="0.208" style="stop-color:#98BC28"/>
			<stop  offset="0.4084" style="stop-color:#629E2D"/>
			<stop  offset="0.5932" style="stop-color:#388731"/>
			<stop  offset="0.7591" style="stop-color:#197634"/>
			<stop  offset="0.9003" style="stop-color:#076C36"/>
			<stop  offset="1" style="stop-color:#006837"/>
		</linearGradient>
		<path class="st4" d="M765.7,485.4c0,94.1-48.1,170.9-108.6,175.2V394.5c0-2.7-0.9-5.1-2.4-6.8c-1.5-1.7-3.5-2.8-5.7-2.8
			c-4.5,0-8.1,4.3-8.1,9.7v265.6c-57.9-8.5-103.2-83.5-103.2-174.8c0-96.9,114-175.4,114-175.4S765.7,388.5,765.7,485.4z"/>
		<path class="st5" d="M657.1,660.7v113.7c0,5.3-3.6,9.7-8.1,9.7s-8.1-4.3-8.1-9.7V660.1c3.6,0.5,7.2,0.8,10.8,0.8
			C653.5,660.9,655.3,660.8,657.1,660.7z"/>
	</g>
	<linearGradient id="SVGID_3_" gradientUnits="userSpaceOnUse" x1="536.7429" y1="326.1671" x2="889.3088" y2="781.6719">
		<stop  offset="0" style="stop-color:#CCE0F4"/>
		<stop  offset="0.3556" style="stop-color:#CADEF2"/>
		<stop  offset="0.4915" style="stop-color:#C5D8EB"/>
		<stop  offset="0.5899" style="stop-color:#BBCDDF"/>
		<stop  offset="0.6702" style="stop-color:#ACBDCE"/>
		<stop  offset="0.7393" style="stop-color:#99A8B8"/>
		<stop  offset="0.8009" style="stop-color:#828F9C"/>
		<stop  offset="0.8568" style="stop-color:#67717B"/>
		<stop  offset="0.9083" style="stop-color:#474E55"/>
		<stop  offset="0.9544" style="stop-color:#24272B"/>
		<stop  offset="0.9944" style="stop-color:#000000"/>
	</linearGradient>
	<path class="st6" d="M908.7,475.8c0,142.9-114.6,258.7-256.1,258.7c-117.9,0-217.1-80.4-246.9-189.9
		c43.8,56.4,111.9,92.6,188.3,92.6c132.1,0,239.2-108.2,239.2-241.6c0-51.1-15.7-98.5-42.5-137.5C861.7,304,908.7,384.4,908.7,475.8
		z"/>
	<radialGradient id="SVGID_4_" cx="651.7" cy="474" r="229" gradientUnits="userSpaceOnUse">
		<stop  offset="0" style="stop-color:#FCEE21;stop-opacity:0.4"/>
		<stop  offset="0.1555" style="stop-color:#FCEE25;stop-opacity:0.3531"/>
		<stop  offset="0.2947" style="stop-color:#FBEE2F;stop-opacity:0.3111"/>
		<stop  offset="0.4277" style="stop-color:#FAEF42;stop-opacity:0.271"/>
		<stop  offset="0.5569" style="stop-color:#F9EF5B;stop-opacity:0.232"/>
		<stop  offset="0.6833" style="stop-color:#F8F07D;stop-opacity:0.1938"/>
		<stop  offset="0.8077" style="stop-color:#F6F1A5;stop-opacity:0.1563"/>
		<stop  offset="0.9281" style="stop-color:#F3F1D5;stop-opacity:0.12"/>
		<stop  offset="0.9944" style="stop-color:#F2F2F2;stop-opacity:0.1"/>
	</radialGradient>
	<circle class="st7" cx="651.7" cy="474" r="229"/>
	<path class="st8" d="M500.4,322.7c40.4-40.4,94.1-62.7,151.3-62.7"/>
	<path class="st8" d="M443.6,423.7c4.5-19,11.7-37.2,21.2-54.2"/>
	<radialGradient id="SVGID_5_" cx="652.2" cy="496.5" r="104.5" gradientUnits="userSpaceOnUse">
		<stop  offset="0" style="stop-color:#1CE273"/>
		<stop  offset="0.1633" style="stop-color:#1FE272"/>
		<stop  offset="0.2995" style="stop-color:#2AE36E"/>
		<stop  offset="0.426" style="stop-color:#3BE468"/>
		<stop  offset="0.5466" style="stop-color:#53E55F"/>
		<stop  offset="0.663" style="stop-color:#73E753"/>
		<stop  offset="0.7764" style="stop-color:#9AE945"/>
		<stop  offset="0.8854" style="stop-color:#C7EB34"/>
		<stop  offset="0.9917" style="stop-color:#FBEE22"/>
		<stop  offset="0.9944" style="stop-color:#FCEE21"/>
	</radialGradient>
	<circle class="st9" cx="652.2" cy="496.5" r="104.5"/>
</g>
<g class="st10">
	<path class="st11" d="M198.7,1181.9c-10,8.1-22.3,11.6-34.7,11.6c-29.7,0-50.7-16.5-50.7-49.3c0-27.8,22.2-49.5,52-49.5
		c11.2,0,23.4,3.7,32.2,12.1c8.6,8.3-3.8,20.5-12.3,13.2c-5.2-5-12.6-8.7-19.9-8.7c-17.1,0-33.6,13.4-33.6,32.8
		c0,20.4,13.8,32.8,32.3,32.8c8.6,0,16-2.5,21.2-6.2v-16.9H164c-12.6,0-11.3-16.8,0-16.8h28.2c5.2,0,10,3.9,10,8.1v29.3
		C202.2,1176.9,201.1,1179.2,198.7,1181.9z"/>
	<path class="st11" d="M241.5,1183.5c0,12-18.8,12.4-18.8,0.3v-78.3c0-4.8,3.8-8.4,8.5-8.4h37.6c35.9,0,43.2,46.8,13.3,58.6
		l18.8,22.3c7.3,10.6-7.3,20.8-15.8,10.3l-21.3-29.8h-22.2V1183.5z M241.5,1142.7h27.3c18.4,0,19.5-28.9,0-28.9h-27.3V1142.7z"/>
	<path class="st11" d="M326.8,1192.5c-4.9,0-8.8-3.7-8.8-8.5v-78.3c0-5,3.8-8.5,8.8-8.5h50.7c13,0,12.7,17.9,0,17.9h-40.7v20.7h35.6
		c12.6,0,12.6,18.1,0,18.1h-35.6v20.7h43.1c12.9,0,13.8,18,0,18H326.8z"/>
	<path class="st11" d="M413.7,1192.5c-4.9,0-8.8-3.7-8.8-8.5v-78.3c0-5,3.8-8.5,8.8-8.5h50.7c13,0,12.7,17.9,0,17.9h-40.7v20.7h35.6
		c12.6,0,12.6,18.1,0,18.1h-35.6v20.7h43.1c12.9,0,13.8,18,0,18H413.7z"/>
	<path class="st11" d="M492,1106.8c0-5,1.1-9.8,8.5-9.8c5.1,0,6.2,1.2,10,4.8l46.7,57v-53.5c0-4.5,4.1-9.5,8.9-9.5
		c5.1,0,10,5,10,9.5v77.6c0,6.1-3.8,8.4-7.5,9.5c-4.9,0-7.3-1.1-11.4-4.8l-46.7-57.9v53.2c0,6.1-3.8,9.5-8.9,9.5s-9.6-3.4-9.6-9.5
		V1106.8z"/>
	<path class="st11" d="M645.7,1192.5c-4.9,0-8.8-3.7-8.8-8.5v-78.3c0-5,3.8-8.5,8.8-8.5h50.7c13,0,12.7,17.9,0,17.9h-40.7v20.7h35.6
		c12.6,0,12.6,18.1,0,18.1h-35.6v20.7h43.1c12.9,0,13.8,18,0,18H645.7z"/>
	<path class="st11" d="M724.1,1106.8c0-5,1.1-9.8,8.5-9.8c5.1,0,6.2,1.2,10,4.8l46.7,57v-53.5c0-4.5,4.1-9.5,8.9-9.5
		c5.1,0,10,5,10,9.5v77.6c0,6.1-3.8,8.4-7.5,9.5c-4.9,0-7.3-1.1-11.4-4.8l-46.7-57.9v53.2c0,6.1-3.8,9.5-8.9,9.5s-9.6-3.4-9.6-9.5
		V1106.8z"/>
	<path class="st11" d="M836.5,1192.5c-4.9,0-8.8-3.7-8.8-8.5v-78.3c0-5,3.8-8.5,8.8-8.5h50.7c13,0,12.7,17.9,0,17.9h-40.7v20.7h35.6
		c12.6,0,12.6,18.1,0,18.1h-35.6v20.7h43.1c12.9,0,13.8,18,0,18H836.5z"/>
	<path class="st11" d="M933.5,1183.5c0,12-18.8,12.4-18.8,0.3v-78.3c0-4.8,3.8-8.4,8.5-8.4h37.6c35.9,0,43.2,46.8,13.3,58.6
		l18.8,22.3c7.3,10.6-7.3,20.8-15.8,10.3l-21.3-29.8h-22.2V1183.5z M933.5,1142.7h27.3c18.4,0,19.5-28.9,0-28.9h-27.3V1142.7z"/>
	<path class="st11" d="M1093.5,1181.9c-10,8.1-22.3,11.6-34.7,11.6c-29.7,0-50.7-16.5-50.7-49.3c0-27.8,22.2-49.5,52-49.5
		c11.2,0,23.4,3.7,32.2,12.1c8.6,8.3-3.8,20.5-12.3,13.2c-5.2-5-12.6-8.7-19.9-8.7c-17.1,0-33.6,13.4-33.6,32.8
		c0,20.4,13.8,32.8,32.3,32.8c8.6,0,16-2.5,21.2-6.2v-16.9h-21.2c-12.6,0-11.3-16.8,0-16.8h28.2c5.2,0,10,3.9,10,8.1v29.3
		C1097.1,1176.9,1095.9,1179.2,1093.5,1181.9z"/>
	<path class="st11" d="M1111.6,1110.1c-7.6-9.2,8.3-19.8,15.8-9.8l26,37.8l26.4-37.8c7.5-10.1,22.9,0,15.5,9.2l-33,45.9v28.4
		c1.3,12-18.6,12-18.6,0v-28.4L1111.6,1110.1z"/>
</g>
</svg>
