<?xml version="1.0" encoding="utf-8"?>
<!-- Generator: Adobe Illustrator 23.0.6, SVG Export Plug-In . SVG Version: 6.00 Build 0)  -->
<svg version="1.1" id="Layer_1" xmlns="http://www.w3.org/2000/svg" xmlns:xlink="http://www.w3.org/1999/xlink" x="0px" y="0px"
	 viewBox="0 0 1200.3 1295.5" style="enable-background:new 0 0 1200.3 1295.5;" xml:space="preserve">
<style type="text/css">
	.st0{fill:#F47A47;}
	.st1{fill:url(#SVGID_1_);}
	.st2{fill:url(#SVGID_2_);}
	.st3{fill:none;stroke:#FFFFFF;stroke-width:24;stroke-miterlimit:10;}
	.st4{fill:url(#SVGID_3_);}
	.st5{fill:#B3B3B3;}
	.st6{fill:none;stroke:#000000;stroke-width:12;stroke-miterlimit:10;}
	.st7{enable-background:new    ;}
	.st8{fill:#FFFFFF;}
	.st9{opacity:0.2;fill:#FFFFFF;enable-background:new    ;}
</style>
<g>
	<circle class="st0" cx="600.2" cy="540" r="527.6"/>
	
		<linearGradient id="SVGID_1_" gradientUnits="userSpaceOnUse" x1="640.6382" y1="417.0691" x2="726.3297" y2="417.0691" gradientTransform="matrix(1 0 0 1 0 218)">
		<stop  offset="0" style="stop-color:#29ABE2"/>
		<stop  offset="0.3076" style="stop-color:#1E9ECF"/>
		<stop  offset="0.9306" style="stop-color:#037C9D"/>
		<stop  offset="1" style="stop-color:#007897"/>
	</linearGradient>
	<path class="st1" d="M656.5,659c-18.6-18.6-21.2-46-5.9-61.3s42.8-12.7,61.3,5.9c18.6,18.6,13.9,78.8,13.9,78.8
		S675,677.5,656.5,659z"/>
	
		<linearGradient id="SVGID_2_" gradientUnits="userSpaceOnUse" x1="653.3511" y1="484.1008" x2="702.4999" y2="484.1008" gradientTransform="matrix(1 0 0 1 0 218)">
		<stop  offset="0" style="stop-color:#29ABE2"/>
		<stop  offset="0.3076" style="stop-color:#1E9ECF"/>
		<stop  offset="0.9306" style="stop-color:#037C9D"/>
		<stop  offset="1" style="stop-color:#007897"/>
	</linearGradient>
	<path class="st2" d="M671.1,715.7c-9.1,0.8-17-4.6-17.7-12.1s6.2-14.3,15.3-15.1s33.8,4.9,33.8,4.9S680.2,714.9,671.1,715.7z"/>
	<path class="st3" d="M1015.9,477.4"/>
	
		<linearGradient id="SVGID_3_" gradientUnits="userSpaceOnUse" x1="709.2885" y1="874.9389" x2="597.2192" y2="374.3626" gradientTransform="matrix(1 0 0 1 0 218)">
		<stop  offset="0" style="stop-color:#007897"/>
		<stop  offset="6.941855e-02" style="stop-color:#037C9D"/>
		<stop  offset="0.6924" style="stop-color:#1E9ECF"/>
		<stop  offset="1" style="stop-color:#29ABE2"/>
	</linearGradient>
	<path class="st4" d="M1102.7,609.8c-6.1,43.6-17.8,86-35,126.8c-25.6,60.4-62.1,114.7-108.8,161.3
		c-46.6,46.6-100.9,83.2-161.3,108.8c-62.5,26.5-129,39.9-197.5,39.9s-135-13.4-197.5-39.9c-60.4-25.6-114.7-62.1-161.3-108.8
		c-46.6-46.6-83.2-100.9-108.8-161.3c-3.8-9.1-7.4-18.2-10.7-27.4C293,800.9,421.7,806,511.9,790.3c91.9-16.1,147.4-54.4,240.8-94.3
		V539.3h59.1v133.5c20-7.2,41.7-14.2,65.6-21.1C959.1,628.1,1035.4,615.8,1102.7,609.8z"/>
	<g>
		<path class="st5" d="M1007,298.9v9.5c0,4.8-3.9,8.8-8.8,8.8h-42.3v27h-37.2v-27h-44.5c-4.8,0-8.8-3.9-8.8-8.8v-9.5
			c0-4.8,3.9-8.8,8.8-8.8h124C1003,290.1,1007,294.1,1007,298.9z"/>
		<path class="st5" d="M1021.2,363.3v52.6c0,13.1-10.6,23.7-23.7,23.7H835.9v56.9h9.5c4.8,0,8.8,3.9,8.8,8.8v25.5
			c0,4.8-3.9,8.8-8.8,8.8H717.7c-4.8,0-8.8-3.9-8.8-8.8v-25.5c0-4.8,3.9-8.8,8.8-8.8h9.5v-79.3c0-38.3,29.2-69.8,66.5-73.5h207.9
			c1.8,0,3.5,0.3,5.1,0.7C1015.1,346.7,1021.2,354.3,1021.2,363.3z"/>
	</g>
	<path class="st5" d="M1097.5,438.6h-58c-4.8,0-8.8-3.9-8.8-8.8v-77.3c0-4.8,3.9-8.8,8.8-8.8h28.8
		C1081.2,374.5,1090.9,406.2,1097.5,438.6z"/>
	<path class="st6" d="M603,1046.5c-68.5,0-135-13.4-197.5-39.9c-60.4-25.6-114.7-62.1-161.3-108.8
		c-46.6-46.6-83.2-100.9-108.8-161.3C108.9,674,95.5,607.5,95.5,539s13.4-135,39.9-197.5c25.6-60.4,62.1-114.7,108.8-161.3
		C290.8,133.6,345.1,97,405.5,71.4C468,44.9,534.5,31.5,603,31.5s135,13.4,197.5,39.9c60.4,25.6,114.7,62.1,161.3,108.8
		c46.6,46.6,83.2,100.9,108.8,161.3c26.5,62.5,39.9,129,39.9,197.5s-13.4,135-39.9,197.5c-25.6,60.4-62.1,114.7-108.8,161.3
		c-46.6,46.6-100.9,83.2-161.3,108.8C738,1033.1,671.5,1046.5,603,1046.5z"/>
</g>
<g class="st7">
	<path class="st8" d="M291.3,1155.3l21-55.7c4.2-10.9,21.3-5.8,17.1,5.9l-28,72.5c-2.5,7.7-4.9,10-9.7,10c-5.1,0-6.6-3-9.5-7.8
		l-24.6-53.4l-23.4,52.5c-2.5,5.7-4.9,8.9-10,8.9c-4.9,0-7.5-3.2-9.7-9.2l-27.4-73.6c-4.2-12.2,13.7-16.6,17.4-5.9l20.9,55.7
		l25-55.7c3.4-8.2,12.3-8.6,16-0.4L291.3,1155.3z"/>
	<path class="st8" d="M336.5,1187.5c-4.5-2.4-7.3-7.3-4.5-13l40.5-75.8c3.8-7.2,14-7.4,17.5,0l39.8,75.8
		c5.8,10.5-11.3,18.9-16.4,8.4l-6.2-11.9h-52.1l-6.1,11.9C346.9,1187.5,341.6,1188.5,336.5,1187.5z M397.3,1153.2l-16-33.4
		l-17.4,33.4H397.3z"/>
	<path class="st8" d="M458.3,1110.9h-24.7c-12.3,0-12.3-17.3,0-17.3h66.8c12.6,0,12.6,17.3,0,17.3h-23.4v68.2c0,11.8-18.6,12-18.6,0
		V1110.9z"/>
	<path class="st8" d="M531.9,1187.5c-4.9,0-8.8-3.6-8.8-8.4v-76.7c0-4.9,3.8-8.4,8.8-8.4h50.7c13,0,12.7,17.6,0,17.6h-40.7v20.3
		h35.6c12.6,0,12.6,17.7,0,17.7h-35.6v20.3H585c12.9,0,13.8,17.7,0,17.7H531.9z"/>
	<path class="st8" d="M628.9,1178.8c0,11.8-18.8,12.2-18.8,0.3v-76.7c0-4.7,3.8-8.2,8.5-8.2h37.6c35.9,0,43.2,45.9,13.3,57.4
		l18.8,21.9c7.3,10.4-7.3,20.4-15.8,10.1l-21.3-29.2h-22.2V1178.8z M628.9,1138.8h27.3c18.4,0,19.5-28.4,0-28.4h-27.3V1138.8z"/>
	<path class="st8" d="M813.4,1103c0-12,18.5-13,18.5,0v48.9c0,50.5-85.2,50.5-85.2,0V1103c0-12.2,18.5-12.7,18.5,0v48.9
		c0,26.6,48.2,28.2,48.2,0V1103z"/>
	<path class="st8" d="M849.8,1114.3c3.2-26.2,44.6-30.9,64.1-16.6c9.6,7.4-0.6,19.2-9,13.2c-10.5-6.3-34.2-9.3-37.1,4.7
		c-3.8,22.2,57.6,9.5,56.6,45.4c-1,34.3-53,35.1-72.5,19.7c-4.7-3.6-4.5-9.6-2-13.2c3.7-3.5,7.8-4.7,12.6-0.9
		c11.6,7.6,41.4,13.2,43.5-5.9C904.2,1140.7,845.4,1152.7,849.8,1114.3z"/>
	<path class="st8" d="M949.2,1187.5c-4.9,0-8.8-3.6-8.8-8.4v-76.7c0-4.9,3.8-8.4,8.8-8.4h50.7c13,0,12.7,17.6,0,17.6h-40.7v20.3
		h35.6c12.6,0,12.6,17.7,0,17.7h-35.6v20.3h43.1c12.9,0,13.8,17.7,0,17.7H949.2z"/>
</g>
<path class="st9" d="M1022.7,361.4c-1.6-0.4-3.3-0.7-5.1-0.7H809.7c-37.3,3.7-66.5,35.2-66.5,73.5v79.3h-9.5c-4.9,0-8.8,4-8.8,8.8
	V541h-5.4c-4.8,0-8.8-3.9-8.8-8.8v-25.5c0-4.8,3.9-8.8,8.8-8.8h9.5v-79.3c0-38.3,29.2-69.8,66.5-73.5h207.9
	C1013.2,345.2,1021.2,352.2,1022.7,361.4z"/>
</svg>
