<?xml version="1.0" encoding="utf-8"?>
<!-- Generator: Adobe Illustrator 24.1.0, SVG Export Plug-In . SVG Version: 6.00 Build 0)  -->
<svg version="1.1" id="Layer_1" xmlns="http://www.w3.org/2000/svg" xmlns:xlink="http://www.w3.org/1999/xlink" x="0px" y="0px"
	 viewBox="0 0 1047.6 1045" style="enable-background:new 0 0 1047.6 1045;" xml:space="preserve">
<style type="text/css">
	.st0{fill:#39B54A;}
	.st1{fill:#FFFFFF;}
	.st2{fill:none;stroke:#000000;stroke-width:13;stroke-miterlimit:10;}
</style>
<g id="Layer_3">
</g>
<g>
	<path class="st0" d="M1045.6,522.3c0,145.2-59.5,276.8-155.4,371.6c-17.8,17.6-36.9,33.9-57,48.8C746.3,1007,638.9,1045,522.9,1045
		C234.6,1045,0.1,810.5,0.1,522.3S234.6-0.5,522.9-0.5C811.1-0.5,1045.6,234,1045.6,522.3z"/>
	<g>
		<rect x="333.9" y="437.2" class="st1" width="103.6" height="289.5"/>
		<rect x="476.8" y="287.1" class="st1" width="107.2" height="439.5"/>
		<rect x="619.7" y="394.3" class="st1" width="103.6" height="332.3"/>
		<g>
			<path class="st1" d="M890.2,893.9c-17.8,17.6-36.9,33.9-57,48.8L696.7,794.9l-10.4-11.3l55.1-50.9l13.6,14.7L890.2,893.9z"/>
			<path class="st1" d="M844.5,511.4C836.6,342.8,696.6,208.5,525,208.5c-171.8,0-312,134.8-319.5,303.8c-0.2,4.8-0.4,9.5-0.4,14.3
				c0,76.7,27.3,147,72.8,201.9c58.6,70.9,147.6,116.1,247.1,116.1c63.2,0,122.1-18.2,171.7-49.7c21.3-13.5,40.8-29.4,58.3-47.4
				c6.2-6.4,12.1-13,17.7-19.9c45.1-54.8,72.1-124.8,72.1-201.1C844.9,521.5,844.8,516.4,844.5,511.4z M770.8,668
				C721.6,752.2,629.9,808.9,525,808.9c-101.7,0-191-53.4-241.2-133.4c-27.2-43.3-42.9-94.3-42.9-148.9c0-4.8,0.1-9.5,0.4-14.3
				c7.5-149.1,131.9-268,283.7-268c151.6,0,275.7,118.5,283.7,267.2c0.2,5,0.4,10.1,0.4,15.2C809.1,578.1,795.2,626.4,770.8,668z"/>
		</g>
		<path class="st1" d="M298.1,512.3v163.2c-27.2-43.3-42.9-94.3-42.9-148.9c0-4.8,0.1-9.5,0.4-14.3H298.1z"/>
		<path class="st1" d="M791.3,526.5c0,51.5-14,99.8-38.3,141.5V511.4h38C791.1,516.4,791.3,521.5,791.3,526.5z"/>
	</g>
</g>
<path class="st2" d="M522.5,1025c-67.8,0-133.7-13.3-195.6-39.5c-59.8-25.3-113.6-61.5-159.7-107.7C121,831.6,84.8,777.9,59.5,718.1
	C33.3,656.2,20,590.4,20,522.5s13.3-133.7,39.5-195.6c25.3-59.8,61.5-113.6,107.7-159.7c46.2-46.2,99.9-82.4,159.7-107.7
	C388.8,33.3,454.7,20,522.5,20s133.7,13.3,195.6,39.5c59.8,25.3,113.6,61.5,159.7,107.7c46.2,46.2,82.4,99.9,107.7,159.7
	c26.2,61.9,39.5,127.7,39.5,195.6s-13.3,133.7-39.5,195.6c-25.3,59.8-61.5,113.6-107.7,159.7s-99.9,82.4-159.7,107.7
	C656.2,1011.7,590.3,1025,522.5,1025z"/>
</svg>
