<?xml version="1.0" encoding="utf-8"?>
<!-- Generator: Adobe Illustrator 24.1.0, SVG Export Plug-In . SVG Version: 6.00 Build 0)  -->
<svg version="1.1" id="Layer_1" xmlns="http://www.w3.org/2000/svg" xmlns:xlink="http://www.w3.org/1999/xlink" x="0px" y="0px"
	 viewBox="0 0 1045 1045" style="enable-background:new 0 0 1045 1045;" xml:space="preserve">
<style type="text/css">
	.st0{fill:url(#SVGID_1_);}
	.st1{fill:none;stroke:#000000;stroke-width:13;stroke-miterlimit:10;}
	.st2{fill:url(#SVGID_2_);}
	.st3{fill:url(#SVGID_3_);}
	.st4{fill:url(#SVGID_4_);}
	.st5{fill:url(#SVGID_5_);}
	.st6{fill:#00A1EC;}
	.st7{fill:#00B4FF;}
	.st8{fill:#4AB349;}
	.st9{fill:#72C059;}
	.st10{fill:#B6FFFF;}
	.st11{fill:#A4E8E5;}
	.st12{opacity:0.55;fill:#FFFFFF;enable-background:new    ;}
	.st13{opacity:0.75;fill:url(#SVGID_6_);enable-background:new    ;}
	.st14{fill:#FFFFFF;}
	.st15{fill:#F04E5C;}
</style>
<g id="Layer_1_1_">
</g>
<g id="Layer_2_1_">

		<radialGradient id="SVGID_1_" cx="522.5" cy="522.5" r="522.5" gradientTransform="matrix(1 0 0 -1 0 1045)" gradientUnits="userSpaceOnUse">
		<stop  offset="0" style="stop-color:#9E76B4;stop-opacity:0.9"/>
		<stop  offset="0.4415" style="stop-color:#5B5D8C;stop-opacity:0.9442"/>
		<stop  offset="1" style="stop-color:#003C56"/>
		<stop  offset="1" style="stop-color:#003951"/>
		<stop  offset="1" style="stop-color:#002F44"/>
		<stop  offset="1" style="stop-color:#001F2D"/>
		<stop  offset="1" style="stop-color:#00090E"/>
		<stop  offset="1" style="stop-color:#000000"/>
	</radialGradient>
	<circle class="st0" cx="522.5" cy="522.5" r="522.5"/>
	<path class="st1" d="M522.5,1025c-67.8,0-133.7-13.3-195.6-39.5c-59.8-25.3-113.6-61.5-159.7-107.7
		C121,831.6,84.8,777.9,59.5,718.1C33.3,656.2,20,590.4,20,522.5s13.3-133.7,39.5-195.6c25.3-59.8,61.5-113.6,107.7-159.7
		c46.2-46.2,99.9-82.4,159.7-107.7C388.8,33.3,454.7,20,522.5,20s133.7,13.3,195.6,39.5c59.8,25.3,113.6,61.5,159.7,107.7
		c46.2,46.2,82.4,99.9,107.7,159.7c26.2,61.9,39.5,127.7,39.5,195.6s-13.3,133.7-39.5,195.6c-25.3,59.8-61.5,113.6-107.7,159.7
		s-99.9,82.4-159.7,107.7C656.2,1011.7,590.3,1025,522.5,1025z"/>
</g>
<g id="Layer_4">

		<linearGradient id="SVGID_2_" gradientUnits="userSpaceOnUse" x1="190.2437" y1="881.3958" x2="265.7563" y2="750.6042" gradientTransform="matrix(1 0 0 -1 0 1045)">
		<stop  offset="0" style="stop-color:#CDD5D5;stop-opacity:0.4"/>
		<stop  offset="0.1914" style="stop-color:#C9D1D0;stop-opacity:0.5148"/>
		<stop  offset="0.4081" style="stop-color:#BEC4C2;stop-opacity:0.6449"/>
		<stop  offset="0.6372" style="stop-color:#ACB0AC;stop-opacity:0.7823"/>
		<stop  offset="0.8734" style="stop-color:#92938C;stop-opacity:0.9241"/>
		<stop  offset="1" style="stop-color:#828178"/>
	</linearGradient>
	<circle class="st2" cx="228" cy="229" r="75.5"/>

		<linearGradient id="SVGID_3_" gradientUnits="userSpaceOnUse" x1="197.745" y1="868.4033" x2="258.255" y2="763.5967" gradientTransform="matrix(1 0 0 -1 0 1045)">
		<stop  offset="0" style="stop-color:#CDD5D5;stop-opacity:0.4"/>
		<stop  offset="0.1914" style="stop-color:#C9D1D0;stop-opacity:0.5148"/>
		<stop  offset="0.4081" style="stop-color:#BEC4C2;stop-opacity:0.6449"/>
		<stop  offset="0.6372" style="stop-color:#ACB0AC;stop-opacity:0.7823"/>
		<stop  offset="0.8734" style="stop-color:#92938C;stop-opacity:0.9241"/>
		<stop  offset="1" style="stop-color:#828178"/>
	</linearGradient>
	<circle class="st3" cx="228" cy="229" r="60.5"/>

		<linearGradient id="SVGID_4_" gradientUnits="userSpaceOnUse" x1="205.2463" y1="855.4108" x2="250.7537" y2="776.5892" gradientTransform="matrix(1 0 0 -1 0 1045)">
		<stop  offset="0" style="stop-color:#CDD5D5"/>
		<stop  offset="0.1914" style="stop-color:#C9D1D0"/>
		<stop  offset="0.4081" style="stop-color:#BEC4C2"/>
		<stop  offset="0.6372" style="stop-color:#ACB0AC"/>
		<stop  offset="0.8734" style="stop-color:#92938C"/>
		<stop  offset="1" style="stop-color:#828178"/>
	</linearGradient>
	<circle class="st4" cx="228" cy="229" r="45.5"/>
</g>
<g id="Layer_3">
	<g>

			<radialGradient id="SVGID_5_" cx="522.4999" cy="522.6" r="352.5999" gradientTransform="matrix(1 0 0 -1 0 1045)" gradientUnits="userSpaceOnUse">
			<stop  offset="0" style="stop-color:#00ADDC"/>
			<stop  offset="0.1884" style="stop-color:#00A8D8"/>
			<stop  offset="0.4018" style="stop-color:#009ACA"/>
			<stop  offset="0.6274" style="stop-color:#0084B3"/>
			<stop  offset="0.8599" style="stop-color:#006594"/>
			<stop  offset="1" style="stop-color:#004E7D"/>
		</radialGradient>
		<path class="st5" d="M522.5,875c-47.6,0-93.8-9.3-137.2-27.7c-42-17.8-79.7-43.2-112.1-75.6c-32.4-32.4-57.8-70.1-75.6-112.1
			c-18.4-43.4-27.7-89.6-27.7-137.2s9.3-93.8,27.7-137.2c17.8-42,43.2-79.7,75.6-112.1c32.4-32.4,70.1-57.8,112.1-75.6
			c43.4-18.4,89.6-27.7,137.2-27.7s93.8,9.3,137.2,27.7c42,17.8,79.7,43.2,112.1,75.6s57.8,70.1,75.6,112.1
			c18.4,43.4,27.7,89.6,27.7,137.2s-9.3,93.8-27.7,137.2c-17.8,42-43.2,79.7-75.6,112.1c-32.4,32.4-70.1,57.8-112.1,75.6
			C616.3,865.7,570.1,875,522.5,875z"/>
		<path class="st6" d="M760.2,776c2.2,0,4.4,0.2,6.5,0.7c0.2-0.2,0.5-0.4,0.7-0.7H760.2z M184.5,422c-0.2,0.5-0.3,1-0.5,1.5h32.2
			c0.2-0.5,0.3-1,0.5-1.5H184.5z M211,357.2c-0.5,1-1.1,2-1.6,3.1h35.2c0.6-1,1.2-2.1,1.8-3.1H211z M847.3,385.3
			c-5.4-12.9-11.6-25.3-18.4-37.3c-15.5-27.2-34.6-52.3-57.1-74.7c-32.4-32.4-70.1-57.8-112.1-75.6c-5.5-2.3-11.1-4.5-16.7-6.6
			c-0.5,8.4-4.1,15.9-9.7,21.5c-2,2-4.4,3.8-6.9,5.3c-4.9,2.8-10.5,4.4-16.5,4.4h28.6c3,1.2,6.1,2.4,9.1,3.7
			c10.8,4.6,21.4,9.7,31.5,15.4c2,4.3,3.2,9,3.2,14c0,9.1-3.7,17.4-9.7,23.4s-14.3,9.7-23.4,9.7H526c-18.2,0-33.1-14.9-33.1-33.1
			c0-9.1,3.7-17.4,9.7-23.4s14.3-9.7,23.4-9.7h-91.7c-5.9,0-11.4-1.6-16.2-4.3c-9.5-5.4-16.1-15.3-16.8-26.7
			c-5.3,2-10.7,4.1-15.9,6.3c-42,17.8-79.7,43.2-112.1,75.6c-6.7,6.7-13.1,13.6-19.2,20.8h78.6c18.2,0,33.1,14.9,33.1,33.1
			c0,9.1-3.7,17.4-9.7,23.4c-2.7,2.7-5.9,5-9.5,6.6H325c-5,0-9.7,1.1-13.9,3.1h-1.6c0.2,0.1,0.5,0.2,0.7,0.4
			c-3.3,1.6-6.2,3.8-8.8,6.3c-6,6-9.7,14.3-9.7,23.4c0,13,7.6,24.3,18.5,29.7c-1.5,0.7-3.1,1.4-4.7,1.9h9.4c3.2,1,6.5,1.5,10,1.5
			h56.2c13.4,4.3,23.2,16.8,23.2,31.6c0,9.1-3.7,17.4-9.7,23.4s-14.3,9.7-23.4,9.7H172.3c-0.2,0-0.5,0-0.7,0
			c-1.1,11.3-1.6,22.8-1.6,34.3c0,25.9,2.8,51.3,8.2,76.1c1.3-0.2,2.7-0.3,4.1-0.3h48c-12.3-4.9-21-16.9-21-30.8
			c0-9.1,3.7-17.4,9.7-23.4s14.3-9.7,23.4-9.7h198.8c18.2,0,33.1,14.9,33.1,33.1c0,9.1-3.7,17.4-9.7,23.4s-14.3,9.7-23.4,9.7h-48
			c12.3,4.9,21,16.9,21,30.8c0,9.1-3.7,17.4-9.7,23.4s-14.3,9.7-23.4,9.7H199.8c17.6,40,42.3,76,73.4,107.1
			c31.3,31.3,67.5,56.1,107.8,73.7c1.3-2,2.8-3.8,4.4-5.4c6-6,14.3-9.7,23.4-9.7h123.3c10.2,0,19.4,4.7,25.5,12
			c4.8,5.7,7.7,13.1,7.7,21.1c0,3.2-0.5,6.2-1.3,9.2c33-3.8,65-12.3,95.7-25.3c4.6-1.9,9-3.9,13.5-6.1c-12.6-1.5-23-10.1-27.1-21.7
			c-1.2-3.4-1.9-7.1-1.9-10.9c0-9,3.7-17.2,9.6-23.1s14.1-9.6,23.1-9.6h-3.1c-2.8,0-5.5-0.4-8.1-1c5.8-1.5,10.9-4.5,15-8.6
			c5.9-5.9,9.6-14.1,9.6-23.1c0-15.2-10.5-28.1-24.7-31.7c2.6-0.7,5.3-1,8.1-1h-26.2c-18,0-32.7-14.7-32.7-32.7
			c0-9,3.7-17.2,9.6-23.1s14.1-9.6,23.1-9.6H834c6.3,0,12.1,1.8,17.1,4.9c6.2-15.9,11.2-32.2,14.9-48.8h-36.5c-3.9,0-7.7-0.7-11.2-2
			c4.5-1.7,8.6-4.3,12-7.6c5.9-5.9,9.6-14.1,9.6-23.1c0-14.1-9-26.2-21.6-30.8c3.5-1.3,7.3-2,11.2-2h45.2c0-0.3,0-0.5,0-0.8
			c0.1-4.1,0.2-8.2,0.2-12.3C875,474.9,865.7,428.7,847.3,385.3z M843.9,534.8H628.4c-18,0-32.7-14.7-32.7-32.7
			c0-8.8,3.5-16.8,9.2-22.7c0.1-0.1,0.3-0.3,0.4-0.4c5.9-5.9,14.1-9.6,23.1-9.6h111.4c5.7-5.9,9.2-13.9,9.2-22.7
			c0-18-14.7-32.7-32.7-32.7h-2.7v-0.5h-57.8c-18,0-32.7-14.7-32.7-32.7c0-9,3.7-17.2,9.6-23.1s14.1-9.6,23.1-9.6h137
			c10.1,15.6,18.8,32.1,26.1,49.3c16.8,39.6,25.2,81.7,25.2,125.2C844.2,526.6,844.1,530.7,843.9,534.8z"/>
		<path class="st7" d="M638.6,222.4H610c6,0,11.6-1.6,16.5-4.4C630.5,219.3,634.6,220.8,638.6,222.4z"/>
		<path class="st7" d="M829.5,535.6c-3.9,0-7.7,0.7-11.2,2c12.6,4.6,21.6,16.7,21.6,30.8c0,9-3.7,17.2-9.6,23.1
			c-3.4,3.4-7.4,6-12,7.6c3.5,1.3,7.3,2,11.2,2h5c-3.8,14.9-8.6,29.6-14.5,43.9H647.6c-9,0-17.2,3.7-23.1,9.6s-9.6,14.1-9.6,23.1
			c0,18,14.7,32.7,32.7,32.7h26.2c-2.8,0-5.5,0.4-8.1,1c14.1,3.6,24.7,16.5,24.7,31.7c0,9-3.7,17.2-9.6,23.1
			c-4.1,4.1-9.3,7.1-15,8.6c2.6,0.7,5.3,1,8.1,1h3.1c-9,0-17.2,3.7-23.1,9.6s-9.6,14.1-9.6,23.1c0,3.8,0.7,7.5,1.9,10.9
			c-28.4,11.8-58,19.4-88.5,22.7c-6.1-7.3-15.3-12-25.5-12H428.7c-10.6-3.2-21.1-7-31.4-11.4c-38.3-16.2-72.7-39.4-102.3-69
			c-25.1-25.1-45.7-53.8-61.2-85.3h147.3c9.1,0,17.4-3.7,23.4-9.7s9.7-14.3,9.7-23.4c0-14-8.7-26-21-30.8h48
			c9.1,0,17.4-3.7,23.4-9.7s9.7-14.3,9.7-23.4c0-18.2-14.9-33.1-33.1-33.1H242.4c-9.1,0-17.4,3.7-23.4,9.7s-9.7,14.3-9.7,23.4
			c0,14,8.7,26,21,30.8h-20.5c-6-24.7-9-50-9-75.9c0-11.5,0.6-23,1.8-34.3h168.5c9.1,0,17.4-3.7,23.4-9.7s9.7-14.3,9.7-23.4
			c0-14.8-9.8-27.3-23.2-31.6h-56.2c-3.5,0-6.8-0.5-10-1.5h-9.4c1.6-0.5,3.2-1.1,4.7-1.9c-10.9-5.4-18.5-16.7-18.5-29.7
			c0-9.1,3.7-17.4,9.7-23.4c2.5-2.5,5.5-4.7,8.8-6.3c-0.2-0.1-0.5-0.2-0.7-0.4h1.5c4.2-2,9-3.1,13.9-3.1h21.7
			c3.5-1.7,6.8-3.9,9.5-6.6c6-6,9.7-14.3,9.7-23.4c0-18.2-14.9-33.1-33.1-33.1h-36.5c29.3-29.1,63.4-52,101.3-68
			c6.8-2.9,13.8-5.5,20.8-7.9c4.8,2.7,10.3,4.3,16.2,4.3h91.7c-9.1,0-17.4,3.7-23.4,9.7s-9.7,14.3-9.7,23.4
			c0,18.2,14.9,33.1,33.1,33.1h123.3c9.1,0,17.4-3.7,23.4-9.7s9.7-14.3,9.7-23.4c0-5-1.1-9.8-3.2-14c25.8,14.4,49.5,32.4,70.7,53.6
			c16.2,16.2,30.6,33.9,42.8,52.9h-137c-9,0-17.2,3.7-23.1,9.6s-9.6,14.1-9.6,23.1c0,18,14.7,32.7,32.7,32.7h57.8v0.4h2.7
			c18,0,32.7,14.7,32.7,32.7c0,8.8-3.5,16.8-9.2,22.7H628.4c-9,0-17.2,3.7-23.1,9.6c-0.1,0.1-0.3,0.3-0.4,0.4
			c-5.7,5.9-9.2,13.9-9.2,22.7c0,18,14.7,32.7,32.7,32.7h215.5c0,0.3,0,0.5,0,0.8h-14.4V535.6z"/>
		<path class="st8" d="M874.8,535.6c-0.8,22.2-3.7,44.1-8.5,65.5h-31.8c5.4-21.3,8.5-43.2,9.4-65.5H874.8z"/>
		<path class="st9" d="M843.9,534.8c-0.9,22.3-4,44.2-9.4,65.5h-5c-3.9,0-7.7-0.7-11.2-2c4.5-1.7,8.6-4.3,12-7.6
			c5.9-5.9,9.6-14.1,9.6-23.1c0-14.1-9-26.2-21.6-30.8c3.5-1.3,7.3-2,11.2-2L843.9,534.8L843.9,534.8z"/>
		<path class="st9" d="M844.2,522.5c0,4.1-0.1,8.2-0.2,12.3H628.5c-18,0-32.7-14.7-32.7-32.7c0-8.8,3.5-16.8,9.2-22.7
			c0.1-0.1,0.3-0.3,0.4-0.4c5.9-5.9,14.1-9.6,23.1-9.6h111.4c5.7-5.9,9.2-13.9,9.2-22.7c0-18-14.7-32.7-32.7-32.7h-2.7v-0.5h-57.8
			c-18,0-32.7-14.7-32.7-32.7c0-9,3.7-17.2,9.6-23.1s14.1-9.6,23.1-9.6h137c10.1,15.6,18.8,32.1,26.1,49.3
			C835.7,436.9,844.2,479,844.2,522.5z"/>
		<path class="st8" d="M875,522.5c0,4.1-0.1,8.2-0.2,12.3H844c0.2-4.1,0.2-8.2,0.2-12.3c0-43.5-8.5-85.6-25.2-125.2
			c-7.3-17.3-16-33.7-26.1-49.3H829c6.9,12,13,24.5,18.4,37.3C865.7,428.7,875,474.9,875,522.5z"/>
		<path class="st8" d="M851.3,649.9c-1.3,3.3-2.6,6.6-4,9.8c-7.5,17.7-16.4,34.7-26.6,50.8h-37.2c14.1-19.5,25.9-40.5,35.3-62.8
			c0.4-0.9,0.8-1.8,1.1-2.7H834C840.4,645,846.3,646.8,851.3,649.9z"/>
		<path class="st9" d="M820.1,645c-0.4,0.9-0.7,1.8-1.1,2.7c-9.4,22.3-21.3,43.3-35.3,62.8c-10.1,14-21.3,27.1-33.6,39.5
			c-9.3,9.3-19.1,18-29.4,26H674c-2.8,0-5.5-0.4-8.1-1c5.8-1.5,10.9-4.5,15-8.6c5.9-5.9,9.6-14.1,9.6-23.1
			c0-15.2-10.5-28.1-24.7-31.7c2.6-0.7,5.3-1,8.1-1h-26.2c-18,0-32.7-14.7-32.7-32.7c0-9,3.7-17.2,9.6-23.1s14.1-9.6,23.1-9.6h172.4
			V645z"/>
		<path class="st8" d="M820.8,710.5c-13.9,22.1-30.3,42.5-49,61.3c-1.4,1.4-2.9,2.8-4.3,4.2h-46.8c10.2-8,20-16.7,29.4-26
			c12.3-12.3,23.6-25.5,33.6-39.5H820.8z"/>
		<path class="st9" d="M720.6,776c-22.3,17.5-46.7,31.8-72.9,42.9c-0.5,0.2-1.1,0.4-1.6,0.7c-1.2-3.4-1.9-7.1-1.9-10.9
			c0-9,3.7-17.2,9.6-23.1s14.1-9.6,23.1-9.6L720.6,776L720.6,776z"/>
		<path class="st8" d="M766.7,776.7c-27.7,26.6-59.1,48.3-93.6,64.6l0,0c-12.6-1.5-23-10.1-27.1-21.7c0.5-0.2,1.1-0.4,1.6-0.7
			c26.2-11.1,50.6-25.5,72.9-42.9h39.6C762.4,776,764.6,776.2,766.7,776.7z"/>
		<path class="st8" d="M294.5,294c-0.3,0.3,0.1,3.7-0.2,4.1c-18.8,18.8-35.9,38.9-49.4,61.4h-35.4c12-22.6,27.1-46,43.7-65.5H294.5z
			"/>
		<path class="st9" d="M404.2,455.1c0,9.1-3.7,17.4-9.7,23.4s-14.3,9.7-23.4,9.7H202.6c2.3-22.1,6.9-43.7,13.7-64.7
			c0.2-0.5,0.3-1,0.5-1.5c2.7-8.3,5.8-16.5,9.2-24.6c5.4-12.8,11.6-25.1,18.5-37c0.6-1,1.2-2.1,1.8-3.1c13.5-22.5,29-44.1,47.8-63
			c0.3-0.3,1.4,0.1,1.8-0.2h36.5c18.2,0,33.1,14.9,33.1,33.1c0,9.1-3.7,17.4-9.7,23.4c-2.7,2.7-5.9,5-9.5,6.6h-21.6
			c-5,0-9.7,1.1-13.9,3.1h-1.3c0.2,0.1,0.5,0.2,0.7,0.4c-3.3,1.6-6.2,3.8-8.8,6.3c-6,6-9.7,14.3-9.7,23.4c0,13,7.6,24.3,18.5,29.7
			c-1.5,0.7-3.1,1.4-4.7,1.9h9.4c3.2,1,6.5,1.5,10,1.5h56.2C394.5,427.7,404.2,440.3,404.2,455.1z"/>
		<path class="st9" d="M346.5,357.2c-4.2,2-9,3.1-13.9,3.1H311c4.2-2,9-3.1,13.9-3.1H346.5z"/>
		<path class="st8" d="M244.6,359.5c-6.9,11.9-13.1,25-18.5,37.8c-3.4,8.1-7.3,17.9-10,26.2h-32.3c3.7-12.4,8.8-26.2,13.9-38.2
			c3.6-8.5,7.5-17.6,11.7-25.8H244.6z"/>
		<path class="st8" d="M216.3,423.5c-6.8,21-11.4,42.6-13.7,64.7h-30.3c-0.2,0-0.5,0-0.7,0c2.1-22,6.3-43.6,12.4-64.7H216.3z"/>
		<path class="st9" d="M381.1,423.5h-56.2c-3.5,0-6.8-0.5-10-1.5h56.2C374.6,422,377.9,422.5,381.1,423.5z"/>
		<path class="st9" d="M233.8,664.7h-34c-0.7-1.6-1.4-3.3-2.1-5c-8.4-19.8-14.9-40.2-19.5-61c1.3-0.2,2.7-0.3,4.1-0.3h27.5
			c4.1,16.8,9.5,33.3,16.3,49.3C228.5,653.4,231.1,659.1,233.8,664.7z"/>
		<path class="st9" d="M474.3,567.6c0,9.1-3.7,17.4-9.7,23.4s-14.3,9.7-23.4,9.7h-48c12.3,4.9,21,16.9,21,30.8
			c0,9.1-3.7,17.4-9.7,23.4s-14.3,9.7-23.4,9.7H233.8c-2.8-5.6-5.3-11.2-7.8-17c-6.8-16-12.2-32.5-16.3-49.3h20.5
			c-12.3-4.9-21-16.9-21-30.8c0-9.1,3.7-17.4,9.7-23.4s14.3-9.7,23.4-9.7h198.8C459.4,534.4,474.3,549.4,474.3,567.6z"/>
		<path class="st9" d="M395.1,751.7h-39.5c-15.2,0-27.6-12.4-27.6-27.6v-11c0-15.2,12.4-27.6,27.6-27.6h39.5
			c15.2,0,27.6,12.4,27.6,27.6v11C422.7,739.3,410.3,751.7,395.1,751.7z"/>
		<path class="st10" d="M682.4,255.5c0,9.1-3.7,17.4-9.7,23.4s-14.3,9.7-23.4,9.7H526c-18.2,0-33.1-14.9-33.1-33.1
			c0-9.1,3.7-17.4,9.7-23.4s14.3-9.7,23.4-9.7h-91.7c-5.9,0-11.4-1.6-16.2-4.3c33.4-11.5,68.4-17.3,104.4-17.3
			c35.8,0,70.6,5.8,103.9,17.1c-4.9,2.8-10.5,4.4-16.5,4.4h28.6c3,1.2,6.1,2.4,9.1,3.7c10.8,4.6,21.4,9.7,31.5,15.4
			C681.2,245.7,682.4,250.5,682.4,255.5z"/>
		<path class="st11" d="M643,191.1c-0.5,8.4-4.1,15.9-9.7,21.5c-2,2-4.4,3.8-6.9,5.3c-33.3-11.4-68.2-17.1-103.9-17.1
			c-36,0-71,5.8-104.4,17.3c-9.5-5.4-16.1-15.3-16.8-26.7C440,177.2,480.7,170,522.6,170C564.1,170,604.5,177.1,643,191.1z"/>
		<path class="st11" d="M679.2,241.5c-10.2-5.7-20.7-10.8-31.5-15.4c-3-1.3-6-2.5-9.1-3.7h10.6C662.5,222.4,673.9,230.2,679.2,241.5
			z"/>
		<path class="st11" d="M565.3,863.4c0,3.2-0.5,6.2-1.3,9.2c-13.7,1.6-27.5,2.4-41.5,2.4c-47.6,0-93.8-9.3-137.2-27.7
			c-1.4-0.6-2.8-1.2-4.3-1.8c1.3-2,2.8-3.8,4.4-5.4c6-6,14.3-9.7,23.4-9.7h19.8c30.2,9.2,61.6,13.9,93.8,13.9
			c11.8,0,23.5-0.6,35.1-1.9C562.4,848,565.3,855.4,565.3,863.4z"/>
		<path class="st10" d="M557.6,842.3c-11.6,1.3-23.3,1.9-35.1,1.9c-32.2,0-63.6-4.7-93.8-13.9h103.4
			C542.3,830.3,551.5,835,557.6,842.3z"/>
		<path class="st12" d="M522.5,801.8c-74.6,0-144.7-29.1-197.5-81.8c-52.8-52.8-81.8-122.9-81.8-197.5S272.3,377.8,325,325
			c52.8-52.8,122.9-81.8,197.5-81.8S667.2,272.3,720,325c52.8,52.8,81.8,122.9,81.8,197.5S772.7,667.2,720,720
			C667.2,772.8,597.1,801.8,522.5,801.8z"/>
	</g>
</g>
<g id="atmosphere_clouds">

		<linearGradient id="SVGID_6_" gradientUnits="userSpaceOnUse" x1="318.9906" y1="868.2244" x2="753.7109" y2="115.2669" gradientTransform="matrix(1 0 0 -1 0 1045)">
		<stop  offset="0" style="stop-color:#CDD5D5;stop-opacity:0.4"/>
		<stop  offset="0.1672" style="stop-color:#CBD0D2;stop-opacity:0.5003"/>
		<stop  offset="0.3567" style="stop-color:#C3C3CB;stop-opacity:0.614"/>
		<stop  offset="0.5569" style="stop-color:#B8ACC0;stop-opacity:0.7342"/>
		<stop  offset="0.7647" style="stop-color:#A78CAF;stop-opacity:0.8588"/>
		<stop  offset="0.9765" style="stop-color:#93649B;stop-opacity:0.9859"/>
		<stop  offset="1" style="stop-color:#905F98"/>
	</linearGradient>
	<path class="st13" d="M1000.5,511.9c0,20.6-7.6,39.3-19.8,52.9c-12.2,13.6-29,22-47.5,22H759.7c18.2,13.4,30.3,36.4,30.3,62.5
		c0,20.6-7.6,39.3-19.8,52.9c-9.6,10.7-22,18.1-35.9,20.9H836c37,0,67.3,33.7,67.3,74.8c0,20.6-7.6,39.3-19.8,52.9
		c-12.2,13.6-29,22-47.5,22H472.7c-37,0-67.3-33.7-67.3-74.8c0-20.6,7.6-39.3,19.8-52.9c9.6-10.7,22-18.1,35.9-20.9h-290
		c-37,0-67.3-33.7-67.3-74.8c0-20.6,7.6-39.3,19.8-52.9c12.2-13.6,29-22,47.5-22h173.5c-18.2-13.4-30.3-36.4-30.3-62.5
		c0-20.6,7.6-39.3,19.8-52.9c9.6-10.7,22-18.1,35.9-20.9H141.8c-37,0-67.3-33.7-67.3-74.8c0-20.6,7.6-39.3,19.8-52.9s29-22,47.5-22
		H583c37,0,67.3,33.7,67.3,74.8c0,20.6-7.6,39.3-19.8,52.9c-9.6,10.7-22,18.1-35.9,20.9h338.5C970.2,437,1000.5,470.7,1000.5,511.9z
		"/>
</g>
<g id="thermometer">
	<g>
		<path class="st14" d="M846.7,679.6c0.3-2.6,0.4-5.3,0.4-8V377.2c0-20-8.2-38.2-21.3-51.3c-13.2-13.2-31.3-21.3-51.3-21.3
			c-40,0-72.7,32.7-72.7,72.7v294.5c0,2.7,0.1,5.4,0.4,8c-27.2,21.4-44.7,54.6-44.7,91.9c0,64.6,52.3,116.9,116.9,116.9
			s116.9-52.3,116.9-116.9C891.3,734.3,873.9,701.1,846.7,679.6z M774.7,869.9c-54.2,0-98.4-44.1-98.4-98.4
			c0-30.4,13.7-58.5,37.6-77.4l8.1-6.4l-1.2-10.3c-0.2-1.9-0.3-3.9-0.3-5.9V377.2c0-29.8,24.3-54.1,54.1-54.1
			c14.4,0,28,5.7,38.2,15.9c10.3,10.3,15.9,23.8,15.9,38.2v294.5c0,2-0.1,4-0.3,5.9l-1.2,10.3l8.1,6.4c23.9,18.8,37.6,47,37.6,77.4
			C873.1,825.8,829,869.9,774.7,869.9z"/>
		<g>
			<path class="st15" d="M824,708.8L807.7,696l2.3-20.6c0.1-1.2,0.2-2.5,0.2-3.8V423.3h-71.1v248.4c0,1.3,0.1,2.6,0.2,3.8l2.3,20.6
				l-16.3,12.8c-19.4,15.3-30.5,38.1-30.5,62.8c0,44,35.8,79.8,79.8,79.8s79.8-35.8,79.8-79.8C854.5,746.9,843.4,724.1,824,708.8z"
				/>
		</g>
	</g>
</g>
</svg>
