<?xml version="1.0" encoding="utf-8"?>
<!-- Generator: Adobe Illustrator 23.0.6, SVG Export Plug-In . SVG Version: 6.00 Build 0)  -->
<svg version="1.1" id="Layer_1" xmlns="http://www.w3.org/2000/svg" xmlns:xlink="http://www.w3.org/1999/xlink" x="0px" y="0px"
	 viewBox="0 0 1264.6 1212.1" style="enable-background:new 0 0 1264.6 1212.1;" xml:space="preserve">
<style type="text/css">
	.st0{fill:url(#SVGID_1_);}
	.st1{fill:none;stroke:#000000;stroke-width:9;stroke-miterlimit:10;}
	.st2{fill:url(#SVGID_2_);}
	.st3{fill:#00A1EC;}
	.st4{fill:#00B4FF;}
	.st5{fill:#4AB349;}
	.st6{fill:#72C059;}
	.st7{fill:#B6FFFF;}
	.st8{fill:#A4E8E5;}
	.st9{opacity:0.55;fill:#FFFFFF;enable-background:new    ;}
	.st10{fill:#FFFFFF;}
	.st11{fill:#F04E5C;}
	.st12{enable-background:new    ;}
	.st13{fill:none;}
</style>
<g>
	<g>
		
			<radialGradient id="SVGID_1_" cx="632.3" cy="806" r="522.5" gradientTransform="matrix(1 0 0 -1 0 1346)" gradientUnits="userSpaceOnUse">
			<stop  offset="0" style="stop-color:#9E76B4;stop-opacity:0.9"/>
			<stop  offset="0.4415" style="stop-color:#5B5D8C;stop-opacity:0.9442"/>
			<stop  offset="1" style="stop-color:#003C56"/>
			<stop  offset="1" style="stop-color:#003951"/>
			<stop  offset="1" style="stop-color:#002F44"/>
			<stop  offset="1" style="stop-color:#001F2D"/>
			<stop  offset="1" style="stop-color:#00090E"/>
			<stop  offset="1" style="stop-color:#000000"/>
		</radialGradient>
		<circle class="st0" cx="632.3" cy="540" r="522.5"/>
		<path class="st1" d="M632.3,1042.5c-67.8,0-133.7-13.3-195.6-39.5c-59.8-25.3-113.6-61.5-159.7-107.7
			c-46.2-46.2-82.4-99.9-107.7-159.7c-26.2-61.9-39.5-127.7-39.5-195.6s13.3-133.7,39.5-195.6c25.3-59.8,61.5-113.6,107.7-159.7
			c46.2-46.2,99.9-82.4,159.7-107.7c61.9-26.2,127.8-39.5,195.6-39.5S766,50.8,827.9,77c59.8,25.3,113.6,61.5,159.7,107.7
			c46.2,46.2,82.4,99.9,107.7,159.7c26.2,61.9,39.5,127.7,39.5,195.6s-13.3,133.7-39.5,195.6c-25.3,59.8-61.5,113.6-107.7,159.7
			c-46.2,46.1-99.9,82.4-159.7,107.7C766,1029.2,700.1,1042.5,632.3,1042.5z"/>
	</g>
	<g id="Layer_3">
		<g>
			
				<radialGradient id="SVGID_2_" cx="632.2999" cy="806.1" r="352.6" gradientTransform="matrix(1 0 0 -1 0 1346)" gradientUnits="userSpaceOnUse">
				<stop  offset="0" style="stop-color:#00ADDC"/>
				<stop  offset="0.1884" style="stop-color:#00A8D8"/>
				<stop  offset="0.4018" style="stop-color:#009ACA"/>
				<stop  offset="0.6274" style="stop-color:#0084B3"/>
				<stop  offset="0.8599" style="stop-color:#006594"/>
				<stop  offset="1" style="stop-color:#004E7D"/>
			</radialGradient>
			<path class="st2" d="M632.3,892.5c-47.6,0-93.8-9.3-137.2-27.7c-42-17.8-79.7-43.2-112.1-75.6c-32.4-32.4-57.8-70.1-75.6-112.1
				c-18.4-43.4-27.7-89.6-27.7-137.2s9.3-93.8,27.7-137.2c17.8-42,43.2-79.7,75.6-112.1s70.1-57.8,112.1-75.6
				c43.4-18.4,89.6-27.7,137.2-27.7s93.8,9.3,137.2,27.7c42,17.8,79.7,43.2,112.1,75.6s57.8,70.1,75.6,112.1
				c18.4,43.4,27.7,89.6,27.7,137.2s-9.3,93.8-27.7,137.2c-17.8,42-43.2,79.7-75.6,112.1c-32.4,32.4-70.1,57.8-112.1,75.6
				C726.1,883.2,679.9,892.5,632.3,892.5z"/>
			<path class="st3" d="M870,793.5c2.2,0,4.4,0.2,6.5,0.7c0.2-0.2,0.5-0.4,0.7-0.7H870z M294.3,439.5c-0.2,0.5-0.3,1-0.5,1.5H326
				c0.2-0.5,0.3-1,0.5-1.5H294.3z M320.8,374.7c-0.5,1-1.1,2-1.6,3.1h35.2c0.6-1,1.2-2.1,1.8-3.1H320.8z M957.1,402.8
				c-5.4-12.9-11.6-25.3-18.4-37.3c-15.5-27.2-34.6-52.3-57.1-74.7c-32.4-32.4-70.1-57.8-112.1-75.6c-5.5-2.3-11.1-4.5-16.7-6.6
				c-0.5,8.4-4.1,15.9-9.7,21.5c-2,2-4.4,3.8-6.9,5.3c-4.9,2.8-10.5,4.4-16.5,4.4h28.6c3,1.2,6.1,2.4,9.1,3.7
				c10.8,4.6,21.4,9.7,31.5,15.4c2,4.3,3.2,9,3.2,14c0,9.1-3.7,17.4-9.7,23.4S768.1,306,759,306H635.8c-18.2,0-33.1-14.9-33.1-33.1
				c0-9.1,3.7-17.4,9.7-23.4s14.3-9.7,23.4-9.7h-91.7c-5.9,0-11.4-1.6-16.2-4.3c-9.5-5.4-16.1-15.3-16.8-26.7
				c-5.3,2-10.7,4.1-15.9,6.3c-42,17.8-79.7,43.2-112.1,75.6c-6.7,6.7-13.1,13.6-19.2,20.8h78.6c18.2,0,33.1,14.9,33.1,33.1
				c0,9.1-3.7,17.4-9.7,23.4c-2.7,2.7-5.9,5-9.5,6.6h-21.6c-5,0-9.7,1.1-13.9,3.1h-1.6c0.2,0.1,0.5,0.2,0.7,0.4
				c-3.3,1.6-6.2,3.8-8.8,6.3c-6,6-9.7,14.3-9.7,23.4c0,13,7.6,24.3,18.5,29.7c-1.5,0.7-3.1,1.4-4.7,1.9h9.4c3.2,1,6.5,1.5,10,1.5
				h56.2c13.4,4.3,23.2,16.8,23.2,31.6c0,9.1-3.7,17.4-9.7,23.4s-14.3,9.7-23.4,9.7H282.1c-0.2,0-0.5,0-0.7,0
				c-1.1,11.3-1.6,22.8-1.6,34.3c0,25.9,2.8,51.3,8.2,76.1c1.3-0.2,2.7-0.3,4.1-0.3h48c-12.3-4.9-21-16.9-21-30.8
				c0-9.1,3.7-17.4,9.7-23.4s14.3-9.7,23.4-9.7H551c18.2,0,33.1,14.9,33.1,33.1c0,9.1-3.7,17.4-9.7,23.4S560.1,618,551,618h-48
				c12.3,4.9,21,16.9,21,30.8c0,9.1-3.7,17.4-9.7,23.4s-14.3,9.7-23.4,9.7H309.6c17.6,40,42.3,76,73.4,107.1
				c31.3,31.3,67.5,56.1,107.8,73.7c1.3-2,2.8-3.8,4.4-5.4c6-6,14.3-9.7,23.4-9.7h123.3c10.2,0,19.4,4.7,25.5,12
				c4.8,5.7,7.7,13.1,7.7,21.1c0,3.2-0.5,6.2-1.3,9.2c33-3.8,65-12.3,95.7-25.3c4.6-1.9,9-3.9,13.5-6.1c-12.6-1.5-23-10.1-27.1-21.7
				c-1.2-3.4-1.9-7.1-1.9-10.9c0-9,3.7-17.2,9.6-23.1s14.1-9.6,23.1-9.6h-3.1c-2.8,0-5.5-0.4-8.1-1c5.8-1.5,10.9-4.5,15-8.6
				c5.9-5.9,9.6-14.1,9.6-23.1c0-15.2-10.5-28.1-24.7-31.7c2.6-0.7,5.3-1,8.1-1h-26.2c-18,0-32.7-14.7-32.7-32.7
				c0-9,3.7-17.2,9.6-23.1s14.1-9.6,23.1-9.6h186.5c6.3,0,12.1,1.8,17.1,4.9c6.2-15.9,11.2-32.2,14.9-48.8h-36.5
				c-3.9,0-7.7-0.7-11.2-2c4.5-1.7,8.6-4.3,12-7.6c5.9-5.9,9.6-14.1,9.6-23.1c0-14.1-9-26.2-21.6-30.8c3.5-1.3,7.3-2,11.2-2h45.2
				c0-0.3,0-0.5,0-0.8c0.1-4.1,0.2-8.2,0.2-12.3C984.8,492.4,975.5,446.2,957.1,402.8z M953.7,552.3H738.2
				c-18,0-32.7-14.7-32.7-32.7c0-8.8,3.5-16.8,9.2-22.7c0.1-0.1,0.3-0.3,0.4-0.4c5.9-5.9,14.1-9.6,23.1-9.6h111.4
				c5.7-5.9,9.2-13.9,9.2-22.7c0-18-14.7-32.7-32.7-32.7h-2.7V431h-57.8c-18,0-32.7-14.7-32.7-32.7c0-9,3.7-17.2,9.6-23.1
				s14.1-9.6,23.1-9.6h137c10.1,15.6,18.8,32.1,26.1,49.3c16.8,39.6,25.2,81.7,25.2,125.2C954,544.1,953.9,548.2,953.7,552.3z"/>
			<path class="st4" d="M748.4,239.9h-28.6c6,0,11.6-1.6,16.5-4.4C740.3,236.8,744.4,238.3,748.4,239.9z"/>
			<path class="st4" d="M939.3,553.1c-3.9,0-7.7,0.7-11.2,2c12.6,4.6,21.6,16.7,21.6,30.8c0,9-3.7,17.2-9.6,23.1
				c-3.4,3.4-7.4,6-12,7.6c3.5,1.3,7.3,2,11.2,2h5c-3.8,14.9-8.6,29.6-14.5,43.9H757.4c-9,0-17.2,3.7-23.1,9.6s-9.6,14.1-9.6,23.1
				c0,18,14.7,32.7,32.7,32.7h26.2c-2.8,0-5.5,0.4-8.1,1c14.1,3.6,24.7,16.5,24.7,31.7c0,9-3.7,17.2-9.6,23.1
				c-4.1,4.1-9.3,7.1-15,8.6c2.6,0.7,5.3,1,8.1,1h3.1c-9,0-17.2,3.7-23.1,9.6s-9.6,14.1-9.6,23.1c0,3.8,0.7,7.5,1.9,10.9
				c-28.4,11.8-58,19.4-88.5,22.7c-6.1-7.3-15.3-12-25.5-12H538.5c-10.6-3.2-21.1-7-31.4-11.4c-38.3-16.2-72.7-39.4-102.3-69
				c-25.1-25.1-45.7-53.8-61.2-85.3h147.3c9.1,0,17.4-3.7,23.4-9.7c6-6,9.7-14.3,9.7-23.4c0-14-8.7-26-21-30.8h48
				c9.1,0,17.4-3.7,23.4-9.7s9.7-14.3,9.7-23.4c0-18.2-14.9-33.1-33.1-33.1H352.2c-9.1,0-17.4,3.7-23.4,9.7s-9.7,14.3-9.7,23.4
				c0,14,8.7,26,21,30.8h-20.5c-6-24.7-9-50-9-75.9c0-11.5,0.6-23,1.8-34.3h168.5c9.1,0,17.4-3.7,23.4-9.7s9.7-14.3,9.7-23.4
				c0-14.8-9.8-27.3-23.2-31.6h-56.2c-3.5,0-6.8-0.5-10-1.5h-9.4c1.6-0.5,3.2-1.1,4.7-1.9c-10.9-5.4-18.5-16.7-18.5-29.7
				c0-9.1,3.7-17.4,9.7-23.4c2.5-2.5,5.5-4.7,8.8-6.3c-0.2-0.1-0.5-0.2-0.7-0.4h1.5c4.2-2,9-3.1,13.9-3.1h21.7
				c3.5-1.7,6.8-3.9,9.5-6.6c6-6,9.7-14.3,9.7-23.4c0-18.2-14.9-33.1-33.1-33.1h-36.5c29.3-29.1,63.4-52,101.3-68
				c6.8-2.9,13.8-5.5,20.8-7.9c4.8,2.7,10.3,4.3,16.2,4.3h91.7c-9.1,0-17.4,3.7-23.4,9.7s-9.7,14.3-9.7,23.4
				c0,18.2,14.9,33.1,33.1,33.1h123.3c9.1,0,17.4-3.7,23.4-9.7s9.7-14.3,9.7-23.4c0-5-1.1-9.8-3.2-14c25.8,14.4,49.5,32.4,70.7,53.6
				c16.2,16.2,30.6,33.9,42.8,52.9h-137c-9,0-17.2,3.7-23.1,9.6s-9.6,14.1-9.6,23.1c0,18,14.7,32.7,32.7,32.7h57.8v0.4h2.7
				c18,0,32.7,14.7,32.7,32.7c0,8.8-3.5,16.8-9.2,22.7H738.2c-9,0-17.2,3.7-23.1,9.6c-0.1,0.1-0.3,0.3-0.4,0.4
				c-5.7,5.9-9.2,13.9-9.2,22.7c0,18,14.7,32.7,32.7,32.7h215.5c0,0.3,0,0.5,0,0.8h-14.4V553.1z"/>
			<path class="st5" d="M984.6,553.1c-0.8,22.2-3.7,44.1-8.5,65.5h-31.8c5.4-21.3,8.5-43.2,9.4-65.5H984.6z"/>
			<path class="st6" d="M953.7,552.3c-0.9,22.3-4,44.2-9.4,65.5h-5c-3.9,0-7.7-0.7-11.2-2c4.5-1.7,8.6-4.3,12-7.6
				c5.9-5.9,9.6-14.1,9.6-23.1c0-14.1-9-26.2-21.6-30.8c3.5-1.3,7.3-2,11.2-2L953.7,552.3L953.7,552.3z"/>
			<path class="st6" d="M954,540c0,4.1-0.1,8.2-0.2,12.3H738.3c-18,0-32.7-14.7-32.7-32.7c0-8.8,3.5-16.8,9.2-22.7
				c0.1-0.1,0.3-0.3,0.4-0.4c5.9-5.9,14.1-9.6,23.1-9.6h111.4c5.7-5.9,9.2-13.9,9.2-22.7c0-18-14.7-32.7-32.7-32.7h-2.7V431h-57.8
				c-18,0-32.7-14.7-32.7-32.7c0-9,3.7-17.2,9.6-23.1s14.1-9.6,23.1-9.6h137c10.1,15.6,18.8,32.1,26.1,49.3
				C945.5,454.4,954,496.5,954,540z"/>
			<path class="st5" d="M984.8,540c0,4.1-0.1,8.2-0.2,12.3h-30.8c0.2-4.1,0.2-8.2,0.2-12.3c0-43.5-8.5-85.6-25.2-125.2
				c-7.3-17.3-16-33.7-26.1-49.3h36.1c6.9,12,13,24.5,18.4,37.3C975.5,446.2,984.8,492.4,984.8,540z"/>
			<path class="st5" d="M961.1,667.4c-1.3,3.3-2.6,6.6-4,9.8c-7.5,17.7-16.4,34.7-26.6,50.8h-37.2c14.1-19.5,25.9-40.5,35.3-62.8
				c0.4-0.9,0.8-1.8,1.1-2.7h14.1C950.2,662.5,956.1,664.3,961.1,667.4z"/>
			<path class="st6" d="M929.9,662.5c-0.4,0.9-0.7,1.8-1.1,2.7c-9.4,22.3-21.3,43.3-35.3,62.8c-10.1,14-21.3,27.1-33.6,39.5
				c-9.3,9.3-19.1,18-29.4,26h-46.7c-2.8,0-5.5-0.4-8.1-1c5.8-1.5,10.9-4.5,15-8.6c5.9-5.9,9.6-14.1,9.6-23.1
				c0-15.2-10.5-28.1-24.7-31.7c2.6-0.7,5.3-1,8.1-1h-26.2c-18,0-32.7-14.7-32.7-32.7c0-9,3.7-17.2,9.6-23.1s14.1-9.6,23.1-9.6
				h172.4L929.9,662.5L929.9,662.5z"/>
			<path class="st5" d="M930.6,728c-13.9,22.1-30.3,42.5-49,61.3c-1.4,1.4-2.9,2.8-4.3,4.2h-46.8c10.2-8,20-16.7,29.4-26
				c12.3-12.3,23.6-25.5,33.6-39.5H930.6z"/>
			<path class="st6" d="M830.4,793.5c-22.3,17.5-46.7,31.8-72.9,42.9c-0.5,0.2-1.1,0.4-1.6,0.7c-1.2-3.4-1.9-7.1-1.9-10.9
				c0-9,3.7-17.2,9.6-23.1s14.1-9.6,23.1-9.6L830.4,793.5L830.4,793.5z"/>
			<path class="st5" d="M876.5,794.2c-27.7,26.6-59.1,48.3-93.6,64.6l0,0c-12.6-1.5-23-10.1-27.1-21.7c0.5-0.2,1.1-0.4,1.6-0.7
				c26.2-11.1,50.6-25.5,72.9-42.9h39.6C872.2,793.5,874.4,793.7,876.5,794.2z"/>
			<path class="st5" d="M404.3,311.5c-0.3,0.3,0.1,3.7-0.2,4.1c-18.8,18.8-35.9,38.9-49.4,61.4h-35.4c12-22.6,27.1-46,43.7-65.5
				H404.3z"/>
			<path class="st6" d="M514,472.6c0,9.1-3.7,17.4-9.7,23.4s-14.3,9.7-23.4,9.7H312.4c2.3-22.1,6.9-43.7,13.7-64.7
				c0.2-0.5,0.3-1,0.5-1.5c2.7-8.3,5.8-16.5,9.2-24.6c5.4-12.8,11.6-25.1,18.5-37c0.6-1,1.2-2.1,1.8-3.1c13.5-22.5,29-44.1,47.8-63
				c0.3-0.3,1.4,0.1,1.8-0.2h36.5c18.2,0,33.1,14.9,33.1,33.1c0,9.1-3.7,17.4-9.7,23.4c-2.7,2.7-5.9,5-9.5,6.6h-21.6
				c-5,0-9.7,1.1-13.9,3.1h-1.3c0.2,0.1,0.5,0.2,0.7,0.4c-3.3,1.6-6.2,3.8-8.8,6.3c-6,6-9.7,14.3-9.7,23.4c0,13,7.6,24.3,18.5,29.7
				c-1.5,0.7-3.1,1.4-4.7,1.9h9.4c3.2,1,6.5,1.5,10,1.5h56.2C504.3,445.2,514,457.8,514,472.6z"/>
			<path class="st6" d="M456.3,374.7c-4.2,2-9,3.1-13.9,3.1h-21.6c4.2-2,9-3.1,13.9-3.1H456.3z"/>
			<path class="st5" d="M354.4,377c-6.9,11.9-13.1,25-18.5,37.8c-3.4,8.1-7.3,17.9-10,26.2h-32.3c3.7-12.4,8.8-26.2,13.9-38.2
				c3.6-8.5,7.5-17.6,11.7-25.8H354.4z"/>
			<path class="st5" d="M326.1,441c-6.8,21-11.4,42.6-13.7,64.7h-30.3c-0.2,0-0.5,0-0.7,0c2.1-22,6.3-43.6,12.4-64.7H326.1z"/>
			<path class="st6" d="M490.9,441h-56.2c-3.5,0-6.8-0.5-10-1.5h56.2C484.4,439.5,487.7,440,490.9,441z"/>
			<path class="st6" d="M343.6,682.2h-34c-0.7-1.6-1.4-3.3-2.1-5c-8.4-19.8-14.9-40.2-19.5-61c1.3-0.2,2.7-0.3,4.1-0.3h27.5
				c4.1,16.8,9.5,33.3,16.3,49.3C338.3,670.9,340.9,676.6,343.6,682.2z"/>
			<path class="st6" d="M584.1,585.1c0,9.1-3.7,17.4-9.7,23.4s-14.3,9.7-23.4,9.7h-48c12.3,4.9,21,16.9,21,30.8
				c0,9.1-3.7,17.4-9.7,23.4s-14.3,9.7-23.4,9.7H343.6c-2.8-5.6-5.3-11.2-7.8-17c-6.8-16-12.2-32.5-16.3-49.3H340
				c-12.3-4.9-21-16.9-21-30.8c0-9.1,3.7-17.4,9.7-23.4s14.3-9.7,23.4-9.7h198.8C569.2,551.9,584.1,566.9,584.1,585.1z"/>
			<path class="st6" d="M504.9,769.2h-39.5c-15.2,0-27.6-12.4-27.6-27.6v-11c0-15.2,12.4-27.6,27.6-27.6h39.5
				c15.2,0,27.6,12.4,27.6,27.6v11C532.5,756.8,520.1,769.2,504.9,769.2z"/>
			<path class="st7" d="M792.2,273c0,9.1-3.7,17.4-9.7,23.4s-14.3,9.7-23.4,9.7H635.8c-18.2,0-33.1-14.9-33.1-33.1
				c0-9.1,3.7-17.4,9.7-23.4s14.3-9.7,23.4-9.7h-91.7c-5.9,0-11.4-1.6-16.2-4.3c33.4-11.5,68.4-17.3,104.4-17.3
				c35.8,0,70.6,5.8,103.9,17.1c-4.9,2.8-10.5,4.4-16.5,4.4h28.6c3,1.2,6.1,2.4,9.1,3.7c10.8,4.6,21.4,9.7,31.5,15.4
				C791,263.2,792.2,268,792.2,273z"/>
			<path class="st8" d="M752.8,208.6c-0.5,8.4-4.1,15.9-9.7,21.5c-2,2-4.4,3.8-6.9,5.3c-33.3-11.4-68.2-17.1-103.9-17.1
				c-36,0-71,5.8-104.4,17.3c-9.5-5.4-16.1-15.3-16.8-26.7c38.7-14.2,79.4-21.4,121.3-21.4C673.9,187.5,714.3,194.6,752.8,208.6z"/>
			<path class="st8" d="M789,259c-10.2-5.7-20.7-10.8-31.5-15.4c-3-1.3-6-2.5-9.1-3.7H759C772.3,239.9,783.7,247.7,789,259z"/>
			<path class="st8" d="M675.1,880.9c0,3.2-0.5,6.2-1.3,9.2c-13.7,1.6-27.5,2.4-41.5,2.4c-47.6,0-93.8-9.3-137.2-27.7
				c-1.4-0.6-2.8-1.2-4.3-1.8c1.3-2,2.8-3.8,4.4-5.4c6-6,14.3-9.7,23.4-9.7h19.8c30.2,9.2,61.6,13.9,93.8,13.9
				c11.8,0,23.5-0.6,35.1-1.9C672.2,865.5,675.1,872.9,675.1,880.9z"/>
			<path class="st7" d="M667.4,859.8c-11.6,1.3-23.3,1.9-35.1,1.9c-32.2,0-63.6-4.7-93.8-13.9h103.4
				C652.1,847.8,661.3,852.5,667.4,859.8z"/>
			<path class="st9" d="M632.3,819.3c-74.6,0-144.7-29.1-197.5-81.8C382,684.7,353,614.6,353,540s29.1-144.7,81.8-197.5
				c52.8-52.8,122.9-81.8,197.5-81.8s144.7,29.1,197.5,81.8c52.8,52.8,81.8,122.9,81.8,197.5s-29.1,144.7-81.8,197.5
				C777,790.3,706.9,819.3,632.3,819.3z"/>
		</g>
	</g>
	<g id="thermometer">
		<g>
			<path class="st10" d="M956.5,697.1c0.3-2.6,0.4-5.3,0.4-8V394.7c0-20-8.2-38.2-21.3-51.3c-13.2-13.2-31.3-21.3-51.3-21.3
				c-40,0-72.7,32.7-72.7,72.7v294.5c0,2.7,0.1,5.4,0.4,8c-27.2,21.4-44.7,54.6-44.7,91.9c0,64.6,52.3,116.9,116.9,116.9
				s116.9-52.3,116.9-116.9C1001.1,751.8,983.7,718.6,956.5,697.1z M884.5,887.4c-54.2,0-98.4-44.1-98.4-98.4
				c0-30.4,13.7-58.5,37.6-77.4l8.1-6.4l-1.2-10.3c-0.2-1.9-0.3-3.9-0.3-5.9V394.7c0-29.8,24.3-54.1,54.1-54.1
				c14.4,0,28,5.7,38.2,15.9c10.3,10.3,15.9,23.8,15.9,38.2v294.5c0,2-0.1,4-0.3,5.9l-1.2,10.3l8.1,6.4c23.9,18.8,37.6,47,37.6,77.4
				C982.9,843.3,938.8,887.4,884.5,887.4z"/>
			<g>
				<path class="st11" d="M933.8,726.3l-16.3-12.8l2.3-20.6c0.1-1.2,0.2-2.5,0.2-3.8V440.8h-71.1v248.4c0,1.3,0.1,2.6,0.2,3.8
					l2.3,20.6l-16.3,12.8c-19.4,15.3-30.5,38.1-30.5,62.8c0,44,35.8,79.8,79.8,79.8s79.8-35.8,79.8-79.8
					C964.3,764.4,953.2,741.6,933.8,726.3z"/>
			</g>
		</g>
	</g>
</g>
<g class="st12">
	<path class="st10" d="M328.8,1131.7c0-26.1,17.1-48.5,49.6-48.5c12.3,0,22,3.5,32.3,12c3.8,3.4,4.2,9.3,0.4,13.1
		c-3.8,3.2-9.6,2.8-13-0.4c-5.8-5.8-11.7-7.4-19.8-7.4c-21.8,0-32.2,14.7-32.2,31.2c0,16.8,10.3,32.2,32.2,32.2
		c8.1,0,15.5-3.1,22-8.6c4.4-3.2,10.5-1.6,13,1.6c2.3,3,3.4,8-1.6,12.7c-9.9,8.8-21.8,10.5-33.5,10.5
		C344.2,1180,328.8,1157.7,328.8,1131.7z"/>
	<path class="st10" d="M431.7,1093.7c0-4.5,4-8.2,8.9-8.2c4.5,0,8.3,3.8,8.3,8.2v67.7h38.4c13.8,0,14.1,17.7,0,17.7h-46.7
		c-4.9,0-8.9-3.4-8.9-8.2V1093.7z"/>
	<path class="st10" d="M513.4,1093.7c0-11.1,18.6-11.5,18.6,0v77.1c0,11.2-18.6,11.5-18.6,0V1093.7z"/>
	<path class="st10" d="M571.7,1119.8v50c0,5.9-5.1,9.3-10.2,9.3c-4.5,0-8.5-3.4-8.5-9.3v-76.1c0-7,6.2-9.3,8.5-9.3
		c4.1,0,6.5,2.3,8.9,4.9l31.1,40.1l32.2-41.6c4.7-5.5,16.1-3.4,16.1,5.9v76.1c0,5.9-4,9.3-8.5,9.3c-5.1,0-9-3.4-9-9.3v-50
		l-23.4,28.4c-5.1,5.9-11.4,5.9-16.1,0L571.7,1119.8z"/>
	<path class="st10" d="M667.4,1179.1c-4.5-2.4-7.3-7.3-4.5-13l40.5-75.8c3.8-7.2,14-7.4,17.5,0l39.8,75.8
		c5.8,10.5-11.3,18.9-16.4,8.4l-6.2-11.9h-52.1l-6.1,11.9C677.8,1179.1,672.5,1180,667.4,1179.1z M728.2,1144.8l-16-33.4l-17.4,33.4
		H728.2z"/>
	<path class="st10" d="M789.2,1102.5h-24.7c-12.3,0-12.3-17.3,0-17.3h66.8c12.6,0,12.6,17.3,0,17.3h-23.4v68.2
		c0,11.8-18.6,12-18.6,0V1102.5z"/>
	<path class="st10" d="M862.8,1179.1c-4.9,0-8.8-3.6-8.8-8.4V1094c0-4.9,3.8-8.4,8.8-8.4h50.7c13,0,12.7,17.6,0,17.6h-40.7v20.3
		h35.6c12.6,0,12.6,17.7,0,17.7h-35.6v20.3h43.1c12.9,0,13.8,17.7,0,17.7H862.8z"/>
</g>
<polygon class="st13" points="70,1054.6 117.5,1054.6 117.5,1054.6 "/>
</svg>
