<?xml version="1.0" encoding="utf-8"?>
<!-- Generator: Adobe Illustrator 23.0.6, SVG Export Plug-In . SVG Version: 6.00 Build 0)  -->
<svg version="1.1" id="Layer_1" xmlns="http://www.w3.org/2000/svg" xmlns:xlink="http://www.w3.org/1999/xlink" x="0px" y="0px"
	 viewBox="0 0 1207.1 1320.2" style="enable-background:new 0 0 1207.1 1320.2;" xml:space="preserve">
<g>
	<circle style="fill:#C16266;" cx="603.5" cy="540.5" r="522.5"/>
	<path style="fill:none;stroke:#000000;stroke-width:13;stroke-miterlimit:10;" d="M606,1042.5c-67.8,0-133.7-13.3-195.6-39.5
		c-59.8-25.3-113.6-61.5-159.7-107.7c-46.2-46.2-82.4-99.9-107.7-159.7c-26.2-61.9-39.5-127.7-39.5-195.6s13.3-133.7,39.5-195.6
		c25.3-59.8,61.5-113.6,107.7-159.7c46.2-46.2,99.9-82.4,159.7-107.7C472.3,50.8,538.2,37.5,606,37.5S739.7,50.8,801.6,77
		c59.8,25.3,113.6,61.5,159.7,107.7c46.2,46.2,82.4,99.9,107.7,159.7c26.2,61.9,39.5,127.7,39.5,195.6s-13.3,133.7-39.5,195.6
		c-25.3,59.8-61.5,113.6-107.7,159.7s-99.9,82.4-159.7,107.7C739.7,1029.2,673.8,1042.5,606,1042.5z"/>
	<radialGradient id="SVGID_1_" cx="604.4005" cy="499.3499" r="269.7304" gradientUnits="userSpaceOnUse">
		<stop  offset="0" style="stop-color:#F2F2F2;stop-opacity:0.1"/>
		<stop  offset="1" style="stop-color:#FFFFFF"/>
	</radialGradient>
	<path style="fill:url(#SVGID_1_);" d="M861,476c-0.3,101.1-58.3,188.5-142.6,230.7v45.6c0,16.2-13,29.3-29.1,29.3H514.8
		c-13.5,0-24.4-11-24.4-24.6v-50.3c-84.5-42.3-142.6-130-142.6-231.4c0-142.7,115-258.4,256.9-258.2C747,217.1,861.4,332.7,861,476z
		"/>
	<path style="fill:#999999;" d="M675.8,878.4H530.7c-5.1,0-9.3-5-9.3-11.2l0,0c0-6.2,4.2-11.2,9.3-11.2h145.1c5.1,0,9.3,5,9.3,11.2
		l0,0C685.1,873.4,680.9,878.4,675.8,878.4z"/>
	<path style="fill:#999999;" d="M696.1,845.7H510.4c-6.6,0-11.9-4.9-11.9-10.9l0,0c0-6,5.4-10.9,11.9-10.9H696
		c6.6,0,11.9,4.9,11.9,10.9l0,0C708,840.8,702.6,845.7,696.1,845.7z"/>
	<path style="fill:#999999;" d="M696.1,813.7H510.4c-6.6,0-11.9-4.9-11.9-10.9l0,0c0-6,5.4-10.9,11.9-10.9H696
		c6.6,0,11.9,4.9,11.9,10.9l0,0C708,808.8,702.6,813.7,696.1,813.7z"/>
	<linearGradient id="SVGID_2_" gradientUnits="userSpaceOnUse" x1="488.0518" y1="324.1785" x2="840.6176" y2="779.6833">
		<stop  offset="0" style="stop-color:#CCE0F4"/>
		<stop  offset="0.3556" style="stop-color:#CADEF2"/>
		<stop  offset="0.4915" style="stop-color:#C5D8EB"/>
		<stop  offset="0.5899" style="stop-color:#BBCDDF"/>
		<stop  offset="0.6702" style="stop-color:#ACBDCE"/>
		<stop  offset="0.7393" style="stop-color:#99A8B8"/>
		<stop  offset="0.8009" style="stop-color:#828F9C"/>
		<stop  offset="0.8568" style="stop-color:#67717B"/>
		<stop  offset="0.9083" style="stop-color:#474E55"/>
		<stop  offset="0.9544" style="stop-color:#24272B"/>
		<stop  offset="0.9944" style="stop-color:#000000"/>
	</linearGradient>
	<path style="opacity:0.49;fill:url(#SVGID_2_);enable-background:new    ;" d="M860,473.8c0,142.9-114.6,258.7-256.1,258.7
		c-117.9,0-217.1-80.4-246.9-189.9c43.8,56.4,111.9,92.6,188.3,92.6c132.1,0,239.2-108.2,239.2-241.6c0-51.1-15.7-98.5-42.5-137.5
		C813,302,860,382.4,860,473.8z"/>
	<radialGradient id="SVGID_3_" cx="603" cy="472" r="229" gradientUnits="userSpaceOnUse">
		<stop  offset="0" style="stop-color:#FCEE21;stop-opacity:0.4"/>
		<stop  offset="0.1555" style="stop-color:#FCEE25;stop-opacity:0.3531"/>
		<stop  offset="0.2947" style="stop-color:#FBEE2F;stop-opacity:0.3111"/>
		<stop  offset="0.4277" style="stop-color:#FAEF42;stop-opacity:0.271"/>
		<stop  offset="0.5569" style="stop-color:#F9EF5B;stop-opacity:0.232"/>
		<stop  offset="0.6833" style="stop-color:#F8F07D;stop-opacity:0.1938"/>
		<stop  offset="0.8077" style="stop-color:#F6F1A5;stop-opacity:0.1563"/>
		<stop  offset="0.9281" style="stop-color:#F3F1D5;stop-opacity:0.12"/>
		<stop  offset="0.9944" style="stop-color:#F2F2F2;stop-opacity:0.1"/>
	</radialGradient>
	<circle style="fill:url(#SVGID_3_);" cx="603" cy="472" r="229"/>
	
		<path style="opacity:0.83;fill:none;stroke:#FFFFFF;stroke-width:22;stroke-linecap:round;stroke-miterlimit:10;enable-background:new    ;" d="
		M451.7,320.7C492.1,280.3,545.8,258,603,258"/>
	
		<path style="opacity:0.83;fill:none;stroke:#FFFFFF;stroke-width:22;stroke-linecap:round;stroke-miterlimit:10;enable-background:new    ;" d="
		M394.9,421.7c4.5-19,11.7-37.2,21.2-54.2"/>
	<radialGradient id="SVGID_4_" cx="603.5" cy="494.5" r="104.5" gradientUnits="userSpaceOnUse">
		<stop  offset="0" style="stop-color:#1CE273"/>
		<stop  offset="0.1633" style="stop-color:#1FE272"/>
		<stop  offset="0.2995" style="stop-color:#2AE36E"/>
		<stop  offset="0.426" style="stop-color:#3BE468"/>
		<stop  offset="0.5466" style="stop-color:#53E55F"/>
		<stop  offset="0.663" style="stop-color:#73E753"/>
		<stop  offset="0.7764" style="stop-color:#9AE945"/>
		<stop  offset="0.8854" style="stop-color:#C7EB34"/>
		<stop  offset="0.9917" style="stop-color:#FBEE22"/>
		<stop  offset="0.9944" style="stop-color:#FCEE21"/>
	</radialGradient>
	<circle style="opacity:4.000000e-02;fill:url(#SVGID_4_);enable-background:new    ;" cx="603.5" cy="494.5" r="104.5"/>
	<polygon style="fill:#FFFF00;" points="569.5,758 569.5,549.1 509.5,555.3 642.5,323.8 642.5,532.6 702.5,526.4 	"/>
	<polygon style="fill:#FFFFA6;" points="569.5,758 569.5,549.1 509.5,555.3 642.5,323.8 642.5,532.6 702.5,526.4 	"/>
	<polygon style="fill:#FFFF00;" points="584.5,532.5 537.1,537.4 627.5,380 627.5,549.3 674.9,544.3 584.5,701.8 	"/>
</g>
<g style="enable-background:new    ;">
	<path style="fill:#FFFFFF;" d="M147.8,1187.5c-4.9,0-8.8-3.6-8.8-8.4v-76.7c0-4.9,3.8-8.4,8.8-8.4h50.7c13,0,12.7,17.6,0,17.6
		h-40.7v20.3h35.6c12.6,0,12.6,17.7,0,17.7h-35.6v20.3h43.1c12.9,0,13.8,17.7,0,17.7H147.8z"/>
	<path style="fill:#FFFFFF;" d="M226,1102.2c0-4.5,4-8.2,8.9-8.2c4.5,0,8.3,3.8,8.3,8.2v67.7h38.4c13.8,0,14.1,17.7,0,17.7h-46.7
		c-4.9,0-8.9-3.4-8.9-8.2V1102.2z"/>
	<path style="fill:#FFFFFF;" d="M315.3,1187.5c-4.9,0-8.8-3.6-8.8-8.4v-76.7c0-4.9,3.8-8.4,8.8-8.4H366c13,0,12.7,17.6,0,17.6h-40.7
		v20.3h35.6c12.6,0,12.6,17.7,0,17.7h-35.6v20.3h43.1c12.9,0,13.8,17.7,0,17.7H315.3z"/>
	<path style="fill:#FFFFFF;" d="M390,1140.1c0-26.1,17.1-48.5,49.6-48.5c12.3,0,22,3.5,32.3,12c3.8,3.4,4.2,9.3,0.4,13.1
		c-3.8,3.2-9.6,2.8-13-0.4c-5.8-5.8-11.7-7.4-19.8-7.4c-21.8,0-32.2,14.7-32.2,31.2c0,16.8,10.3,32.2,32.2,32.2
		c8.1,0,15.5-3.1,22-8.6c4.4-3.2,10.5-1.6,13,1.6c2.3,3,3.4,8-1.6,12.7c-9.9,8.8-21.8,10.5-33.5,10.5
		C405.4,1188.5,390,1166.2,390,1140.1z"/>
	<path style="fill:#FFFFFF;" d="M519.5,1111h-24.7c-12.3,0-12.3-17.3,0-17.3h66.8c12.6,0,12.6,17.3,0,17.3h-23.4v68.2
		c0,11.8-18.6,12-18.6,0V1111z"/>
	<path style="fill:#FFFFFF;" d="M603.3,1178.8c0,11.8-18.8,12.2-18.8,0.3v-76.7c0-4.7,3.8-8.2,8.5-8.2h37.6
		c35.9,0,43.2,45.9,13.3,57.4l18.8,21.9c7.3,10.4-7.3,20.4-15.8,10.1l-21.3-29.2h-22.2V1178.8z M603.3,1138.8h27.3
		c18.4,0,19.5-28.4,0-28.4h-27.3V1138.8z"/>
	<path style="fill:#FFFFFF;" d="M680.9,1102.2c0-11.1,18.6-11.5,18.6,0v77.1c0,11.2-18.6,11.5-18.6,0V1102.2z"/>
	<path style="fill:#FFFFFF;" d="M717,1140.1c0-26.1,17.1-48.5,49.6-48.5c12.3,0,22,3.5,32.3,12c3.8,3.4,4.2,9.3,0.4,13.1
		c-3.8,3.2-9.6,2.8-13-0.4c-5.8-5.8-11.7-7.4-19.8-7.4c-21.8,0-32.2,14.7-32.2,31.2c0,16.8,10.3,32.2,32.2,32.2
		c8.1,0,15.5-3.1,22-8.6c4.4-3.2,10.5-1.6,13,1.6c2.3,3,3.4,8-1.6,12.7c-9.9,8.8-21.8,10.5-33.5,10.5
		C732.3,1188.5,717,1166.2,717,1140.1z"/>
	<path style="fill:#FFFFFF;" d="M820.9,1102.2c0-11.1,18.6-11.5,18.6,0v77.1c0,11.2-18.6,11.5-18.6,0V1102.2z"/>
	<path style="fill:#FFFFFF;" d="M887,1111h-24.7c-12.3,0-12.3-17.3,0-17.3h66.8c12.6,0,12.6,17.3,0,17.3h-23.4v68.2
		c0,11.8-18.6,12-18.6,0V1111z"/>
	<path style="fill:#FFFFFF;" d="M949.3,1106.8c-7.6-9.1,8.3-19.5,15.8-9.6l26,37l26.4-37c7.5-9.9,22.9,0,15.5,9.1l-33,45v27.8
		c1.3,11.8-18.6,11.8-18.6,0v-27.8L949.3,1106.8z"/>
</g>
</svg>
