<?xml version="1.0" encoding="utf-8"?>
<!-- Generator: Adobe Illustrator 24.1.0, SVG Export Plug-In . SVG Version: 6.00 Build 0)  -->
<svg version="1.1" id="Layer_2_1_" xmlns="http://www.w3.org/2000/svg" xmlns:xlink="http://www.w3.org/1999/xlink" x="0px" y="0px"
	 viewBox="0 0 1045 1045" style="enable-background:new 0 0 1045 1045;" xml:space="preserve">
<style type="text/css">
	.st0{fill:#C16266;}
	.st1{fill:none;stroke:#000000;stroke-width:13;stroke-miterlimit:10;}
	.st2{fill:url(#SVGID_1_);}
	.st3{fill:#999999;}
	.st4{opacity:0.49;fill:url(#SVGID_2_);enable-background:new    ;}
	.st5{fill:url(#SVGID_3_);}

		.st6{opacity:0.83;fill:none;stroke:#FFFFFF;stroke-width:22;stroke-linecap:round;stroke-miterlimit:10;enable-background:new    ;}
	.st7{opacity:4.000000e-02;fill:url(#SVGID_4_);enable-background:new    ;}
	.st8{fill:#FFFF00;}
	.st9{fill:#FFFFA6;}
</style>
<circle class="st0" cx="522.5" cy="522.5" r="522.5"/>
<path class="st1" d="M525,1024.5c-67.8,0-133.7-13.3-195.6-39.5c-59.8-25.3-113.6-61.5-159.7-107.7C123.5,831.1,87.3,777.4,62,717.6
	C35.8,655.7,22.5,589.9,22.5,522S35.8,388.3,62,326.4c25.3-59.8,61.5-113.6,107.7-159.7c46.2-46.2,99.9-82.4,159.7-107.7
	C391.3,32.8,457.2,19.5,525,19.5S658.7,32.8,720.6,59c59.8,25.3,113.6,61.5,159.7,107.7c46.2,46.2,82.4,99.9,107.7,159.7
	c26.2,61.9,39.5,127.7,39.5,195.6s-13.3,133.7-39.5,195.6c-25.3,59.8-61.5,113.6-107.7,159.7S780.4,959.7,720.6,985
	C658.7,1011.2,592.8,1024.5,525,1024.5z"/>
<radialGradient id="SVGID_1_" cx="523.4005" cy="562.6501" r="269.7304" gradientTransform="matrix(1 0 0 -1 0 1044)" gradientUnits="userSpaceOnUse">
	<stop  offset="0" style="stop-color:#F2F2F2;stop-opacity:0.1"/>
	<stop  offset="1" style="stop-color:#FFFFFF"/>
</radialGradient>
<path class="st2" d="M780,458c-0.3,101.1-58.3,188.5-142.6,230.7v45.6c0,16.2-13,29.3-29.1,29.3H433.8c-13.5,0-24.4-11-24.4-24.6
	v-50.3c-84.5-42.3-142.6-130-142.6-231.4c0-142.7,115-258.4,256.9-258.2C666,199.1,780.4,314.7,780,458z"/>
<path class="st3" d="M594.8,860.4H449.7c-5.1,0-9.3-5-9.3-11.2l0,0c0-6.2,4.2-11.2,9.3-11.2h145.1c5.1,0,9.3,5,9.3,11.2l0,0
	C604.1,855.4,599.9,860.4,594.8,860.4z"/>
<path class="st3" d="M615.1,827.7H429.4c-6.6,0-11.9-4.9-11.9-10.9l0,0c0-6,5.4-10.9,11.9-10.9H615c6.6,0,11.9,4.9,11.9,10.9l0,0
	C627,822.8,621.6,827.7,615.1,827.7z"/>
<path class="st3" d="M615.1,795.7H429.4c-6.6,0-11.9-4.9-11.9-10.9l0,0c0-6,5.4-10.9,11.9-10.9H615c6.6,0,11.9,4.9,11.9,10.9l0,0
	C627,790.8,621.6,795.7,615.1,795.7z"/>
<linearGradient id="SVGID_2_" gradientUnits="userSpaceOnUse" x1="407.0385" y1="737.8386" x2="759.6044" y2="282.3338" gradientTransform="matrix(1 0 0 -1 0 1044)">
	<stop  offset="0" style="stop-color:#CCE0F4"/>
	<stop  offset="0.3556" style="stop-color:#CADEF2"/>
	<stop  offset="0.4915" style="stop-color:#C5D8EB"/>
	<stop  offset="0.5899" style="stop-color:#BBCDDF"/>
	<stop  offset="0.6702" style="stop-color:#ACBDCE"/>
	<stop  offset="0.7393" style="stop-color:#99A8B8"/>
	<stop  offset="0.8009" style="stop-color:#828F9C"/>
	<stop  offset="0.8568" style="stop-color:#67717B"/>
	<stop  offset="0.9083" style="stop-color:#474E55"/>
	<stop  offset="0.9544" style="stop-color:#24272B"/>
	<stop  offset="0.9944" style="stop-color:#000000"/>
</linearGradient>
<path class="st4" d="M779,455.8c0,142.9-114.6,258.7-256.1,258.7c-117.9,0-217.1-80.4-246.9-189.9c43.8,56.4,111.9,92.6,188.3,92.6
	c132.1,0,239.2-108.2,239.2-241.6c0-51.1-15.7-98.5-42.5-137.5C732,284,779,364.4,779,455.8z"/>
<radialGradient id="SVGID_3_" cx="522" cy="590" r="229" gradientTransform="matrix(1 0 0 -1 0 1044)" gradientUnits="userSpaceOnUse">
	<stop  offset="0" style="stop-color:#FCEE21;stop-opacity:0.4"/>
	<stop  offset="0.1555" style="stop-color:#FCEE25;stop-opacity:0.3531"/>
	<stop  offset="0.2947" style="stop-color:#FBEE2F;stop-opacity:0.3111"/>
	<stop  offset="0.4277" style="stop-color:#FAEF42;stop-opacity:0.271"/>
	<stop  offset="0.5569" style="stop-color:#F9EF5B;stop-opacity:0.232"/>
	<stop  offset="0.6833" style="stop-color:#F8F07D;stop-opacity:0.1938"/>
	<stop  offset="0.8077" style="stop-color:#F6F1A5;stop-opacity:0.1563"/>
	<stop  offset="0.9281" style="stop-color:#F3F1D5;stop-opacity:0.12"/>
	<stop  offset="0.9944" style="stop-color:#F2F2F2;stop-opacity:0.1"/>
</radialGradient>
<circle class="st5" cx="522" cy="454" r="229"/>
<path class="st6" d="M370.7,302.7C411.1,262.3,464.8,240,522,240"/>
<path class="st6" d="M313.9,403.7c4.5-19,11.7-37.2,21.2-54.2"/>
<radialGradient id="SVGID_4_" cx="522.5" cy="567.5" r="104.5" gradientTransform="matrix(1 0 0 -1 0 1044)" gradientUnits="userSpaceOnUse">
	<stop  offset="0" style="stop-color:#1CE273"/>
	<stop  offset="0.1633" style="stop-color:#1FE272"/>
	<stop  offset="0.2995" style="stop-color:#2AE36E"/>
	<stop  offset="0.426" style="stop-color:#3BE468"/>
	<stop  offset="0.5466" style="stop-color:#53E55F"/>
	<stop  offset="0.663" style="stop-color:#73E753"/>
	<stop  offset="0.7764" style="stop-color:#9AE945"/>
	<stop  offset="0.8854" style="stop-color:#C7EB34"/>
	<stop  offset="0.9917" style="stop-color:#FBEE22"/>
	<stop  offset="0.9944" style="stop-color:#FCEE21"/>
</radialGradient>
<circle class="st7" cx="522.5" cy="476.5" r="104.5"/>
<polygon class="st8" points="488.5,740 488.5,531.1 428.5,537.3 561.5,305.8 561.5,514.6 621.5,508.4 "/>
<polygon class="st9" points="488.5,740 488.5,531.1 428.5,537.3 561.5,305.8 561.5,514.6 621.5,508.4 "/>
<polygon class="st8" points="503.5,514.5 456.1,519.4 546.5,362 546.5,531.3 593.9,526.3 503.5,683.8 "/>
</svg>
