<?xml version="1.0" encoding="utf-8"?>
<!-- Generator: Adobe Illustrator 23.0.4, SVG Export Plug-In . SVG Version: 6.00 Build 0)  -->
<svg version="1.1" id="Layer_2" xmlns="http://www.w3.org/2000/svg" xmlns:xlink="http://www.w3.org/1999/xlink" x="0px" y="0px"
	 viewBox="0 0 1920 1080" style="enable-background:new 0 0 1920 1080;" xml:space="preserve">
<style type="text/css">
	.st0{fill:#C16266;}
	.st1{fill:none;stroke:#000000;stroke-width:13;stroke-miterlimit:10;}
	.st2{fill:url(#SVGID_1_);}
	.st3{fill:#999999;}
	.st4{opacity:0.49;fill:url(#SVGID_2_);}
	.st5{fill:url(#SVGID_3_);}
	.st6{opacity:0.83;fill:none;stroke:#FFFFFF;stroke-width:22;stroke-linecap:round;stroke-miterlimit:10;}
	.st7{opacity:4.000000e-02;fill:url(#SVGID_4_);}
	.st8{fill:#FFFF00;}
	.st9{fill:#FFFFA6;}
</style>
<circle class="st0" cx="957.5" cy="540.5" r="522.5"/>
<path class="st1" d="M960,1042.5c-67.8,0-133.7-13.3-195.6-39.5c-59.8-25.3-113.6-61.5-159.7-107.7
	c-46.2-46.2-82.4-99.9-107.7-159.7c-26.2-61.9-39.5-127.7-39.5-195.6s13.3-133.7,39.5-195.6c25.3-59.8,61.5-113.6,107.7-159.7
	c46.2-46.2,99.9-82.4,159.7-107.7C826.3,50.8,892.2,37.5,960,37.5s133.7,13.3,195.6,39.5c59.8,25.3,113.6,61.5,159.7,107.7
	c46.2,46.2,82.4,99.9,107.7,159.7c26.2,61.9,39.5,127.7,39.5,195.6s-13.3,133.7-39.5,195.6c-25.3,59.8-61.5,113.6-107.7,159.7
	s-99.9,82.4-159.7,107.7C1093.7,1029.2,1027.8,1042.5,960,1042.5z"/>
<radialGradient id="SVGID_1_" cx="958.375" cy="499.25" r="269.742" gradientUnits="userSpaceOnUse">
	<stop  offset="0" style="stop-color:#F2F2F2;stop-opacity:0.1"/>
	<stop  offset="1" style="stop-color:#FFFFFF"/>
</radialGradient>
<path class="st2" d="M1215,476c-0.3,101.1-58.3,188.5-142.6,230.7v45.6c0,16.2-13,29.3-29.1,29.3H868.8c-13.5,0-24.4-11-24.4-24.6
	v-50.3c-84.5-42.3-142.6-130-142.6-231.4c0-142.7,115-258.4,256.9-258.2C1101,217.1,1215.4,332.7,1215,476z"/>
<path class="st3" d="M1029.8,878.4H884.7c-5.1,0-9.3-5-9.3-11.2v0c0-6.2,4.2-11.2,9.3-11.2h145.1c5.1,0,9.3,5,9.3,11.2v0
	C1039.1,873.4,1034.9,878.4,1029.8,878.4z"/>
<path class="st3" d="M1050.1,845.7H864.4c-6.6,0-11.9-4.9-11.9-10.9l0,0c0-6,5.4-10.9,11.9-10.9h185.6c6.6,0,11.9,4.9,11.9,10.9l0,0
	C1062,840.8,1056.6,845.7,1050.1,845.7z"/>
<path class="st3" d="M1050.1,813.7H864.4c-6.6,0-11.9-4.9-11.9-10.9l0,0c0-6,5.4-10.9,11.9-10.9h185.6c6.6,0,11.9,4.9,11.9,10.9l0,0
	C1062,808.8,1056.6,813.7,1050.1,813.7z"/>
<linearGradient id="SVGID_2_" gradientUnits="userSpaceOnUse" x1="842.0608" y1="324.1442" x2="1194.6267" y2="779.649">
	<stop  offset="0" style="stop-color:#CCE0F4"/>
	<stop  offset="0.3556" style="stop-color:#CADEF2"/>
	<stop  offset="0.4915" style="stop-color:#C5D8EB"/>
	<stop  offset="0.5899" style="stop-color:#BBCDDF"/>
	<stop  offset="0.6702" style="stop-color:#ACBDCE"/>
	<stop  offset="0.7393" style="stop-color:#99A8B8"/>
	<stop  offset="0.8009" style="stop-color:#828F9C"/>
	<stop  offset="0.8568" style="stop-color:#67717B"/>
	<stop  offset="0.9083" style="stop-color:#474E55"/>
	<stop  offset="0.9544" style="stop-color:#24272B"/>
	<stop  offset="0.9944" style="stop-color:#000000"/>
</linearGradient>
<path class="st4" d="M1214,473.8c0,142.9-114.6,258.7-256.1,258.7c-117.9,0-217.1-80.4-246.9-189.9c43.8,56.4,111.9,92.6,188.3,92.6
	c132.1,0,239.2-108.2,239.2-241.6c0-51.1-15.7-98.5-42.5-137.5C1167,302,1214,382.4,1214,473.8z"/>
<radialGradient id="SVGID_3_" cx="957" cy="472" r="229" gradientUnits="userSpaceOnUse">
	<stop  offset="0" style="stop-color:#FCEE21;stop-opacity:0.4"/>
	<stop  offset="0.1555" style="stop-color:#FCEE25;stop-opacity:0.3531"/>
	<stop  offset="0.2947" style="stop-color:#FBEE2F;stop-opacity:0.3111"/>
	<stop  offset="0.4277" style="stop-color:#FAEF42;stop-opacity:0.271"/>
	<stop  offset="0.5569" style="stop-color:#F9EF5B;stop-opacity:0.232"/>
	<stop  offset="0.6833" style="stop-color:#F8F07D;stop-opacity:0.1938"/>
	<stop  offset="0.8077" style="stop-color:#F6F1A5;stop-opacity:0.1563"/>
	<stop  offset="0.9281" style="stop-color:#F3F1D5;stop-opacity:0.12"/>
	<stop  offset="0.9944" style="stop-color:#F2F2F2;stop-opacity:0.1"/>
</radialGradient>
<circle class="st5" cx="957" cy="472" r="229"/>
<path class="st6" d="M805.7,320.7C846.1,280.3,899.8,258,957,258"/>
<path class="st6" d="M748.9,421.7c4.5-19,11.7-37.2,21.2-54.2"/>
<radialGradient id="SVGID_4_" cx="957.5" cy="494.5" r="104.5" gradientUnits="userSpaceOnUse">
	<stop  offset="0" style="stop-color:#1CE273"/>
	<stop  offset="0.1633" style="stop-color:#1FE272"/>
	<stop  offset="0.2995" style="stop-color:#2AE36E"/>
	<stop  offset="0.426" style="stop-color:#3BE468"/>
	<stop  offset="0.5466" style="stop-color:#53E55F"/>
	<stop  offset="0.663" style="stop-color:#73E753"/>
	<stop  offset="0.7764" style="stop-color:#9AE945"/>
	<stop  offset="0.8854" style="stop-color:#C7EB34"/>
	<stop  offset="0.9917" style="stop-color:#FBEE22"/>
	<stop  offset="0.9944" style="stop-color:#FCEE21"/>
</radialGradient>
<circle class="st7" cx="957.5" cy="494.5" r="104.5"/>
<polygon class="st8" points="923.5,758 923.5,549.1 863.5,555.3 996.5,323.8 996.5,532.6 1056.5,526.4 "/>
<polygon class="st9" points="923.5,758 923.5,549.1 863.5,555.3 996.5,323.8 996.5,532.6 1056.5,526.4 "/>
<polygon class="st8" points="938.5,532.5 891.1,537.4 981.5,380 981.5,549.3 1028.9,544.3 938.5,701.8 "/>
</svg>
