<?xml version="1.0" encoding="utf-8"?>
<!-- Generator: Adobe Illustrator 23.0.4, SVG Export Plug-In . SVG Version: 6.00 Build 0)  -->
<svg version="1.1" xmlns="http://www.w3.org/2000/svg" xmlns:xlink="http://www.w3.org/1999/xlink" x="0px" y="0px"
	 viewBox="0 0 279.4 343.8" style="enable-background:new 0 0 279.4 343.8;" xml:space="preserve">
<g id="Layer_1">
	<path style="fill:#5AB950;" d="M260,168v175h-90.5v-90.5c0-15.7-12.8-28.5-28.5-28.5h-2.5c-15.7,0-28.5,12.8-28.5,28.5V343H21V168
		H260z"/>
	<polygon style="fill:#5AB950;" points="21.1,168 140.4,28.2 259.6,168 	"/>
	<path style="fill:#5AB950;" d="M273.7,166h-7.3L143.8,22.2l-3.4-4l-3.4,4L14.3,166h-8c-4.5,0-7-5.1-4.1-8.5L127.8,11.4l3.4-4
		l3.6-4.2c1.9-2.2,5.4-2.2,7.3,0l7.7,8.8l127.9,145.6C280.7,160.9,278.2,166,273.7,166z"/>
</g>
<g id="Layer_2">
</g>
</svg>
