<?xml version="1.0" encoding="utf-8"?>
<!-- Generator: Adobe Illustrator 23.0.4, SVG Export Plug-In . SVG Version: 6.00 Build 0)  -->
<svg version="1.1" id="Layer_1" xmlns="http://www.w3.org/2000/svg" xmlns:xlink="http://www.w3.org/1999/xlink" x="0px" y="0px"
	 viewBox="0 0 944 960" style="enable-background:new 0 0 944 960;" xml:space="preserve">
<style type="text/css">
	.st0{fill:#FFFFFF;}
	.st1{font-family:'Multicolore';}
	.st2{font-size:135.0798px;}
</style>
<path d="M472,690c-72.1,0-139.9-28.1-190.9-79.1c-51-51-79.1-118.8-79.1-190.9c0-72.1,28.1-139.9,79.1-190.9
	c51-51,118.8-79.1,190.9-79.1c72.1,0,139.9,28.1,190.9,79.1c51,51,79.1,118.8,79.1,190.9c0,72.1-28.1,139.9-79.1,190.9
	S544.1,690,472,690z"/>
<circle class="st0" cx="472" cy="420" r="250"/>
<path d="M639.9,351L489.4,246.6c-8.3-5.8-20.2-5.8-28.6-0.1L303,354.6c-7.4,5.1-2.2,13.8,8.2,13.9l27.7,0.1v210.8
	c0,10.2,9.6,18.5,21.4,18.5h225.4c13.4,0,24.2-9.4,24.2-21V369.1l18.9,0C642.7,369.2,649.6,357.7,639.9,351z M438.9,471.6h-64.5v-56
	h64.5V471.6z M570.6,471.6h-64.5v-56h64.5V471.6z"/>
<text transform="matrix(1.0456 0 0 1 260.1433 801.3281)" class="st0 st1 st2">Home</text>
</svg>
