<svg id="Layer_1" data-name="Layer 1" xmlns="http://www.w3.org/2000/svg" xmlns:xlink="http://www.w3.org/1999/xlink" viewBox="0 0 1045 1045"><defs><linearGradient id="linear-gradient" x1="1183.02" y1="333.55" x2="1671.87" y2="333.55" gradientTransform="matrix(1, 0, 0, -1, -467, 951)" gradientUnits="userSpaceOnUse"><stop offset="0" stop-color="#e6e6e6"/><stop offset="1" stop-color="#b3b3b3"/></linearGradient><linearGradient id="linear-gradient-2" x1="1176.38" y1="90.79" x2="1677.38" y2="90.79" gradientTransform="matrix(1, 0, 0, -1, -467, 951)" gradientUnits="userSpaceOnUse"><stop offset="0" stop-color="#e6e6e6"/><stop offset="0.29" stop-color="#e2e2e2"/><stop offset="0.56" stop-color="#d7d7d7"/><stop offset="0.82" stop-color="#c4c4c4"/><stop offset="1" stop-color="#b3b3b3"/></linearGradient><linearGradient id="linear-gradient-3" x1="1271.22" y1="-24.66" x2="1588.9" y2="-24.66" xlink:href="#linear-gradient-2"/><linearGradient id="linear-gradient-4" x1="1434.4" y1="494.09" x2="1434.4" y2="297.96" gradientTransform="matrix(1, 0, 0, -1, -467, 951)" gradientUnits="userSpaceOnUse"><stop offset="0" stop-color="#0d1643"/><stop offset="0.41" stop-color="#273683"/><stop offset="0.74" stop-color="#7083f6"/><stop offset="0.8" stop-color="#9aa6dd"/><stop offset="0.83" stop-color="#a1abdd" stop-opacity="0.99"/><stop offset="0.87" stop-color="#a3addd" stop-opacity="0.99"/><stop offset="1" stop-color="#fffcf9" stop-opacity="0.9"/><stop offset="1" stop-color="#fff" stop-opacity="0.9"/></linearGradient><linearGradient id="linear-gradient-5" x1="1430.05" y1="374.08" x2="1430.55" y2="271.29" gradientTransform="matrix(1, 0, 0, -1, -467, 951)" gradientUnits="userSpaceOnUse"><stop offset="0" stop-color="#576fec"/><stop offset="0.06" stop-color="#5b72ec"/><stop offset="0.12" stop-color="#677cea"/><stop offset="0.17" stop-color="#788ae8"/><stop offset="0.24" stop-color="#7e8fe8" stop-opacity="0.99"/><stop offset="0.32" stop-color="#909ee8" stop-opacity="0.97"/><stop offset="0.36" stop-color="#9ba7e8" stop-opacity="0.96"/><stop offset="0.56" stop-color="#b8c3fd" stop-opacity="0.87"/><stop offset="0.57" stop-color="#bbc6ff" stop-opacity="0.86"/><stop offset="0.75" stop-color="#fff" stop-opacity="0.8"/></linearGradient><linearGradient id="linear-gradient-6" x1="1430.72" y1="432.08" x2="1430.72" y2="228.97" gradientTransform="matrix(1, 0, 0, -1, -467, 951)" gradientUnits="userSpaceOnUse"><stop offset="0.26" stop-color="#9ba5e8"/><stop offset="0.54" stop-color="#bbc6ff" stop-opacity="0.87"/><stop offset="0.7" stop-color="#fff9f1" stop-opacity="0.72"/><stop offset="0.91" stop-color="#fff" stop-opacity="0.7"/></linearGradient><linearGradient id="linear-gradient-7" x1="1177.38" y1="549.79" x2="1678.38" y2="549.79" xlink:href="#linear-gradient-2"/></defs><title>naturalgasicon</title><circle cx="522.5" cy="522.5" r="522.5" fill="#ffd015"/><path d="M976.48,143v95c0,12.8,6.39,23.27,14.19,23.27h69.8a9.7,9.7,0,0,1,9.7,9.7h0v1.94a9.7,9.7,0,0,1-9.7,9.7H873.86a9.69,9.69,0,0,1-9.69-9.69h0V119.33a19,19,0,0,1,19-19h177.3a9.7,9.7,0,0,1,9.7,9.7h0a9.7,9.7,0,0,1-9.7,9.7h-69.8C982.87,119.75,976.48,130.22,976.48,143Z" transform="translate(-437 -19)" fill="#b3b3b3"/><rect x="514.67" y="170.68" width="34.64" height="78.39" fill="#4d4d4d"/><rect x="520.14" y="170.68" width="7.29" height="67.45" fill="#f2f2f2" opacity="0.11" style="isolation:isolate"/><path d="M1007.6,240.53a5.39,5.39,0,0,1-1.65.28l-19.74.18c-5.44,0-9.94-7.89-10-17.71a26.42,26.42,0,0,1,2.78-12.6c1.75-3.25,4.2-5.26,6.93-5.28l19.74-.18a4.86,4.86,0,0,1,1.65.25c-2.07.61-3.89,2.41-5.29,5a26.42,26.42,0,0,0-2.78,12.6C999.29,231.87,1002.91,239.17,1007.6,240.53Z" transform="translate(-437 -19)" fill="#333"/><path d="M1015.66,222.92a26,26,0,0,1-2.78,12.61c-1.39,2.59-3.22,4.39-5.28,5-4.69-1.35-8.31-8.65-8.39-17.46a26.42,26.42,0,0,1,2.78-12.6c1.4-2.59,3.22-4.39,5.29-5C1012,206.81,1015.58,214.11,1015.66,222.92Z" transform="translate(-437 -19)" stroke="#000" stroke-miterlimit="10" stroke-width="0.65"/><path d="M932.32,972.53h167.3a1.05,1.05,0,0,0,.44-.1c47.26-22.61,82.36-56.4,97.11-95.8.89-2.4,1.72-4.83,2.46-7.27.35-1.08.66-2.16.94-3.24.42-1.46.79-2.93,1.14-4.42a115.86,115.86,0,0,0,3.16-27V430a117.48,117.48,0,0,0-2.81-25.56c-.53-2.37-1.14-4.71-1.81-7.05-.09-.34-.2-.67-.31-1-.37-1.34-.81-2.66-1.24-4-.27-.74-.51-1.49-.79-2.24-.06-.21-.15-.41-.22-.62-10.82-30.1-33.5-57-64.4-78.22-31.69-21.76-72-37.55-117.18-44.76h0l-2-.32a.81.81,0,0,0-.31,0l-2,.32-.66-.11a2.69,2.69,0,0,0,.46.14c-6.22-1.08-14.17-.4-20.22.92-5.65,1.23-10.54,2.5-16,4-71.91,19.77-130.83,51.63-150,104-.15.4,4.46,14,4,14h0a1,1,0,0,1-1.07-.92,1,1,0,0,1,.07-.46c19.41-52,74.29-94.32,145.88-114q9.25-2.55,18.85-4.57,5.79-1.23,11.69-2.25a1,1,0,0,0,0-2c-3.21-.56-7.15-1.16-11.69-1.5l-1.37-.09h-.16c-3.14-.29-6.24-.54-9.4-.74h0c-1-.09-2.09-.14-3.14-.2h-.12l-1.76.11H977c-3.78-.21-7.22-.37-10.07-.51s-5.3-.22-6.54-.22h-2.19c-2.18,0-4.36.05-6.54.11-110.77,2.68-202.81,56-228.47,127.24l-.13.36c0,.09-.07.17-.09.26-.26.75-.52,1.5-.76,2.24-.46,1.32-.88,2.64-1.25,4a8.25,8.25,0,0,0-.3,1c-.08.23-.16.47-.22.72-.61,2.1-1.14,4.21-1.62,6.33v.09A118.51,118.51,0,0,0,716,430V834.63a116.94,116.94,0,0,0,3.16,27c.35,1.49.72,3,1.16,4.42.26,1,.54,2,.85,3a.27.27,0,0,0,.07.21v.15c.72,2.41,1.54,4.79,2.44,7.13.13.36.29.72.42,1.08.82,2.16,1.7,4.29,2.66,6.41,16.21,36.18,49.76,67.14,94,88.31a1,1,0,0,0,.45.1H921.38c1.07,0,12,.52,11,0C887,949.85,842.82,914.85,828.46,876.5c-.86-2.32-1.66-4.66-2.38-7-.41-1.29-.78-2.58-1.13-3.88s-.72-2.73-1-4.11a116.94,116.94,0,0,1-3.16-27V430a118.76,118.76,0,0,1,2.59-24.66,1,1,0,0,1,1-.81h.1c.64,0-11,.34-11.1,1-1.66,7.92,0,14.76,0,23l-2,33,1,374c0,9.17-14.1,17.22-12,26,.31,1.38,7.61,4.64,8,6,.28,1.14,7.65,7.88,8,9,0,.12,3-.12,3,0s-6,2-6,2c.7,2.35,3.15,1.69,4,4,.15.36,4.87-2.36,5-2,.85,2.16-1,5.87,0,8,16.26,36.23,61.23,62.8,105.6,84,1.14.54,3.27-.48,4.4,0" transform="translate(-437 -19)" fill="url(#linear-gradient)"/><g opacity="0.27"><path d="M934.65,980.14c-47.87-22.86-83.43-57.06-98.36-96.94-.88-2.34-1.68-4.69-2.4-7.07-.42-1.3-.8-2.61-1.15-3.92s-.73-2.76-1-4.15a117.64,117.64,0,0,1-3.2-27.27V431.84a119.24,119.24,0,0,1,2.84-25.75H765.15a119.86,119.86,0,0,0-2.83,25.75v409a117.64,117.64,0,0,0,3.2,27.27c.31,1.39.66,2.77,1,4.15s.73,2.62,1.15,3.92c.72,2.38,1.52,4.74,2.42,7.07,14.91,39.88,50.45,74.08,98.34,96.94H928l5.67,1.61Z" transform="translate(-437 -19)" fill="#fff"/></g><g opacity="0.27"><path d="M1021.53,266.29c-91.22,13.95-163.42,62.55-185.77,124.65H769.58c25-69.43,112.31-122,218.86-128.12Q1005.39,263.78,1021.53,266.29Z" transform="translate(-437 -19)" fill="#fff"/></g><rect x="477.3" y="146.07" width="110.29" height="27.77" rx="6.79" fill="#4d4d4d"/><path d="M952,192.85H937.71a13.89,13.89,0,0,1,0-27.78H952a13.89,13.89,0,0,0,0,27.78Z" transform="translate(-437 -19)" fill="#333"/><path d="M1011.9,179A13.92,13.92,0,0,1,998,192.85H983.73a13.89,13.89,0,1,0,0-27.78H998A13.93,13.93,0,0,1,1011.9,179Z" transform="translate(-437 -19)" fill="#333"/><rect x="524.12" y="146.07" width="14.28" height="27.77" fill="#333"/><polygon points="497.65 961.14 493.26 961.14 491.05 961.14 496.7 962.75 497.65 961.14" fill="#333"/><path d="M938.69,114.74V265.53a16.2,16.2,0,0,1-16.19,16.21H841.18A16.21,16.21,0,0,1,825,265.53V255a16.2,16.2,0,0,1,16.2-16.2h34.56a31.45,31.45,0,0,0,31.37-31.37V171.6a31.44,31.44,0,0,0-31.37-31.37H841.18A16.21,16.21,0,0,1,825,124h0a25.49,25.49,0,0,1,25.49-25.49h72a16.19,16.19,0,0,1,16.23,16.17Z" transform="translate(-437 -19)" fill="#e6e6e6"/><path d="M1210.38,860.21a10.08,10.08,0,0,1-3.18,7.31,11.15,11.15,0,0,1-6.16,2.89,10,10,0,0,1-1.55.12H720.27a10.21,10.21,0,0,1-1.55-.12,10.53,10.53,0,0,1-9.34-10.2,10.14,10.14,0,0,1,3.18-7.31,11.22,11.22,0,0,1,7.71-3h479.22A10.61,10.61,0,0,1,1210.38,860.21Z" transform="translate(-437 -19)" fill="url(#linear-gradient-2)"/><g opacity="0.2"><path d="M1203.85,856.66c0,.86-1.19,1.64-3.1,2.21a25.29,25.29,0,0,1-6,.88H725c-5.14-.21-9.11-1.51-9.11-3.09,0-.86,1.19-1.65,3.1-2.22a28,28,0,0,1,7.51-.91h466.72C1199.09,853.53,1203.85,854.93,1203.85,856.66Z" transform="translate(-437 -19)" fill="#fff"/></g><path d="M1121.9,975.67a5.46,5.46,0,0,1-2,4.15,7.47,7.47,0,0,1-3.91,1.64,6.63,6.63,0,0,1-1,.07H811.14a6.82,6.82,0,0,1-1-.07c-3.34-.4-5.92-2.84-5.92-5.79a5.51,5.51,0,0,1,2-4.16,7.67,7.67,0,0,1,4.89-1.71H1115C1118.8,969.8,1121.9,972.43,1121.9,975.67Z" transform="translate(-437 -19)" fill="url(#linear-gradient-3)"/><g opacity="0.2"><path d="M1117.75,973.65c0,.49-.75.94-2,1.26a19.5,19.5,0,0,1-3.81.5H814.11c-3.25-.12-5.77-.86-5.77-1.76,0-.49.75-.93,2-1.26a19.7,19.7,0,0,1,4.77-.52H1111C1114.74,971.87,1117.75,972.67,1117.75,973.65Z" transform="translate(-437 -19)" fill="#fff"/></g><path d="M1030.57,558.71c-14.7-49.91-49.65-85.11-67.56-101.8a80.52,80.52,0,0,1-2.53,44.67c-5.16,14.33-12.64,24.85-17.93,29.3-6.9,5.81-14.75,8.84-20.22,15.16-19.49,15.81-27.07,42.54-20.35,64.29,8.71,28.15,38.14,38,42.87,39.51,2.52.82,33.78,10.11,61-7.37,18.08-11.64,24-28.43,26.14-34.82C1035.51,597.13,1037.55,582.44,1030.57,558.71Z" transform="translate(-437 -19)" fill="url(#linear-gradient-4)"/><path d="M1013.79,587c-4.91-38.51-26.61-68.24-37.92-82.4a60.72,60.72,0,0,1-7.24,32.86c-5.55,10.11-12.38,17.13-16.82,19.88-5.83,3.62-12,5.06-16.82,9.15-16.37,9.73-25.2,28.79-22.83,45.6,3.08,21.77,23.73,32.1,27.05,33.69,1.82.87,23.84,11,46.15.77A49.7,49.7,0,0,0,1009,623.34C1012.88,616,1016.13,605.28,1013.79,587Z" transform="translate(-437 -19)" stroke="#fff" stroke-miterlimit="10" stroke-width="2" fill="url(#linear-gradient-5)"/><path d="M998,611.41c-1.88-25.8-15.26-46.22-22.25-56a40.73,40.73,0,0,1-6,21.68c-4.05,6.56-8.84,11-11.91,12.72-4,2.23-8.18,3-11.54,5.58-11.24,6-17.81,18.39-16.84,29.66,1.27,14.6,14.64,22.09,16.8,23.26,1.17.64,15.47,8.06,30.7,1.93a33.62,33.62,0,0,0,16.54-14.7C996.28,630.69,998.84,623.68,998,611.41Z" transform="translate(-437 -19)" stroke="#fff" stroke-miterlimit="10" stroke-width="2" fill="url(#linear-gradient-6)"/><path d="M1211.38,401.21a10.08,10.08,0,0,1-3.18,7.31,11.15,11.15,0,0,1-6.16,2.89,10,10,0,0,1-1.55.12H721.27a10.21,10.21,0,0,1-1.55-.12,10.53,10.53,0,0,1-9.34-10.2,10.14,10.14,0,0,1,3.18-7.31,11.22,11.22,0,0,1,7.71-3h479.22A10.61,10.61,0,0,1,1211.38,401.21Z" transform="translate(-437 -19)" fill="url(#linear-gradient-7)"/><g opacity="0.2"><path d="M1204.85,397.66c0,.86-1.19,1.64-3.1,2.21a25.29,25.29,0,0,1-6,.88H726c-5.14-.21-9.11-1.51-9.11-3.09,0-.86,1.19-1.65,3.1-2.22a28,28,0,0,1,7.51-.91h466.72C1200.09,394.53,1204.85,395.93,1204.85,397.66Z" transform="translate(-437 -19)" fill="#fff"/></g><path d="M1460.5,541.78a502.66,502.66,0,0,1-13.67,117,501.44,501.44,0,0,1-133.51,238.3,500.53,500.53,0,0,1-159.73,107.7A502,502,0,0,1,602.68,897.1c-1-1-2-2-3-3A500,500,0,0,1,501.89,753q-3.58-7.73-6.91-15.58-1-2.45-2-4.91c-.26-.63-.52-1.25-.77-1.88-.12-.29-.24-.59-.35-.89s-.35-.86-.52-1.29a1.67,1.67,0,0,1-.08-.2q-.15-.33-.27-.66l-.18-.45c-.18-.44-.35-.88-.52-1.32s-.44-1.11-.65-1.67-.34-.86-.51-1.29c-.1-.25-.2-.5-.29-.75l-.21-.55c0-.1-.08-.2-.11-.3-.43-1.09-.84-2.18-1.24-3.28-.13-.32-.25-.65-.37-1-.23-.61-.45-1.21-.67-1.82s-.48-1.29-.71-1.93l-.19-.51c-.17-.46-.33-.92-.49-1.39-.07-.17-.13-.35-.19-.52a.11.11,0,0,1,0-.08c-.12-.32-.23-.64-.34-1l-.72-2-.12-.34c-.13-.38-.27-.77-.4-1.16v0h0l-.15-.42c-.3-.86-.59-1.72-.89-2.59l-.15-.45c-.28-.83-.56-1.66-.83-2.5s-.56-1.68-.83-2.51c-.51-1.57-1-3.13-1.51-4.7s-1-3.09-1.44-4.64l-.09-.27q-2.12-7-4-14c-.32-1.16-.63-2.31-.93-3.47-.28-1-.54-2-.78-3s-.5-1.91-.73-2.87c-.07-.23-.13-.47-.18-.7-.76-3-1.49-6.06-2.19-9.11-.37-1.6-.73-3.2-1.08-4.81-.3-1.35-.59-2.7-.88-4.06-.23-1.08-.45-2.16-.67-3.24l-.27-1.3q-.58-2.93-1.14-5.85a.11.11,0,0,0,0,0q-.56-2.93-1.06-5.86c-.08-.39-.15-.78-.21-1.18-.22-1.21-.42-2.43-.62-3.65-.16-.92-.31-1.83-.45-2.75-.27-1.67-.53-3.34-.78-5-.3-2-.58-3.94-.86-5.91l-.12-.92c-.24-1.72-.46-3.45-.68-5.18-.05-.45-.11-.9-.16-1.36-.15-1.15-.29-2.3-.41-3.46s-.3-2.54-.43-3.82c-.18-1.64-.35-3.28-.51-4.93s-.32-3.29-.46-4.94q-.13-1.46-.24-2.91c-.09-1-.17-2-.23-2.92s-.15-1.94-.22-2.92c-.06-.81-.12-1.62-.16-2.44s-.13-1.91-.19-2.87-.12-2.05-.17-3.07-.1-1.81-.14-2.72c-.09-1.75-.17-3.5-.23-5.25,0-.77-.06-1.54-.08-2.31q-.07-2-.12-4c0-.52,0-1,0-1.57,0-1.69-.07-3.37-.09-5.06,0-.19,0-.38,0-.57q0-3.11,0-6.22c0-1.07,0-2.14,0-3.2A499.47,499.47,0,0,1,480,386.32q2.69-8.31,5.7-16.54Q490,357.89,495,346.19a500.69,500.69,0,0,1,107.7-159.73q9.38-9.37,19.16-18.18h0A502.17,502.17,0,0,1,1243,127.78a503.77,503.77,0,0,1,178,218.41A499.28,499.28,0,0,1,1460.5,541.78Z" transform="translate(-437 -19)" fill="none" stroke="#000" stroke-miterlimit="10" stroke-width="12"/></svg>