<svg xmlns="http://www.w3.org/2000/svg" xmlns:xlink="http://www.w3.org/1999/xlink" viewBox="0 0 1045 1045"><defs><style>.cls-1{isolation:isolate;}.cls-2{fill:#67c5ca;}.cls-3{font-size:12px;font-family:MyriadPro-Regular, Myriad Pro;}.cls-4{fill:url(#linear-gradient);}.cls-5{fill:url(#linear-gradient-2);}.cls-6{fill:url(#linear-gradient-3);}.cls-7{fill:url(#linear-gradient-4);}.cls-8{fill:url(#linear-gradient-5);}.cls-9{fill:url(#linear-gradient-6);}.cls-10{fill:#999889;}.cls-11,.cls-15{fill:#b0a690;}.cls-12{fill:#bdbdb0;}.cls-13{fill:url(#linear-gradient-7);}.cls-14{fill:#d7d6cb;}.cls-14,.cls-15,.cls-16,.cls-17,.cls-22{mix-blend-mode:soft-light;}.cls-16{fill:url(#linear-gradient-8);}.cls-18{fill:url(#linear-gradient-9);}.cls-19{fill:url(#linear-gradient-10);}.cls-20{fill:url(#linear-gradient-11);}.cls-21{fill:none;stroke:#000;stroke-miterlimit:10;stroke-width:12px;}.cls-22{fill:#fff;}.cls-23{mix-blend-mode:hard-light;}.cls-24{fill:#1c2f42;}</style><linearGradient id="linear-gradient" x1="987.38" y1="290.56" x2="988.95" y2="945.24" gradientUnits="userSpaceOnUse"><stop offset="0" stop-color="aqua"/><stop offset="0.01" stop-color="#00fdfd"/><stop offset="0.26" stop-color="#00c6cb"/><stop offset="0.49" stop-color="#009ba3"/><stop offset="0.7" stop-color="#007c87"/><stop offset="0.88" stop-color="#006975"/><stop offset="1" stop-color="#00626f"/></linearGradient><linearGradient id="linear-gradient-2" x1="999.53" y1="292.49" x2="1001.09" y2="945.48" xlink:href="#linear-gradient"/><linearGradient id="linear-gradient-3" x1="987.62" y1="585.79" x2="988.58" y2="986.13" gradientUnits="userSpaceOnUse"><stop offset="0" stop-color="#00626f"/><stop offset="0.12" stop-color="#006975"/><stop offset="0.3" stop-color="#007c87"/><stop offset="0.51" stop-color="#009ba3"/><stop offset="0.74" stop-color="#00c6cb"/><stop offset="0.99" stop-color="#00fdfd"/><stop offset="1" stop-color="aqua"/></linearGradient><linearGradient id="linear-gradient-4" x1="711" y1="105.5" x2="711" y2="288.5" gradientUnits="userSpaceOnUse"><stop offset="0" stop-color="#ff0" stop-opacity="0.2"/><stop offset="1" stop-color="#f7931e" stop-opacity="0.5"/></linearGradient><linearGradient id="linear-gradient-5" x1="711" y1="277.94" x2="711" y2="116.06" gradientUnits="userSpaceOnUse"><stop offset="0" stop-color="#f7931e" stop-opacity="0.5"/><stop offset="1" stop-color="#ff0" stop-opacity="0.3"/></linearGradient><linearGradient id="linear-gradient-6" x1="711" y1="267.38" x2="711" y2="126.62" gradientUnits="userSpaceOnUse"><stop offset="0" stop-color="#f7931e" stop-opacity="0.9"/><stop offset="1" stop-color="#ff0"/></linearGradient><linearGradient id="linear-gradient-7" x1="757.29" y1="548" x2="757.29" y2="448" gradientUnits="userSpaceOnUse"><stop offset="0.58" stop-color="#006837"/><stop offset="1" stop-color="#22b573" stop-opacity="0.9"/></linearGradient><linearGradient id="linear-gradient-8" x1="760.29" y1="545" x2="760.29" y2="645" xlink:href="#linear-gradient-7"/><linearGradient id="linear-gradient-9" y1="717.5" y2="900.5" xlink:href="#linear-gradient-4"/><linearGradient id="linear-gradient-10" y1="889.94" y2="728.06" xlink:href="#linear-gradient-5"/><linearGradient id="linear-gradient-11" y1="879.38" y2="738.62" xlink:href="#linear-gradient-6"/></defs><title>ourlake_button_1</title><g class="cls-1"><g id="Layer_2" data-name="Layer 2"><circle class="cls-2" cx="522.5" cy="522.5" r="522.5"/><text class="cls-3" transform="translate(439.5 534.5)"> </text></g><g id="Layer_1" data-name="Layer 1"><path class="cls-2" d="M1513.47,543.76c0-1.28,0-2.55,0-3.82,0-.36,0-.71,0-1.06,0-.71,0-1.41,0-2.11l-.06-2.31c0-.77,0-1.54-.07-2.3v-.1c0-1.32-.09-2.64-.14-3.95-.06-1.61-.13-3.21-.21-4.81q-.15-3.07-.34-6.14c-.08-1.51-.18-3-.29-4.52l0-.52c-.1-1.46-.21-2.91-.33-4.37-.14-1.92-.31-3.84-.48-5.77-.13-1.53-.28-3.06-.43-4.59q-.42-4.38-.93-8.76l-.3-2.57c-.21-1.71-.42-3.43-.65-5.14-.12-.94-.24-1.89-.37-2.83l-.3-2.16-.06-.45c-.18-1.24-.35-2.47-.54-3.71-.21-1.42-.42-2.83-.65-4.24-.07-.47-.14-.94-.22-1.41q-.33-2.12-.69-4.23-.78-4.65-1.64-9.27c-.13-.71-.27-1.42-.4-2.13,0-.14,0-.27-.08-.4-.21-1.11-.43-2.21-.65-3.32s-.41-2.07-.63-3.11-.4-2-.61-2.94c-.26-1.28-.54-2.55-.82-3.83q-.53-2.46-1.1-4.92c-.32-1.4-.65-2.81-1-4.22-.24-1-.49-2-.74-3.05-.63-2.58-1.28-5.17-1.95-7.74-.32-1.22-.64-2.44-1-3.66q-2.71-10.12-5.82-20.09-.74-2.34-1.48-4.66t-1.55-4.73c-.47-1.4-.94-2.8-1.42-4.2l-.42-1.23c-.46-1.33-.92-2.65-1.39-4q-.82-2.34-1.68-4.67c-.53-1.45-1.07-2.9-1.61-4.35q-.94-2.52-1.91-5-.89-2.26-1.78-4.51t-1.76-4.37c0-.09-.07-.18-.11-.28q-.93-2.25-1.87-4.5c-.64-1.52-1.28-3-1.94-4.54-.57-1.34-1.16-2.68-1.75-4q-3.14-7.12-6.5-14.15-1-2.11-2-4.21c-.64-1.31-1.28-2.62-1.93-3.92q-3.63-7.26-7.48-14.4c-.56-1.05-1.13-2.1-1.7-3.14l-.51-.93c-.68-1.24-1.36-2.46-2-3.69q-2.4-4.28-4.87-8.49t-5-8.4q-2.55-4.17-5.18-8.29c-.7-1.11-1.41-2.21-2.13-3.31-.27-.42-.54-.85-.82-1.27-.74-1.14-1.49-2.28-2.24-3.41l-.54-.8q-1.14-1.74-2.31-3.45-1.37-2-2.76-4c-.7-1-1.41-2-2.13-3.05l-.66-.95a53.89,53.89,0,0,1-5.42.27h-21.29A508.95,508.95,0,0,0,1273,134h35.54q-4.44-3.41-9-6.72c-.68-.5-1.36-1-2-1.49-1.1-.8-2.22-1.6-3.33-2.39-.37-.28-.75-.55-1.14-.82-1.56-1.11-3.12-2.2-4.7-3.29s-3-2.06-4.48-3.07q-2.64-1.8-5.31-3.56c-.72-.48-1.43-1-2.15-1.4-1.12-.74-2.23-1.47-3.36-2.18-.28-.19-.57-.38-.86-.55q-2-1.32-4.08-2.59-.67-.43-1.35-.84c-1-.63-2-1.25-3-1.85-.81-.51-1.62-1-2.43-1.5q-4.6-2.77-9.28-5.48c-1-.59-2-1.17-3-1.74l-2-1.15c-1-.55-1.92-1.09-2.89-1.62q-2.19-1.22-4.41-2.42-2.57-1.4-5.16-2.76t-5.18-2.7c-1.74-.89-3.49-1.78-5.25-2.65l-3-1.48-1.88-.92c-.9-.45-1.81-.88-2.72-1.31q-2.06-1-4.12-2-.4-.21-.84-.39-2.73-1.29-5.47-2.52c-2.27-1-4.56-2-6.86-3-1.37-.6-2.75-1.2-4.14-1.78q-9.77-4.16-19.72-7.9c-1.26-.48-2.53-1-3.8-1.42q-5.61-2.07-11.27-4l-3.72-1.26-4-1.33-1.46-.47L1146.41,50l-3.11-1c-1-.32-2-.63-3.08-.93l-4-1.19q-2.54-.74-5.1-1.44-5.65-1.58-11.37-3l-2.31-.58c-1.39-.35-2.78-.69-4.18-1q-9.56-2.29-19.25-4.23l-4-.79-.64-.12c-1.58-.3-3.16-.6-4.74-.88q-3-.54-5.91-1c-1.49-.26-3-.5-4.47-.74-.65-.1-1.29-.21-1.94-.3-1.43-.23-2.87-.45-4.31-.66l-3.83-.55-2.27-.31-3.44-.46-2.24-.28c-1.46-.18-2.92-.36-4.38-.52l-.74-.09c-1.58-.18-3.16-.36-4.75-.52-3-.32-6.1-.62-9.16-.88l-2.58-.22c-.38,0-.76-.07-1.15-.09l-3.25-.26-.6,0c-1.72-.13-3.45-.25-5.18-.35s-3.63-.22-5.44-.32h-.11c-1.83-.1-3.66-.19-5.5-.26-1.43-.06-2.86-.12-4.3-.16-.89,0-1.79-.06-2.69-.09-1.23,0-2.47-.07-3.71-.09l-1.46,0-4.53-.07c-1.86,0-3.72,0-5.59,0C702.43,26.5,468.5,260.43,468.5,549S702.43,1071.5,991,1071.5,1513.5,837.57,1513.5,549C1513.5,547.25,1513.49,545.5,1513.47,543.76ZM710.46,125h6.1a498.4,498.4,0,0,0-64.71,49.49A59.68,59.68,0,0,1,710.46,125Z" transform="translate(-468.5 -26.5)"/><path class="cls-2" d="M1513.47,543.76c0-1.28,0-2.55,0-3.82,0-.36,0-.71,0-1.06,0-.71,0-1.41,0-2.11l-.06-2.31c0-.77,0-1.54-.07-2.3v-.1c0-1.32-.09-2.64-.14-3.95-.06-1.61-.13-3.21-.21-4.81q-.15-3.07-.34-6.14c-.08-1.51-.18-3-.29-4.52l0-.52c-.1-1.46-.21-2.91-.33-4.37-.14-1.92-.31-3.84-.48-5.77-.13-1.53-.28-3.06-.43-4.59q-.42-4.38-.93-8.76l-.3-2.57c-.21-1.71-.42-3.43-.65-5.14-.12-.94-.24-1.89-.37-2.83l-.3-2.16-.06-.45c-.18-1.24-.35-2.47-.54-3.71-.21-1.42-.42-2.83-.65-4.24-.07-.47-.14-.94-.22-1.41q-.33-2.12-.69-4.23-.78-4.65-1.64-9.27c-.13-.71-.27-1.42-.4-2.13,0-.14,0-.27-.08-.4-.21-1.11-.43-2.21-.65-3.32s-.41-2.07-.63-3.11-.4-2-.61-2.94c-.26-1.28-.54-2.55-.82-3.83q-.53-2.46-1.1-4.92c-.32-1.4-.65-2.81-1-4.22-.24-1-.49-2-.74-3.05-.63-2.58-1.28-5.17-1.95-7.74-.32-1.22-.64-2.44-1-3.66q-2.71-10.12-5.82-20.09-.74-2.34-1.48-4.66t-1.55-4.73c-.47-1.4-.94-2.8-1.42-4.2l-.42-1.23c-.46-1.33-.92-2.65-1.39-4q-.82-2.34-1.68-4.67c-.53-1.45-1.07-2.9-1.61-4.35q-.94-2.52-1.91-5-.89-2.26-1.78-4.51t-1.76-4.37c0-.09-.07-.18-.11-.28q-.93-2.25-1.87-4.5c-.64-1.52-1.28-3-1.94-4.54-.57-1.34-1.16-2.68-1.75-4q-3.14-7.12-6.5-14.15-1-2.11-2-4.21c-.64-1.31-1.28-2.62-1.93-3.92q-3.63-7.26-7.48-14.4c-.56-1.05-1.13-2.1-1.7-3.14l-.51-.93c-.68-1.24-1.36-2.46-2-3.69q-2.4-4.28-4.87-8.49t-5-8.4q-2.55-4.17-5.18-8.29c-.7-1.11-1.41-2.21-2.13-3.31-.27-.42-.54-.85-.82-1.27-.74-1.14-1.49-2.28-2.24-3.41l-.54-.8q-1.14-1.74-2.31-3.45-1.37-2-2.76-4c-.7-1-1.41-2-2.13-3.05l-.66-.95a53.89,53.89,0,0,1-5.42.27h-21.29A508.95,508.95,0,0,0,1273,134h35.54q-4.44-3.41-9-6.72c-.68-.5-1.36-1-2-1.49-1.1-.8-2.22-1.6-3.33-2.39-.37-.28-.75-.55-1.14-.82-1.56-1.11-3.12-2.2-4.7-3.29s-3-2.06-4.48-3.07q-2.64-1.8-5.31-3.56c-.72-.48-1.43-1-2.15-1.4-1.12-.74-2.23-1.47-3.36-2.18-.28-.19-.57-.38-.86-.55q-2-1.32-4.08-2.59-.67-.43-1.35-.84c-1-.63-2-1.25-3-1.85-.81-.51-1.62-1-2.43-1.5q-4.6-2.77-9.28-5.48c-1-.59-2-1.17-3-1.74l-2-1.15c-1-.55-1.92-1.09-2.89-1.62q-2.19-1.22-4.41-2.42-2.57-1.4-5.16-2.76t-5.18-2.7c-1.74-.89-3.49-1.78-5.25-2.65l-3-1.48-1.88-.92c-.9-.45-1.81-.88-2.72-1.31q-2.06-1-4.12-2-.4-.21-.84-.39-2.73-1.29-5.47-2.52c-2.27-1-4.56-2-6.86-3-1.37-.6-2.75-1.2-4.14-1.78q-9.77-4.16-19.72-7.9c-1.26-.48-2.53-1-3.8-1.42q-5.61-2.07-11.27-4l-3.72-1.26-4-1.33-1.46-.47L1146.41,50l-3.11-1c-1-.32-2-.63-3.08-.93l-4-1.19q-2.54-.74-5.1-1.44-5.65-1.58-11.37-3l-2.31-.58c-1.39-.35-2.78-.69-4.18-1q-9.56-2.29-19.25-4.23l-4-.79-.64-.12c-1.58-.3-3.16-.6-4.74-.88q-3-.54-5.91-1c-1.49-.26-3-.5-4.47-.74-.65-.1-1.29-.21-1.94-.3-1.43-.23-2.87-.45-4.31-.66l-3.83-.55-2.27-.31-3.44-.46-2.24-.28c-1.46-.18-2.92-.36-4.38-.52l-.74-.09c-1.58-.18-3.16-.36-4.75-.52-3-.32-6.1-.62-9.16-.88l-2.58-.22c-.38,0-.76-.07-1.15-.09l-3.25-.26-.6,0c-1.72-.13-3.45-.25-5.18-.35s-3.63-.22-5.44-.32h-.11c-1.83-.1-3.66-.19-5.5-.26-1.43-.06-2.86-.12-4.3-.16-.89,0-1.79-.06-2.69-.09-1.23,0-2.47-.07-3.71-.09l-1.46,0-4.53-.07c-1.86,0-3.72,0-5.59,0C702.43,26.5,468.5,260.43,468.5,549S702.43,1071.5,991,1071.5,1513.5,837.57,1513.5,549C1513.5,547.25,1513.49,545.5,1513.47,543.76ZM710.46,125h6.1a498.4,498.4,0,0,0-64.71,49.49A59.68,59.68,0,0,1,710.46,125Z" transform="translate(-468.5 -26.5)"/><path class="cls-4" d="M1490.5,548a502.5,502.5,0,1,1-1005,0Z" transform="translate(-468.5 -26.5)"/><path class="cls-5" d="M1490.5,548A502.64,502.64,0,0,1,525,743.59Q516.7,724,510.15,703.91q4.15.09,8.35.09c69.52,0,132.4-16.41,177.64-42.9C732.45,679.64,781.28,691,835,691c112.11,0,203-49.47,203-110.5a65.51,65.51,0,0,0-8.93-32.5Z" transform="translate(-468.5 -26.5)"/><path class="cls-6" d="M1451,743.59a502.8,502.8,0,0,1-926,0Z" transform="translate(-468.5 -26.5)"/><circle class="cls-7" cx="711" cy="197" r="91.5"/><circle class="cls-8" cx="711" cy="197" r="80.94"/><circle class="cls-9" cx="711" cy="197" r="70.38"/><rect class="cls-10" x="325.5" y="394.5" width="79" height="79"/><rect class="cls-11" x="41.5" y="349.5" width="93" height="93"/><rect class="cls-10" x="120.5" y="297.5" width="122" height="186"/><rect class="cls-12" x="242.5" y="270.5" width="98" height="207"/><path class="cls-13" d="M1029.07,548H485.5a294.25,294.25,0,0,1,17.42-99.79q7.72-.21,15.58-.21c90.41,0,169.59,21,213.35,52.51,30.23-7.37,65.49-11.6,103.15-11.6C926.33,488.91,1003.58,513.78,1029.07,548Z" transform="translate(-468.5 -26.5)"/><path class="cls-14" d="M812,603.4V796H714V605.32a180.08,180.08,0,0,0,20.85-12.83A409.54,409.54,0,0,0,797,602.38Q804.41,603,812,603.4Z" transform="translate(-468.5 -26.5)"/><path class="cls-15" d="M876,602.63V672H812V603.4q12.76.69,26,.69C851,604.09,863.69,603.59,876,602.63Z" transform="translate(-468.5 -26.5)"/><path class="cls-15" d="M714,605.32V769H592V640.58q7.1-.92,14-2C648.56,631.89,685.75,620.28,714,605.32Z" transform="translate(-468.5 -26.5)"/><path class="cls-15" d="M592,640.58V717H513V644.94c2.82,0,5.66.06,8.5.06A553.34,553.34,0,0,0,592,640.58Z" transform="translate(-468.5 -26.5)"/><path class="cls-16" d="M1032.07,545c-21.87,29.35-81.82,51.83-156.07,57.63-12.31,1-25,1.46-38,1.46q-13.21,0-26-.69-7.59-.39-15-1a409.54,409.54,0,0,1-62.15-9.89A180.08,180.08,0,0,1,714,605.32c-28.25,15-65.44,26.57-108,33.26q-6.9,1.09-14,2A553.34,553.34,0,0,1,521.5,645c-2.84,0-5.68,0-8.5-.06q-3.56-.06-7.08-.15A294.25,294.25,0,0,1,488.5,545Z" transform="translate(-468.5 -26.5)"/><g class="cls-17"><circle class="cls-18" cx="711" cy="809" r="91.5"/><circle class="cls-19" cx="711" cy="809" r="80.94"/><circle class="cls-20" cx="711" cy="809" r="70.38"/></g><path class="cls-21" d="M1491.5,548A502.64,502.64,0,0,1,526,743.59q-1-2.45-2-4.91c-.26-.63-.52-1.25-.77-1.88-.12-.29-.24-.59-.35-.89s-.35-.86-.52-1.29a1.67,1.67,0,0,1-.08-.2q-.15-.33-.27-.66l-.18-.45c-.18-.44-.35-.88-.52-1.32s-.44-1.11-.65-1.67-.34-.86-.51-1.29c-.1-.25-.2-.5-.29-.75l-.21-.55c0-.1-.08-.2-.11-.3-.43-1.09-.84-2.18-1.24-3.28-.13-.32-.25-.65-.37-1-.23-.61-.45-1.21-.67-1.82s-.48-1.29-.71-1.93l-.19-.51c-.17-.46-.33-.92-.49-1.39-.07-.17-.13-.35-.19-.52a.11.11,0,0,1,0-.08c-.12-.32-.23-.64-.34-1l-.72-2-.12-.34c-.13-.38-.27-.77-.4-1.16v0h0l-.15-.42c-.3-.86-.59-1.72-.89-2.59l-.15-.45c-.28-.83-.56-1.66-.83-2.5s-.56-1.68-.83-2.51c-.51-1.57-1-3.13-1.51-4.7s-1-3.09-1.44-4.64l-.09-.27q-2.12-7-4-14c-.32-1.16-.63-2.31-.93-3.47-.28-1-.54-2-.78-3s-.5-1.91-.73-2.87c-.07-.23-.13-.47-.18-.7-.76-3-1.49-6.06-2.19-9.11-.37-1.6-.73-3.2-1.08-4.81-.3-1.35-.59-2.7-.88-4.06-.23-1.08-.45-2.16-.67-3.24l-.27-1.3q-.58-2.93-1.14-5.85a.11.11,0,0,0,0,0q-.56-2.93-1.06-5.86c-.08-.39-.15-.78-.21-1.18-.22-1.21-.42-2.43-.62-3.65-.16-.92-.31-1.83-.45-2.75-.27-1.67-.53-3.34-.78-5-.3-2-.58-3.94-.86-5.91l-.12-.92c-.24-1.72-.46-3.45-.68-5.18-.05-.45-.11-.9-.16-1.36-.15-1.15-.29-2.3-.41-3.46s-.3-2.54-.43-3.82c-.18-1.64-.35-3.28-.51-4.93s-.32-3.29-.46-4.94q-.13-1.46-.24-2.91c-.09-1-.17-2-.23-2.92s-.15-1.94-.22-2.92c-.06-.81-.12-1.62-.16-2.44s-.13-1.91-.19-2.87-.12-2-.17-3.07-.1-1.81-.14-2.72c-.09-1.75-.17-3.5-.23-5.25,0-.77-.06-1.54-.08-2.31q-.07-2-.12-4c0-.52,0-1,0-1.57,0-1.69-.07-3.37-.09-5.06,0-.19,0-.38,0-.57q0-3.11,0-6.22c0-1.07,0-2.14,0-3.2A499.47,499.47,0,0,1,511,392.54q2.68-8.31,5.7-16.54Q521,364.11,526,352.41a500.69,500.69,0,0,1,107.7-159.73q9.38-9.37,19.16-18.18h0A502.17,502.17,0,0,1,1274,134a503.77,503.77,0,0,1,178,218.41A499.28,499.28,0,0,1,1491.5,548Z" transform="translate(-468.5 -26.5)"/><path class="cls-22" d="M696,304.5H870.41a55.09,55.09,0,0,1,55.09,55.09v6.82a55.09,55.09,0,0,1-55.09,55.09H691.59a55.09,55.09,0,0,1-55.09-55.09V364A59.46,59.46,0,0,1,696,304.5Z"/><g class="cls-23"><path class="cls-24" d="M737.94,595.27H862.25a12.25,12.25,0,0,1,12.25,12.25v0a16,16,0,0,1-16,16H737.94a0,0,0,0,1,0,0V595.27a0,0,0,0,1,0,0Z"/><path class="cls-24" d="M1206.44,650V621.77h-25a3.13,3.13,0,0,0-2,5.53Z" transform="translate(-468.5 -26.5)"/><path class="cls-24" d="M1270.52,499.71v107.2a10.29,10.29,0,0,1-10.28,10.29h-53.8Z" transform="translate(-468.5 -26.5)"/><path class="cls-24" d="M1321.64,617.2h-41.28a6,6,0,0,1-6-6V515Z" transform="translate(-468.5 -26.5)"/></g><path class="cls-22" d="M257.19,178.5h140a48.31,48.31,0,0,1,48.31,48.31v4.37a48.31,48.31,0,0,1-48.31,48.31H252.81a48.31,48.31,0,0,1-48.31-48.31v0a52.69,52.69,0,0,1,52.69-52.69Z"/></g></g></svg>
