<?xml version="1.0" encoding="utf-8"?>
<!-- Generator: Adobe Illustrator 24.1.0, SVG Export Plug-In . SVG Version: 6.00 Build 0)  -->
<svg version="1.1" id="Layer_1" xmlns="http://www.w3.org/2000/svg" xmlns:xlink="http://www.w3.org/1999/xlink" x="0px" y="0px"
	 viewBox="0 0 1045 1045" style="enable-background:new 0 0 1045 1045;" xml:space="preserve">
<style type="text/css">
	.st0{fill:#22B573;}
	.st1{fill:none;stroke:#000000;stroke-width:13;stroke-miterlimit:10;}
	.st2{fill:url(#SVGID_1_);}
	.st3{fill:#666666;}
	.st4{fill:url(#SVGID_2_);}
	.st5{fill:#006837;}
	.st6{opacity:0.27;fill:url(#SVGID_3_);enable-background:new    ;}
	.st7{fill:url(#SVGID_4_);fill-opacity:0;}

		.st8{opacity:0.83;fill:none;stroke:#FFFFFF;stroke-width:22;stroke-linecap:round;stroke-miterlimit:10;enable-background:new    ;}
	.st9{opacity:4.000000e-02;fill:url(#SVGID_5_);enable-background:new    ;}
</style>
<circle class="st0" cx="522.5" cy="522.5" r="522.5"/>
<path class="st1" d="M525,1024.5c-67.8,0-133.7-13.3-195.6-39.5c-59.8-25.3-113.6-61.5-159.7-107.7C123.5,831.1,87.3,777.4,62,717.6
	C35.8,655.7,22.5,589.9,22.5,522S35.8,388.3,62,326.4c25.3-59.8,61.5-113.6,107.7-159.7c46.2-46.2,99.9-82.4,159.7-107.7
	C391.3,32.8,457.2,19.5,525,19.5S658.7,32.8,720.6,59c59.8,25.3,113.6,61.5,159.7,107.7c46.2,46.2,82.4,99.9,107.7,159.7
	c26.2,61.9,39.5,127.7,39.5,195.6s-13.3,133.7-39.5,195.6c-25.3,59.8-61.5,113.6-107.7,159.7S780.4,959.7,720.6,985
	C658.7,1011.2,592.8,1024.5,525,1024.5z"/>
<radialGradient id="SVGID_1_" cx="523.4005" cy="558.6501" r="269.7304" gradientTransform="matrix(1 0 0 -1 0 1040)" gradientUnits="userSpaceOnUse">
	<stop  offset="0" style="stop-color:#F2F2F2;stop-opacity:0.1"/>
	<stop  offset="0.111" style="stop-color:#F3F2E3;stop-opacity:0.1999"/>
	<stop  offset="0.3242" style="stop-color:#F5F1BC;stop-opacity:0.3918"/>
	<stop  offset="0.618" style="stop-color:#F8F07D;stop-opacity:0.6562"/>
	<stop  offset="0.9777" style="stop-color:#FCEE27;stop-opacity:0.98"/>
	<stop  offset="1" style="stop-color:#FCEE21"/>
</radialGradient>
<path class="st2" d="M780,458c-0.3,101.1-58.3,188.5-142.6,230.7v45.6c0,16.2-13,29.3-29.1,29.3H433.8c-13.5,0-24.4-11-24.4-24.6
	v-50.3c-84.5-42.3-142.6-130-142.6-231.4c0-142.7,115-258.4,256.9-258.2C666,199.1,780.4,314.7,780,458z"/>
<path class="st3" d="M594.8,860.4H449.7c-5.1,0-9.3-5-9.3-11.2l0,0c0-6.2,4.2-11.2,9.3-11.2h145.1c5.1,0,9.3,5,9.3,11.2l0,0
	C604.1,855.4,599.9,860.4,594.8,860.4z"/>
<path class="st3" d="M615.1,827.7H429.4c-6.6,0-11.9-4.9-11.9-10.9l0,0c0-6,5.4-10.9,11.9-10.9H615c6.6,0,11.9,4.9,11.9,10.9l0,0
	C627,822.8,621.6,827.7,615.1,827.7z"/>
<path class="st3" d="M615.1,795.7H429.4c-6.6,0-11.9-4.9-11.9-10.9l0,0c0-6,5.4-10.9,11.9-10.9H615c6.6,0,11.9,4.9,11.9,10.9l0,0
	C627,790.8,621.6,795.7,615.1,795.7z"/>
<g>

		<linearGradient id="SVGID_2_" gradientUnits="userSpaceOnUse" x1="522" y1="798.9333" x2="522" y2="291.3167" gradientTransform="matrix(1 0 0 -1 0 1040)">
		<stop  offset="0" style="stop-color:#D9E021"/>
		<stop  offset="0.208" style="stop-color:#98BC28"/>
		<stop  offset="0.4084" style="stop-color:#629E2D"/>
		<stop  offset="0.5932" style="stop-color:#388731"/>
		<stop  offset="0.7591" style="stop-color:#197634"/>
		<stop  offset="0.9003" style="stop-color:#076C36"/>
		<stop  offset="1" style="stop-color:#006837"/>
	</linearGradient>
	<path class="st4" d="M636,465.4c0,94.1-48.1,170.9-108.6,175.2V374.5c0-2.7-0.9-5.1-2.4-6.8c-1.5-1.7-3.5-2.8-5.7-2.8
		c-4.5,0-8.1,4.3-8.1,9.7v265.6C453.3,631.7,408,556.7,408,465.4C408,368.5,522,290,522,290S636,368.5,636,465.4z"/>
	<path class="st5" d="M527.4,640.7v113.7c0,5.3-3.6,9.7-8.1,9.7s-8.1-4.3-8.1-9.7V640.1c3.6,0.5,7.2,0.8,10.8,0.8
		C523.8,640.9,525.6,640.8,527.4,640.7z"/>
</g>
<linearGradient id="SVGID_3_" gradientUnits="userSpaceOnUse" x1="407.0385" y1="733.8386" x2="759.6044" y2="278.3338" gradientTransform="matrix(1 0 0 -1 0 1040)">
	<stop  offset="0" style="stop-color:#CCE0F4"/>
	<stop  offset="0.3556" style="stop-color:#CADEF2"/>
	<stop  offset="0.4915" style="stop-color:#C5D8EB"/>
	<stop  offset="0.5899" style="stop-color:#BBCDDF"/>
	<stop  offset="0.6702" style="stop-color:#ACBDCE"/>
	<stop  offset="0.7393" style="stop-color:#99A8B8"/>
	<stop  offset="0.8009" style="stop-color:#828F9C"/>
	<stop  offset="0.8568" style="stop-color:#67717B"/>
	<stop  offset="0.9083" style="stop-color:#474E55"/>
	<stop  offset="0.9544" style="stop-color:#24272B"/>
	<stop  offset="0.9944" style="stop-color:#000000"/>
</linearGradient>
<path class="st6" d="M779,455.8c0,142.9-114.6,258.7-256.1,258.7c-117.9,0-217.1-80.4-246.9-189.9c43.8,56.4,111.9,92.6,188.3,92.6
	c132.1,0,239.2-108.2,239.2-241.6c0-51.1-15.7-98.5-42.5-137.5C732,284,779,364.4,779,455.8z"/>
<radialGradient id="SVGID_4_" cx="522" cy="586" r="229" gradientTransform="matrix(1 0 0 -1 0 1040)" gradientUnits="userSpaceOnUse">
	<stop  offset="0" style="stop-color:#FCEE21;stop-opacity:0.4"/>
	<stop  offset="0.1555" style="stop-color:#FCEE25;stop-opacity:0.3531"/>
	<stop  offset="0.2947" style="stop-color:#FBEE2F;stop-opacity:0.3111"/>
	<stop  offset="0.4277" style="stop-color:#FAEF42;stop-opacity:0.271"/>
	<stop  offset="0.5569" style="stop-color:#F9EF5B;stop-opacity:0.232"/>
	<stop  offset="0.6833" style="stop-color:#F8F07D;stop-opacity:0.1938"/>
	<stop  offset="0.8077" style="stop-color:#F6F1A5;stop-opacity:0.1563"/>
	<stop  offset="0.9281" style="stop-color:#F3F1D5;stop-opacity:0.12"/>
	<stop  offset="0.9944" style="stop-color:#F2F2F2;stop-opacity:0.1"/>
</radialGradient>
<circle class="st7" cx="522" cy="454" r="229"/>
<path class="st8" d="M370.7,302.7C411.1,262.3,464.8,240,522,240"/>
<path class="st8" d="M313.9,403.7c4.5-19,11.7-37.2,21.2-54.2"/>
<radialGradient id="SVGID_5_" cx="522.5" cy="563.5" r="104.5" gradientTransform="matrix(1 0 0 -1 0 1040)" gradientUnits="userSpaceOnUse">
	<stop  offset="0" style="stop-color:#1CE273"/>
	<stop  offset="0.1633" style="stop-color:#1FE272"/>
	<stop  offset="0.2995" style="stop-color:#2AE36E"/>
	<stop  offset="0.426" style="stop-color:#3BE468"/>
	<stop  offset="0.5466" style="stop-color:#53E55F"/>
	<stop  offset="0.663" style="stop-color:#73E753"/>
	<stop  offset="0.7764" style="stop-color:#9AE945"/>
	<stop  offset="0.8854" style="stop-color:#C7EB34"/>
	<stop  offset="0.9917" style="stop-color:#FBEE22"/>
	<stop  offset="0.9944" style="stop-color:#FCEE21"/>
</radialGradient>
<circle class="st9" cx="522.5" cy="476.5" r="104.5"/>
</svg>
