<?xml version="1.0" encoding="utf-8"?>
<!-- Generator: Adobe Illustrator 24.1.0, SVG Export Plug-In . SVG Version: 6.00 Build 0)  -->
<svg version="1.1" id="Layer_1" xmlns="http://www.w3.org/2000/svg" xmlns:xlink="http://www.w3.org/1999/xlink" x="0px" y="0px"
	 viewBox="0 0 1055.2 1055.2" style="enable-background:new 0 0 1055.2 1055.2;" xml:space="preserve">
<style type="text/css">
	.st0{fill:#F47A47;}
	.st1{fill:#007897;}
	.st2{fill:none;stroke:#FFFFFF;stroke-width:24;stroke-miterlimit:10;}
	.st3{fill:#B3B3B3;}
	.st4{fill:none;stroke:#000000;stroke-width:12;stroke-miterlimit:10;}
</style>
<g>
	<circle class="st0" cx="527.6" cy="527.6" r="527.6"/>
	<path class="st1" d="M583.9,646.6c-18.6-18.6-21.2-46-5.9-61.3s42.8-12.7,61.3,5.9c18.6,18.6,13.9,78.8,13.9,78.8
		S602.4,665.1,583.9,646.6z"/>
	<path class="st1" d="M598.5,703.3c-9.1,0.8-17-4.6-17.7-12.1s6.2-14.3,15.3-15.1s33.8,4.9,33.8,4.9S607.6,702.5,598.5,703.3z"/>
	<path class="st2" d="M943.3,465"/>
	<g>
		<path class="st3" d="M934.4,286.5v9.5c0,4.8-3.9,8.8-8.8,8.8h-42.3v27h-37.2v-27h-44.5c-4.8,0-8.8-3.9-8.8-8.8v-9.5
			c0-4.8,3.9-8.8,8.8-8.8h124C930.4,277.7,934.4,281.7,934.4,286.5z"/>
		<path class="st3" d="M948.6,350.9v52.6c0,13.1-10.6,23.7-23.7,23.7H763.3v56.9h9.5c4.8,0,8.8,3.9,8.8,8.8v25.5
			c0,4.8-3.9,8.8-8.8,8.8H645.1c-4.8,0-8.8-3.9-8.8-8.8v-25.5c0-4.8,3.9-8.8,8.8-8.8h9.5v-79.3c0-38.3,29.2-69.8,66.5-73.5H929
			C939.9,331.4,948.6,340.1,948.6,350.9z"/>
	</g>
	<path class="st3" d="M1024.9,426.2h-58c-4.8,0-8.8-3.9-8.8-8.8v-77.3c0-4.8,3.9-8.8,8.8-8.8h28.8
		C1008.6,362.1,1018.3,393.8,1024.9,426.2z"/>
	<path class="st1" d="M1030.1,597.4c-6.1,43.6-17.8,86-35,126.8c-25.6,60.4-62.1,114.7-108.8,161.3
		c-46.6,46.6-100.9,83.2-161.3,108.8c-62.5,26.5-129,39.9-197.5,39.9s-135-13.4-197.5-39.9c-60.4-25.6-114.7-62.1-161.3-108.8
		c-46.6-46.6-83.2-100.9-108.8-161.3c-3.8-9.1-7.4-18.2-10.7-27.4c171.2,91.7,299.9,96.8,390.1,81.1
		c126.3-22.1,184-86.3,365.5-138.6C886.5,615.7,962.8,603.4,1030.1,597.4z"/>
	<path class="st4" d="M530.4,1034.1c-68.5,0-135-13.4-197.5-39.9c-60.4-25.6-114.7-62.1-161.3-108.8
		C125,838.8,88.4,784.5,62.8,724.1c-26.5-62.5-39.9-129-39.9-197.5s13.4-135,39.9-197.5c25.6-60.4,62.1-114.7,108.8-161.3
		C218.2,121.2,272.5,84.6,332.9,59c62.5-26.5,129-39.9,197.5-39.9s135,13.4,197.5,39.9c60.4,25.6,114.7,62.1,161.3,108.8
		c46.6,46.6,83.2,100.9,108.8,161.3c26.5,62.5,39.9,129,39.9,197.5s-13.4,135-39.9,197.5c-25.6,60.4-62.1,114.7-108.8,161.3
		c-46.6,46.6-100.9,83.2-161.3,108.8C665.4,1020.7,598.9,1034.1,530.4,1034.1z"/>
	<rect x="680.1" y="526.9" class="st1" width="59.1" height="222.5"/>
</g>
</svg>
